<svg width="35" height="25" viewBox="0 0 35 25" fill="none" xmlns="http://www.w3.org/2000/svg">
<g clip-path="url(#clip0_156_134)">
<path d="M29.6157 14.3899C28.4561 14.3958 27.4481 14.6751 26.6043 15.088C26.2945 14.4748 25.9849 13.9284 25.9303 13.5276C25.8695 13.0602 25.7967 12.7748 25.8695 12.2162C25.9424 11.6576 26.2703 10.8621 26.2642 10.8014C26.2582 10.7408 26.1912 10.4554 25.5234 10.4494C24.8556 10.4432 24.2787 10.5768 24.2119 10.7529C24.1452 10.9289 24.0177 11.3297 23.9326 11.7425C23.8173 12.3498 22.597 14.5172 21.8988 15.6526C21.6741 15.2095 21.4798 14.8208 21.4372 14.5112C21.3765 14.0438 21.3036 13.7583 21.3765 13.1998C21.4494 12.6412 21.7773 11.8458 21.7712 11.785C21.7651 11.7244 21.6983 11.4389 21.0304 11.433C20.3625 11.4268 19.7856 11.5604 19.719 11.7365C19.6522 11.9126 19.5793 12.3254 19.4397 12.7262C19.3 13.127 17.6789 16.7457 17.2539 17.6806C17.0821 18.059 16.902 18.4335 16.7135 18.8039C16.7135 18.8039 16.7074 18.8222 16.6892 18.8525C16.63 18.9686 16.5693 19.084 16.5071 19.1986V19.2046C16.416 19.3686 16.3188 19.5203 16.2703 19.5203C16.2338 19.5203 16.167 19.0832 16.2824 18.4882C16.5252 17.2314 17.1021 15.2763 17.0961 15.2095C17.0961 15.1731 17.2053 14.8331 16.7196 14.6569C16.2459 14.4809 16.076 14.7723 16.0334 14.7723C15.991 14.7723 15.9605 14.8755 15.9605 14.8755C15.9605 14.8755 16.4889 12.6776 14.9527 12.6776C13.9935 12.6776 12.6698 13.728 12.014 14.6751C11.2686 15.0808 10.5238 15.4876 9.77966 15.8956C9.42158 16.096 9.05114 16.2964 8.70505 16.4845C8.6807 16.4603 8.65648 16.4298 8.63213 16.4056C6.77419 14.4202 3.33773 13.0176 3.48343 10.3522C3.53812 9.38074 3.87197 6.83061 10.0833 3.73413C15.1955 1.21434 19.2636 1.91252 19.9679 3.46082C20.9757 5.67098 17.7882 9.77541 12.5058 10.3703C10.4901 10.5951 9.43356 9.81785 9.1665 9.52645C8.88721 9.2228 8.84463 9.20457 8.74137 9.26538C8.57145 9.35653 8.6807 9.6297 8.74137 9.78752C8.89932 10.2003 9.54893 10.9289 10.6479 11.2873C11.6194 11.6029 13.9812 11.7791 16.841 10.674C20.0407 9.4353 22.5423 5.99272 21.8077 3.10874C21.0729 0.182177 16.2156 -0.783187 11.6194 0.850016C8.88721 1.82163 5.92419 3.35158 3.79307 5.34311C1.26117 7.71095 0.860386 9.76929 1.02432 10.6315C1.61338 13.6916 5.83317 15.6831 7.52106 17.1585C7.43604 17.207 7.357 17.2496 7.29033 17.2861C6.44632 17.705 3.22835 19.3867 2.42692 21.1658C1.51624 23.1815 2.57276 24.6267 3.27093 24.8208C5.43851 25.422 7.66677 24.3413 8.86286 22.5561C10.059 20.7711 9.91325 18.4517 9.36078 17.3892C9.35466 17.3771 9.34867 17.3649 9.33643 17.3527C9.55505 17.2253 9.77966 17.0917 9.99828 16.9642C10.4001 16.7267 10.807 16.4979 11.2187 16.278C11.0122 16.8427 10.8604 17.5167 10.7876 18.4882C10.6965 19.6297 11.1639 21.1111 11.7772 21.6939C12.0505 21.9491 12.3722 21.9551 12.5787 21.9551C13.2952 21.9551 13.617 21.36 13.9752 20.6557C14.4123 19.7936 14.807 18.7918 14.807 18.7918C14.807 18.7918 14.3152 21.4998 15.651 21.4998C16.1367 21.4998 16.6285 20.8682 16.8471 20.5465V20.5525C16.8471 20.5525 16.8592 20.5343 16.8836 20.4918C16.9321 20.4129 16.9625 20.3642 16.9625 20.3642V20.3522C17.1567 20.0121 17.594 19.241 18.2436 17.9599C19.0815 16.3085 19.889 14.2442 19.889 14.2442C19.889 14.2442 19.9619 14.7481 20.2108 15.586C20.3566 16.0777 20.66 16.6181 20.903 17.1402C20.7087 17.4136 20.5872 17.5652 20.5872 17.5652L20.5933 17.5714C20.4354 17.7777 20.2655 18.0024 20.0772 18.2211C19.4153 19.0103 18.6261 19.9151 18.5168 20.1761C18.3892 20.4857 18.4196 20.7104 18.6626 20.8926C18.8386 21.0262 19.1543 21.0443 19.4761 21.0262C20.0712 20.9836 20.4901 20.8379 20.6965 20.7469C21.0183 20.6315 21.3948 20.4554 21.7468 20.1943C22.3966 19.7146 22.7911 19.0285 22.7548 18.124C22.7366 17.6261 22.5726 17.1281 22.3722 16.6606C22.433 16.5757 22.4876 16.4906 22.5484 16.4056C23.5744 14.9059 24.3699 13.2604 24.3699 13.2604C24.3699 13.2604 24.4428 13.7643 24.6916 14.6024C24.8131 15.0274 25.0621 15.4888 25.2806 15.938C24.3152 16.7214 23.7201 17.632 23.5077 18.2271C23.1252 19.3322 23.4226 19.83 23.9873 19.9453C24.2423 20 24.6066 19.8785 24.8738 19.7632C25.2138 19.6539 25.6146 19.4658 25.9971 19.1863C26.6468 18.7068 27.2721 18.0388 27.2356 17.1343C27.2174 16.7214 27.1082 16.3145 26.9563 15.9198C27.776 15.58 28.8325 15.3917 30.1803 15.5495C33.0705 15.8895 33.6412 17.6927 33.5319 18.4518C33.4226 19.2107 32.8155 19.6236 32.6152 19.7511C32.4147 19.8787 32.348 19.9211 32.3662 20.0121C32.3905 20.1457 32.4876 20.1397 32.6576 20.1154C32.8945 20.0729 34.1756 19.5021 34.2302 18.1056C34.3213 16.3206 32.6212 14.3716 29.6157 14.3899ZM7.32067 21.9065C6.3613 22.9508 5.02562 23.3455 4.4488 23.0116C3.82953 22.6533 4.07236 21.1111 5.25023 20.0061C5.96664 19.3322 6.88955 18.7067 7.50283 18.3242C7.64242 18.2392 7.84893 18.1179 8.09789 17.966C8.14033 17.9417 8.16468 17.9296 8.16468 17.9296L8.31039 17.8384C8.74137 19.4171 8.32861 20.8076 7.32067 21.9065ZM14.3031 17.1585C13.9691 17.9721 13.2709 20.0547 12.8459 19.9393C12.4816 19.8422 12.2569 18.2636 12.773 16.7031C13.0341 15.9198 13.5866 14.9848 13.9084 14.6206C14.4306 14.0376 15.0074 13.8432 15.147 14.0802C15.3231 14.3899 14.5095 16.6485 14.3031 17.1585ZM20.0651 19.915C19.9254 19.9879 19.7919 20.0365 19.7311 20C19.6886 19.9757 19.7919 19.8785 19.7919 19.8785C19.7919 19.8785 20.5144 19.1014 20.7997 18.7492C20.9638 18.5429 21.1579 18.3 21.3644 18.0267V18.1056C21.3644 19.0346 20.4657 19.66 20.0649 19.915H20.0651ZM24.5095 18.9011C24.4062 18.8281 24.4244 18.5853 24.7705 17.8263C24.9041 17.5288 25.2198 17.031 25.7603 16.5513C25.8209 16.7456 25.8635 16.9339 25.8574 17.1099C25.8513 18.2818 25.0135 18.7189 24.5095 18.9011Z" fill="#CD6799"/>
</g>
<defs>
<clipPath id="clip0_156_134">
<rect width="33.34" height="25" fill="white" transform="translate(0.929993)"/>
</clipPath>
</defs>
</svg>
