<svg width="34" height="25" viewBox="0 0 34 25" fill="none" xmlns="http://www.w3.org/2000/svg">
<g clip-path="url(#clip0_156_141)">
<path d="M4.49544 0.00482178H28.5075C29.0331 0.00482178 29.4231 0.492256 29.3077 1.00508L25.9235 16.048C25.8664 16.3016 25.7248 16.5281 25.5219 16.6905C25.319 16.8528 25.0668 16.9413 24.807 16.9413H0.918088C0.331439 16.9413 -0.104163 16.3981 0.0233238 15.8254L3.34073 0.930607C3.39925 0.667992 3.54554 0.433167 3.75546 0.264866C3.96537 0.0965644 4.22639 0.0048398 4.49544 0.00482178Z" fill="#0481A3"/>
<path d="M15.0121 4.10077H32.8718C33.2796 4.10077 33.5824 4.47891 33.4934 4.87682L30.4925 18.2958C30.4418 18.5223 30.3155 18.7247 30.1343 18.8698C29.9532 19.0149 29.7281 19.0939 29.496 19.094H11.582C11.2131 19.094 10.9393 18.7521 11.0203 18.3921L14.0587 4.86386C14.1073 4.6473 14.2281 4.45374 14.4014 4.31504C14.5747 4.17634 14.79 4.10077 15.012 4.10077" fill="#14BEF0"/>
<path d="M15.012 4.10077C14.7901 4.10077 14.5748 4.17634 14.4015 4.31504C14.2282 4.45374 14.1074 4.6473 14.0588 4.86386L11.3461 16.9413H24.8068C25.0667 16.9414 25.3188 16.8529 25.5217 16.6906C25.7247 16.5283 25.8663 16.3017 25.9233 16.0482L28.6113 4.1009H15.012V4.10077Z" fill="#73D8F4"/>
<path d="M9.17802 8.57788H17.3526C17.7944 8.57788 18.1213 8.98887 18.022 9.4195L14.5948 24.2652C14.5465 24.474 14.429 24.6604 14.2613 24.7938C14.0935 24.9273 13.8855 24.9999 13.6712 25H5.37173C4.97357 25 4.67815 24.6305 4.76597 24.2421L8.11283 9.42932C8.16745 9.18761 8.30264 8.97165 8.49621 8.81693C8.68978 8.6622 8.93021 8.57791 9.17802 8.57788Z" fill="#6ABA2F"/>
<path d="M11.0203 18.3923C10.9394 18.7522 11.2132 19.0942 11.5821 19.0942H15.7886L16.2856 16.9413H11.3462L11.0203 18.3923Z" fill="#B8EC00"/>
<path d="M17.3527 8.57788H13.2245L11.3463 16.9414H16.2855L18.022 9.41937C18.1215 8.98887 17.7945 8.57788 17.3527 8.57788Z" fill="white"/>
<path d="M9.17803 8.57788C8.9302 8.57788 8.68974 8.66216 8.49615 8.81689C8.30255 8.97161 8.16734 9.18759 8.11272 9.42932L6.41547 16.9414H11.3461L13.2245 8.57788H9.17803Z" fill="#81D958"/>
</g>
<defs>
<clipPath id="clip0_156_141">
<rect width="33.51" height="25" fill="white"/>
</clipPath>
</defs>
</svg>
