<svg width="17" height="25" viewBox="0 0 17 25" fill="none" xmlns="http://www.w3.org/2000/svg">
<g clip-path="url(#clip0_154_92)">
<path d="M4.16831 25C6.46831 25 8.33498 23.1333 8.33498 20.8333V16.6666H4.16831C1.86831 16.6666 0.00164795 18.5333 0.00164795 20.8333C0.00164795 23.1333 1.86831 25 4.16831 25Z" fill="#0ACF83"/>
<path d="M0.00164795 12.5C0.00164795 10.2 1.86831 8.33337 4.16831 8.33337H8.33498V16.6667H4.16831C1.86831 16.6667 0.00164795 14.8 0.00164795 12.5Z" fill="#A259FF"/>
<path d="M0.00164795 4.16667C0.00164795 1.86667 1.86831 0 4.16831 0H8.33498V8.33333H4.16831C1.86831 8.33333 0.00164795 6.46667 0.00164795 4.16667Z" fill="#F24E1E"/>
<path d="M8.33502 0H12.5017C14.8017 0 16.6684 1.86667 16.6684 4.16667C16.6684 6.46667 14.8017 8.33333 12.5017 8.33333H8.33502V0Z" fill="#FF7262"/>
<path d="M16.6684 12.5C16.6684 14.8 14.8017 16.6667 12.5017 16.6667C10.2017 16.6667 8.33502 14.8 8.33502 12.5C8.33502 10.2 10.2017 8.33337 12.5017 8.33337C14.8017 8.33337 16.6684 10.2 16.6684 12.5Z" fill="#1ABCFE"/>
</g>
<defs>
<clipPath id="clip0_154_92">
<rect width="16.67" height="25" fill="white"/>
</clipPath>
</defs>
</svg>
