<?xml version="1.0" encoding="utf-8"?>
<!-- Generator: Adobe Illustrator 25.0.0, SVG Export Plug-In . SVG Version: 6.00 Build 0)  -->
<svg version="1.1" xmlns="http://www.w3.org/2000/svg" xmlns:xlink="http://www.w3.org/1999/xlink" x="0px" y="0px"
	 viewBox="0 0 231.5 217.6" style="enable-background:new 0 0 231.5 217.6;" xml:space="preserve">
<style type="text/css">
	.st0{fill:none;stroke:#000000;stroke-miterlimit:10;}
	.st1{fill:#2C292A;stroke:#808481;stroke-miterlimit:10;}
	.st2{fill:#808481;stroke:#2C292A;stroke-miterlimit:10;}
</style>
<g id="Vrstva_5">
</g>
<g id="Vrstva_2">
</g>
<g id="Vrstva_6">
</g>
<g id="Vrstva_4">
	<g>
		<polygon class="st0" points="633.17,78.08 633.17,78.28 633.13,90.83 615.1,72.8 615.06,83.59 615.05,85.54 615.01,96.44 
			615.01,98.29 614.97,109.27 614.08,110.16 605.94,102.02 605.98,92.68 605.99,89.28 606.03,79.83 606.04,76.53 606.07,67 
			607.69,65.39 613.74,59.33 614.42,59.33 615.15,60.05 624.16,69.06 626.87,71.78 		"/>
	</g>
	<g>
		<polygon class="st0" points="643.17,78.08 643.17,78.28 643.21,90.83 661.24,72.8 661.28,83.59 661.29,85.54 661.33,96.44 
			661.33,98.29 661.37,109.27 662.26,110.16 670.4,102.02 670.36,92.68 670.35,89.28 670.31,79.83 670.3,76.53 670.27,67 
			668.65,65.39 662.6,59.33 661.92,59.33 661.19,60.05 652.18,69.06 649.47,71.78 		"/>
	</g>
	<g>
		<polygon class="st0" points="669.95,46.68 669.94,51.09 669.92,55.62 642.78,55.62 642.77,57.88 642.74,65.5 633.77,74.47 
			633.67,74.37 633.72,61.73 633.77,61.67 633.72,61.62 633.74,55.62 606.6,55.62 606.62,50.45 606.63,47.33 606.63,46.57 
			669.84,46.57 		"/>
	</g>
	<g>
		<polyline class="st0" points="738.77,57.05 711.63,57.05 711.65,51.88 711.66,48.76 711.66,48 774.87,48 774.98,48.11 
			774.97,52.52 774.95,57.05 747.81,57.05 		"/>
	</g>
	<g>
		<path class="st0" d="M637.59,100.6c-2.23,2.02-4.39,3.98-4.39,3.98l-0.02,6.12l-0.01,2.26h9.04l-0.03-6.05l0.05-0.06l0.22-10.65
			C642.45,96.2,639.98,98.44,637.59,100.6z"/>
	</g>
	<path class="st1" d="M196.26,109.18c0,23.34-9.43,44.47-24.69,59.8l-10.68-10.68c13.59-13.01,22.05-31.33,22.05-51.63
		c0-24.51-12.33-46.14-31.14-59.02v104.32c-9.72,0-17.6-7.88-17.6-17.6V38.88c-7.14-2.4-14.79-3.7-22.74-3.7
		c-20.3,0-38.62,8.46-51.63,22.05l-8.17-8.16c15.33-15.26,36.46-24.69,59.8-24.69C158.29,24.38,196.26,62.34,196.26,109.18z"/>
	<path class="st2" d="M158.89,179.49c-13.53,9.15-29.86,14.49-47.43,14.49c-46.84,0-84.8-37.97-84.8-84.8
		c0-17.57,5.34-33.9,14.49-47.43l8.68,8.68c-0.05,0.08,22.75,23.14,22.75,23.14l28.15-25.39h16.37v67.2c0,8.17-6.63,14.8-14.8,14.8
		h-2.8V91.53l-14.48,14.48l0.16,0.16l-12.3,12.31L42.43,88.03c-1.61,5.94-2.46,12.19-2.46,18.64c0,39.48,32.01,71.48,71.49,71.48
		c13.23,0,25.61-3.59,36.23-9.86L158.89,179.49z"/>
</g>
</svg>
