<?xml version="1.0" encoding="utf-8"?>
<!-- Generator: Adobe Illustrator 25.0.0, SVG Export Plug-In . SVG Version: 6.00 Build 0)  -->
<svg version="1.1" id="Vrstva_1" xmlns="http://www.w3.org/2000/svg" xmlns:xlink="http://www.w3.org/1999/xlink" x="0px" y="0px"
	 viewBox="0 0 22 19.6" style="enable-background:new 0 0 22 19.6;" xml:space="preserve">
<style type="text/css">
	.st0{fill:url(#SVGID_1_);stroke:#5B595B;stroke-width:0.156;stroke-miterlimit:10;}
	.st1{fill:#FBA92C;}
	.st2{font-family:'BrushScriptMT';}
	.st3{font-size:2.8503px;}
</style>
<linearGradient id="SVGID_1_" gradientUnits="userSpaceOnUse" x1="11.75" y1="18.6769" x2="11.75" y2="0.7896">
	<stop  offset="0" style="stop-color:#788D93"/>
	<stop  offset="0.2095" style="stop-color:#697579"/>
	<stop  offset="0.4248" style="stop-color:#5F6465"/>
	<stop  offset="0.6448" style="stop-color:#58595A"/>
	<stop  offset="0.8746" style="stop-color:#565656"/>
</linearGradient>
<circle class="st0" cx="11.8" cy="9.7" r="8.9"/>
<g>
	<path class="st1" d="M10.2,10.7V11c-0.3,0.3-0.6,0.6-0.9,0.8c-0.2,0.2-0.5,0.4-0.7,0.5c-0.2,0.2-0.4,0.3-0.6,0.3
		c-0.2,0.1-0.3,0.1-0.4,0.1c-0.3,0-0.5-0.1-0.6-0.3c-0.2-0.2-0.2-0.4-0.2-0.8c0-0.4,0.1-0.7,0.2-1s0.3-0.7,0.6-1.1
		c0.3-0.4,0.6-0.8,1-1.2C8.9,8,9,7.8,9,7.7c0,0,0,0,0-0.1s0,0-0.1,0c-0.1,0-0.3,0.1-0.6,0.4S7.5,8.8,7,9.4c-0.5,0.6-1.1,1.3-1.8,2.1
		c0,0-0.1,0.2-0.3,0.4s-0.3,0.4-0.4,0.5s-0.1,0.1-0.2,0.1c-0.1,0-0.2-0.1-0.3-0.3C4,12,3.9,11.8,3.9,11.6c0-0.1,0-0.3,0.1-0.4
		s0.3-0.4,0.6-0.9c0.3-0.4,0.6-0.8,0.7-1s0.4-0.6,0.7-1c0.2-0.3,0.3-0.5,0.4-0.7s0.1-0.3,0.1-0.4c0-0.1,0-0.2-0.1-0.2
		c-0.1,0-0.4,0.2-0.8,0.5C5.3,7.8,4.9,8.3,4.3,9c-0.5,0.7-1.1,1.5-1.7,2.5c-0.2,0.3-0.3,0.5-0.4,0.6S2,12.3,1.9,12.3
		c-0.1,0-0.2-0.1-0.3-0.4c-0.1-0.3-0.2-0.5-0.2-0.6c0-0.1,0-0.1,0.1-0.2c0.5-0.6,0.8-1.1,1.1-1.6s0.6-0.8,0.8-1.2
		c0.2-0.4,0.4-0.7,0.5-1C4,7.1,4.1,6.9,4.1,6.7c0-0.2-0.1-0.2-0.2-0.2c-0.1,0-0.3,0.1-0.6,0.2S2.7,7,2.3,7.3s-0.7,0.4-1,0.6
		C1,8,0.8,8.1,0.7,8.1C0.6,8.1,0.5,8,0.5,7.9c0-0.1,0-0.2,0.1-0.5c0-0.3,0.1-0.5,0.2-0.6C0.8,6.7,1,6.5,1.3,6.2
		C1.6,6,1.8,5.9,1.8,5.9c0,0,0,0,0,0c0,0,0,0,0,0.1C1.7,6.1,1.6,6.2,1.5,6.3C1.5,6.4,1.4,6.4,1.4,6.5C2,6.1,2.6,5.8,3.1,5.6
		s1.3-0.2,1.3-0.1S4.6,5.8,4.7,6c0.1,0.2,0.1,0.3,0.1,0.3c0,0.2,0,0.4-0.1,0.6S4.4,7.5,4.3,7.8C4.1,8.1,3.9,8.5,3.7,9
		C3.9,8.8,4,8.6,4.2,8.4C4.4,8.2,4.5,8,4.7,7.8C4.9,7.6,5,7.4,5.2,7.2C5.4,6.9,5.7,6.7,6,6.5C6.3,6.2,6.5,6,6.8,5.9
		C7,5.7,7.2,5.6,7.3,5.6c0.1,0,0.2,0.1,0.3,0.2C7.7,6,7.8,6.1,7.8,6.3c0,0.1-0.1,0.3-0.2,0.6C7.4,7.1,7.2,7.5,7,8
		C6.7,8.4,6.4,9,6,9.7c0.4-0.4,0.8-0.9,1.3-1.3c0.4-0.5,0.8-0.8,1-1S8.6,7,8.7,6.9c0.2-0.1,0.4-0.3,0.6-0.5C9.5,6.3,9.6,6.1,9.8,6
		s0.2-0.2,0.3-0.2s0.2-0.1,0.2-0.1c0.1,0,0.2,0.1,0.3,0.3c0.1,0.2,0.2,0.3,0.2,0.4c0,0.1,0,0.2-0.1,0.3c-0.1,0.1-0.3,0.3-0.5,0.6
		C9.7,7.8,9.3,8.3,9,8.9s-0.6,1-0.8,1.4c-0.2,0.4-0.3,0.8-0.3,1c0,0.2,0,0.3,0.1,0.3c0.1,0.1,0.1,0.1,0.3,0.1c0.1,0,0.2,0,0.3-0.1
		c0.1,0,0.2-0.1,0.3-0.2c0.1-0.1,0.2-0.2,0.3-0.2c0.1-0.1,0.3-0.2,0.4-0.3c0.1-0.1,0.3-0.2,0.3-0.2C10.1,10.7,10.1,10.7,10.2,10.7z"
		/>
</g>
<g>
	<path class="st1" d="M16.9,11.3l2.1-0.3c0,0.1-2.8,2-3.1,2c-0.1,0-0.2,0-0.3-0.1c-0.1-0.1-0.1-0.2-0.1-0.3c0-0.2,0.1-0.5,0.2-0.8
		s0.4-0.8,0.7-1.3s0.7-1.1,1.1-1.8s0.9-1.3,1.5-2.1c-0.3,0-0.7-0.1-1.1-0.1c-0.5,0-1.1,0.1-1.7,0.2C15.5,6.8,15,7,14.5,7.1
		s-0.7,0.3-0.7,0.3c0,0,0,0,0,0.1c0,0,0,0,0.1,0c0,0,0.1,0,0.2,0c0.4,0.1,0.6,0.1,0.6,0.2c0,0-0.1,0.1-0.3,0.1c-0.2,0-0.4,0-0.7,0
		c-0.2,0-0.4,0-0.5,0c-0.1,0-0.2,0-0.2-0.1s0-0.1,0-0.2c0-0.1,0-0.2,0.1-0.4c0.1-0.4,0.2-0.7,0.3-1c0.1-0.2,0.4-0.4,0.7-0.6
		c0.3-0.2,0.7-0.3,1.2-0.4C16.2,5,17,4.9,17.5,4.9c0.4,0,0.8,0,1,0.1c0.2,0,0.8,0.1,0.9,0.2c0.1,0.1,1.6,0.4,1.7,0.5
		c0,0-1.5,0.5-1.5,0.5c0,0,0,0.1,0,0.1c0,0,0,0.3-0.1,0.5c-0.1,0.1-0.2,0.3-0.4,0.5c-0.2,0.2-0.3,0.4-0.4,0.5
		C17.9,9.4,17.2,10.6,16.9,11.3z"/>
</g>
<text transform="matrix(1.0967 0 0 1 9.1363 16.691)"><tspan x="0" y="0" class="st1 st2 st3">W</tspan><tspan x="2.3" y="0" class="st1 st2 st3">e</tspan><tspan x="3.5" y="0" class="st1 st2 st3">b</tspan></text>
</svg>
