<svg width="26" height="25" viewBox="0 0 26 25" fill="none" xmlns="http://www.w3.org/2000/svg">
<g clip-path="url(#clip0_155_104)">
<path d="M21.35 0H4.25C1.90279 0 0 1.90279 0 4.25V20.71C0 23.0572 1.90279 24.96 4.25 24.96H21.35C23.6972 24.96 25.6 23.0572 25.6 20.71V4.25C25.6 1.90279 23.6972 0 21.35 0Z" fill="#330000"/>
<path d="M12.4054 14.979H8.43841L7.63121 17.4863C7.62022 17.5321 7.59363 17.5725 7.556 17.6007C7.51838 17.629 7.47208 17.6432 7.42511 17.6409H5.41581C5.30131 17.6409 5.26121 17.5779 5.29561 17.4519L8.73031 7.56013C8.76461 7.45712 8.79901 7.33983 8.83331 7.20813C8.87831 6.97893 8.90131 6.74613 8.90201 6.51263C8.89967 6.49629 8.90116 6.47964 8.90638 6.46398C8.91159 6.44833 8.92037 6.4341 8.93204 6.42243C8.9437 6.41076 8.95792 6.40196 8.97357 6.39674C8.98922 6.39151 9.00587 6.39 9.02221 6.39233H11.7528C11.8328 6.39233 11.8786 6.42102 11.8902 6.47832L15.7885 17.4691C15.8229 17.5837 15.7885 17.641 15.6855 17.6409H13.4529C13.4146 17.6452 13.376 17.6353 13.3444 17.6132C13.3128 17.5911 13.2903 17.5582 13.2812 17.5207L12.4054 14.979ZM9.05661 12.8152H11.77L11.7313 12.6875L11.6692 12.4853L11.6249 12.3433L11.5542 12.1197L11.4039 11.649L11.2717 11.2317L10.9284 10.1447C10.843 9.87451 10.761 9.60322 10.6824 9.33092L10.6196 9.10993L10.5462 8.84863L10.4342 8.44362L10.4132 8.36732H10.3961C10.3102 8.77954 10.2055 9.18763 10.0825 9.59033L9.82771 10.4099L9.68751 10.8627L9.54601 11.3211C9.52041 11.4039 9.49501 11.4858 9.46951 11.5667L9.39351 11.8065L9.31791 12.0407L9.24271 12.2691L9.16791 12.4918C9.14311 12.5651 9.11831 12.6374 9.09361 12.7088L9.05661 12.8152ZM18.1067 8.21273C17.9316 8.21976 17.7569 8.18974 17.5941 8.12464C17.4314 8.05954 17.2842 7.96081 17.1622 7.83493C17.0405 7.70357 16.9461 7.54947 16.8842 7.38148C16.8223 7.21348 16.7942 7.03491 16.8015 6.85602C16.7953 6.67894 16.8265 6.50252 16.8931 6.33831C16.9596 6.1741 17.0601 6.02577 17.1879 5.90303C17.4344 5.66639 17.7627 5.53396 18.1044 5.53333L18.141 5.53373C18.5532 5.53373 18.8767 5.65673 19.1114 5.90293C19.2299 6.03084 19.3219 6.18087 19.3823 6.34442C19.4427 6.50796 19.4703 6.68182 19.4634 6.85602C19.4706 7.03562 19.4416 7.21483 19.3782 7.38301C19.3148 7.55119 19.2182 7.70491 19.0942 7.83503C18.969 7.95842 18.8204 8.05553 18.6571 8.12062C18.4938 8.18571 18.3192 8.21747 18.1434 8.21403L18.1067 8.21273ZM16.9217 17.4691V9.26032C16.9217 9.15733 16.9673 9.10573 17.0591 9.10573H19.1715C19.263 9.10573 19.3088 9.15722 19.3089 9.26032V17.4691C19.3089 17.5837 19.2631 17.641 19.1715 17.6409H17.0763C16.9787 17.6409 16.9273 17.5895 16.9222 17.4867L16.9217 17.4691Z" fill="#FF9A00"/>
</g>
<defs>
<clipPath id="clip0_155_104">
<rect width="25.6" height="25" fill="white"/>
</clipPath>
</defs>
</svg>
