<svg width="27" height="25" viewBox="0 0 27 25" fill="none" xmlns="http://www.w3.org/2000/svg">
<g clip-path="url(#clip0_155_107)">
<path d="M21.95 0H4.84998C2.50277 0 0.599976 1.90279 0.599976 4.25V20.71C0.599976 23.0572 2.50277 24.96 4.84998 24.96H21.95C24.2972 24.96 26.2 23.0572 26.2 20.71V4.25C26.2 1.90279 24.2972 0 21.95 0Z" fill="#001E36"/>
<path d="M6.36438 17.5035V6.52967C6.36438 6.44967 6.39878 6.40947 6.46748 6.40947L6.57618 6.40917L6.76198 6.40717L7.02018 6.40207L7.88518 6.38377L8.81268 6.36657C9.13888 6.36097 9.46228 6.35797 9.78288 6.35797C10.6529 6.35797 11.3856 6.46677 11.9811 6.68427C12.5182 6.86597 13.0081 7.16516 13.4151 7.56007C13.7601 7.9024 14.0267 8.3155 14.1965 8.77087C14.3571 9.21399 14.4385 9.68193 14.437 10.1533C14.437 11.0694 14.2251 11.825 13.8015 12.4202C13.3872 13.0008 12.8092 13.4449 12.1415 13.6958L12.0842 13.7168C11.3869 13.9769 10.6147 14.0709 9.76778 14.0768L9.63618 14.0772L9.44088 14.0762L9.34238 14.0748L9.23258 14.0722L9.16638 14.0696L9.12618 14.0675L9.02728 14.0639L8.90638 14.0614L8.72438 14.0601L8.68388 14.06V17.4863C8.68689 17.5073 8.68497 17.5287 8.67826 17.5488C8.67156 17.5689 8.66026 17.5872 8.64525 17.6022C8.63025 17.6172 8.61196 17.6285 8.59183 17.6353C8.5717 17.642 8.55028 17.6439 8.52928 17.6409H6.48468C6.40438 17.6409 6.36438 17.5953 6.36438 17.5035ZM8.68398 8.47027V12.0495C8.82104 12.0605 8.95848 12.0663 9.09598 12.0667H9.66278C10.0536 12.0654 10.4421 12.0072 10.8161 11.894L10.8907 11.8707C11.2309 11.7696 11.535 11.5729 11.7666 11.3039C11.9818 11.0501 12.0933 10.7004 12.101 10.2547L12.1015 10.2048C12.1105 9.87257 12.0241 9.54477 11.8524 9.26027C11.6719 8.98512 11.4111 8.77224 11.1054 8.65057C10.7062 8.49542 10.2798 8.42243 9.85168 8.43597L9.63388 8.43657L9.49648 8.43777L9.36538 8.43947L9.18038 8.44307L9.04538 8.44687L8.97528 8.44947L8.88158 8.45387L8.80178 8.45877L8.75628 8.46237L8.71698 8.46617L8.69968 8.46817L8.68398 8.47027ZM21.077 11.3987C20.7774 11.2447 20.4596 11.1291 20.1312 11.0545L20.0552 11.0381C19.6938 10.9552 19.3249 10.9095 18.9543 10.9018L18.8617 10.9007C18.6444 10.8948 18.4274 10.9208 18.2177 10.978C18.0842 11.0077 17.9655 11.0837 17.8827 11.1926C17.8267 11.2797 17.7969 11.381 17.7969 11.4846C17.8 11.585 17.8362 11.6816 17.8999 11.7593C17.991 11.8659 18.1006 11.9552 18.2234 12.023L18.2606 12.0427C18.5054 12.1745 18.7577 12.292 19.0162 12.3947C19.5925 12.5876 20.1433 12.85 20.6562 13.1761C21.0057 13.3966 21.2949 13.7006 21.4978 14.0606C21.6684 14.4014 21.7538 14.7785 21.7468 15.1596C21.7571 15.6629 21.6132 16.1572 21.3346 16.5765C21.0363 17.002 20.622 17.3328 20.141 17.5295C19.6373 17.7509 19.0187 17.8652 18.2853 17.8727L18.2091 17.8731C17.7544 17.8777 17.3004 17.8379 16.8535 17.7543L16.7579 17.7357C16.3816 17.6667 16.0153 17.5513 15.6674 17.3922C15.6324 17.3741 15.6029 17.3471 15.5818 17.3139C15.5606 17.2807 15.5487 17.2425 15.5472 17.2032V15.3314C15.5451 15.3132 15.548 15.2948 15.5556 15.2782C15.5632 15.2615 15.5751 15.2473 15.5902 15.2369C15.6049 15.2285 15.6219 15.2249 15.6387 15.2264C15.6556 15.228 15.6716 15.2346 15.6846 15.2455C16.0954 15.4877 16.5416 15.6645 17.0069 15.7693C17.417 15.8721 17.8378 15.9269 18.2606 15.9325C18.6612 15.9325 18.956 15.8809 19.145 15.7779C19.2303 15.7388 19.3025 15.6758 19.3528 15.5966C19.4031 15.5174 19.4294 15.4252 19.4284 15.3314C19.4284 15.1828 19.3425 15.0396 19.1708 14.9021C19.0988 14.8445 18.9955 14.7818 18.8611 14.7141L18.7968 14.6825L18.7282 14.6502L18.6922 14.6338L18.6168 14.6004C18.6037 14.5947 18.5906 14.589 18.5775 14.5834L18.4955 14.549L18.4528 14.5315L18.3642 14.496L18.3182 14.478L18.2229 14.4413L18.1232 14.404C17.5839 14.2163 17.0726 13.9563 16.6033 13.6312C16.2676 13.3977 15.9912 13.0889 15.7962 12.7296C15.6273 12.3912 15.5419 12.0172 15.5472 11.6391C15.5462 11.1847 15.671 10.7389 15.9078 10.3511C16.1778 9.92407 16.5654 9.58407 17.0241 9.37227C17.5278 9.12057 18.1574 8.99457 18.9131 8.99437C19.3557 8.99082 19.7979 9.02242 20.2355 9.08887C20.5524 9.12906 20.8622 9.21285 21.1561 9.33787C21.2034 9.35147 21.2415 9.38637 21.2591 9.43237C21.2708 9.47427 21.2765 9.51757 21.2763 9.56117V11.2957C21.2788 11.3367 21.2591 11.376 21.2248 11.3987C21.2018 11.4101 21.1765 11.416 21.1509 11.416C21.1252 11.416 21.0999 11.4101 21.077 11.3987Z" fill="#31A8FF"/>
</g>
<defs>
<clipPath id="clip0_155_107">
<rect width="25.6" height="25" fill="white" transform="translate(0.599976)"/>
</clipPath>
</defs>
</svg>
