<svg width="26" height="25" viewBox="0 0 26 25" fill="none" xmlns="http://www.w3.org/2000/svg">
<g clip-path="url(#clip0_157_149)">
<path d="M24.8785 11.3864L13.9633 0.471704C13.335 -0.156909 12.3155 -0.156909 11.6865 0.471704L9.4199 2.73831L12.2952 5.6136C12.9634 5.38782 13.7296 5.53928 14.2622 6.0719C14.7973 6.60793 14.9477 7.38069 14.7165 8.051L17.4875 10.8221C18.1579 10.5911 18.9314 10.7406 19.4669 11.2769C20.2152 12.0249 20.2152 13.2373 19.4669 13.9859C18.7183 14.7345 17.5059 14.7345 16.757 13.9859C16.1941 13.4224 16.0551 12.5957 16.34 11.9023L13.7558 9.31809L13.7555 16.1186C13.9429 16.2112 14.114 16.3336 14.2622 16.4809C15.0105 17.2289 15.0105 18.4414 14.2622 19.1906C13.5136 19.9388 12.3007 19.9388 11.5532 19.1906C10.8049 18.4414 10.8049 17.229 11.5532 16.481C11.7325 16.3016 11.9457 16.1595 12.1802 16.0629V9.19905C11.9453 9.10314 11.7321 8.96097 11.5532 8.78098C10.9862 8.21477 10.8499 7.38284 11.1404 6.68665L8.30603 3.85198L0.821655 11.3359C0.192749 11.9651 0.192749 12.9847 0.821655 13.6134L11.7371 24.5282C12.3655 25.157 13.3848 25.157 14.014 24.5282L24.8784 13.6641C25.5071 13.0352 25.5071 12.015 24.8784 11.3864" fill="#DE4C36"/>
</g>
<defs>
<clipPath id="clip0_157_149">
<rect width="25" height="25" fill="white" transform="translate(0.349976)"/>
</clipPath>
</defs>
</svg>
