<?xml version="1.0" encoding="utf-8"?>
<!-- Generator: Adobe Illustrator 25.0.0, SVG Export Plug-In . SVG Version: 6.00 Build 0)  -->
<svg version="1.1" id="Vrstva_1" xmlns="http://www.w3.org/2000/svg" xmlns:xlink="http://www.w3.org/1999/xlink" x="0px" y="0px"
	 viewBox="0 0 46.6 41" style="enable-background:new 0 0 46.6 41;" xml:space="preserve">
<style type="text/css">
	.st0{fill:url(#SVGID_1_);}
	.st1{fill:url(#SVGID_2_);}
	.st2{fill:url(#SVGID_3_);}
	.st3{fill:url(#SVGID_4_);}
</style>
<linearGradient id="SVGID_1_" gradientUnits="userSpaceOnUse" x1="24.5602" y1="8.1623" x2="24.5602" y2="30.7325">
	<stop  offset="0" style="stop-color:#DE9F10"/>
	<stop  offset="0.9605" style="stop-color:#916D19"/>
</linearGradient>
<polygon class="st0" points="38.6,8.2 38.6,11.2 33.7,11.2 33.7,30.7 31,30.7 31,11.2 27.3,11.2 21.5,17.6 19.7,19.6 19.7,19.6 
	13.2,12.5 13.2,30.7 10.5,30.7 10.5,8.2 12.9,8.2 19.7,15.6 26.4,8.2 "/>
<linearGradient id="SVGID_2_" gradientUnits="userSpaceOnUse" x1="25.0192" y1="16.2472" x2="25.0192" y2="30.7325">
	<stop  offset="0" style="stop-color:#DE9F10"/>
	<stop  offset="0.9605" style="stop-color:#916D19"/>
</linearGradient>
<polygon class="st1" points="26.4,16.2 26.4,30.7 23.6,30.7 23.6,19.3 "/>
<g>
	<linearGradient id="SVGID_3_" gradientUnits="userSpaceOnUse" x1="4.4841" y1="5.8646" x2="4.4841" y2="32.25">
		<stop  offset="0" style="stop-color:#DE9F10"/>
		<stop  offset="1" style="stop-color:#916D19"/>
		<stop  offset="1" style="stop-color:#956F19"/>
	</linearGradient>
	<path class="st2" d="M1.6,18.3c2,0,2.2-1.5,2.2-3.5v-4.1c0-3.3,1.3-4.9,3.3-4.9h0.3v1.3H7c-1.5,0-2.2,1.2-2.2,3.6v4
		c0,2.4-0.6,3.8-1.8,4.2c1.2,0.5,1.8,1.7,1.8,4.3v4c0,2.6,1,3.7,2.2,3.7h0.3v1.3H7.1c-1.7,0-3.3-1.4-3.3-4.9v-4.1
		c0-1.9-0.2-3.5-2.2-3.5V18.3z"/>
</g>
<g>
	<linearGradient id="SVGID_4_" gradientUnits="userSpaceOnUse" x1="43.4708" y1="5.8646" x2="43.4708" y2="32.25">
		<stop  offset="0" style="stop-color:#DE9F10"/>
		<stop  offset="1" style="stop-color:#916D19"/>
		<stop  offset="1" style="stop-color:#956F19"/>
	</linearGradient>
	<path class="st3" d="M46.4,19.7c-2.1,0-2.2,1.6-2.2,3.5v4.1c0,3.6-1.6,4.9-3.3,4.9h-0.3V31h0.3c1.2,0,2.2-1.2,2.2-3.7v-4
		c0-2.6,0.6-3.8,1.8-4.3c-1.2-0.4-1.8-1.9-1.8-4.2v-4c0-2.4-0.7-3.6-2.2-3.6h-0.4V5.9h0.3c2,0,3.3,1.7,3.3,4.9v4.1
		c0,2,0.3,3.5,2.2,3.5V19.7z"/>
</g>
</svg>
