<svg width="29" height="25" viewBox="0 0 29 25" fill="none" xmlns="http://www.w3.org/2000/svg">
<g clip-path="url(#clip0_156_139)">
<path d="M23.3542 8.09472C23.0554 7.99222 22.7542 7.89727 22.4507 7.80996C22.5017 7.60162 22.5486 7.39581 22.5903 7.19362C23.2742 3.87334 22.8271 1.19845 21.2998 0.317744C19.8354 -0.526554 17.4406 0.353819 15.0219 2.45875C14.7836 2.66657 14.5505 2.88039 14.3229 3.09998C14.1706 2.95396 14.0156 2.81077 13.8579 2.67049C11.323 0.419827 8.78225 -0.528747 7.25659 0.354476C5.79354 1.20141 5.36032 3.71599 5.97611 6.8627C6.03737 7.17435 6.10655 7.48439 6.18356 7.79252C5.82392 7.89472 5.47688 8.00349 5.14475 8.11928C2.17282 9.15546 0.274902 10.7793 0.274902 12.4636C0.274902 14.2032 2.3124 15.948 5.4078 17.006C5.65875 17.0914 5.91179 17.1706 6.16668 17.2434C6.0839 17.5753 6.0104 17.9094 5.94628 18.2454C5.35922 21.3375 5.81767 23.7926 7.27677 24.6342C8.78378 25.5033 11.3132 24.6101 13.776 22.4571C13.9757 22.2821 14.171 22.1021 14.3617 21.9173C14.6082 22.1551 14.8612 22.3859 15.1205 22.6096C17.5063 24.6625 19.8624 25.4914 21.3201 24.6476C22.8257 23.776 23.315 21.1385 22.6797 17.9296C22.6297 17.6782 22.5736 17.428 22.5114 17.1794C22.689 17.1267 22.8634 17.0726 23.0333 17.0162C26.2513 15.9501 28.3451 14.2264 28.3451 12.4636C28.3451 10.7731 26.3859 9.13836 23.3542 8.09472ZM22.6563 15.8781C22.5028 15.9288 22.3453 15.9778 22.1848 16.0255C21.8295 14.9009 21.3501 13.705 20.7634 12.4694C21.3233 11.2632 21.7842 10.0827 22.1295 8.96533C22.4167 9.04844 22.6953 9.13605 22.9639 9.22849C25.5615 10.1228 27.146 11.4448 27.146 12.4636C27.146 13.5487 25.4348 14.9573 22.6563 15.8781ZM21.5034 18.1625C21.7843 19.5813 21.8244 20.8642 21.6383 21.8672C21.4712 22.7684 21.135 23.3692 20.7192 23.6098C19.8347 24.1219 17.9429 23.4563 15.9026 21.7006C15.6615 21.4927 15.4261 21.278 15.1968 21.057C15.9878 20.192 16.7783 19.1864 17.5498 18.0695C18.9068 17.9491 20.1888 17.7522 21.3514 17.4834C21.4074 17.7085 21.4581 17.935 21.5034 18.1625ZM9.84464 23.5214C8.98038 23.8265 8.29201 23.8353 7.87589 23.5954C6.99047 23.0847 6.62238 21.1134 7.12446 18.4691C7.18415 18.1566 7.25248 17.8458 7.3294 17.5372C8.47918 17.7915 9.75188 17.9744 11.1121 18.0847C11.8888 19.1776 12.7021 20.1821 13.5217 21.0617C13.3475 21.2303 13.1692 21.3945 12.987 21.5543C11.8978 22.5062 10.8065 23.1817 9.84464 23.5214ZM5.79574 15.8714C4.42699 15.4035 3.29661 14.7955 2.52183 14.132C1.82556 13.5358 1.47413 12.9438 1.47413 12.4636C1.47413 11.4414 2.99793 10.1377 5.53949 9.25163C5.84793 9.14417 6.17074 9.04274 6.50571 8.94757C6.85703 10.0901 7.31778 11.2847 7.87381 12.4927C7.31054 13.7186 6.84321 14.9323 6.4885 16.0884C6.25584 16.0217 6.02484 15.9494 5.79574 15.8714ZM7.15297 6.63233C6.62545 3.93638 6.97578 1.90272 7.85747 1.39231C8.7965 0.848665 10.873 1.62377 13.0617 3.5672C13.2045 3.69421 13.3449 3.8238 13.4829 3.9559C12.6673 4.83167 11.8615 5.82871 11.0917 6.91511C9.7715 7.03748 8.5078 7.23397 7.34595 7.49724C7.27437 7.21064 7.21002 6.92228 7.15297 6.63244V6.63233ZM19.2612 9.62224C18.9868 9.14822 18.7022 8.68016 18.4076 8.2184C19.3032 8.33167 20.1613 8.482 20.9671 8.66577C20.7252 9.44121 20.4237 10.2518 20.0688 11.083C19.8093 10.5907 19.5401 10.1037 19.2612 9.62224ZM14.3235 4.81292C14.8765 5.41215 15.4305 6.08112 15.9753 6.807C14.8701 6.7548 13.763 6.75458 12.6577 6.80634C13.2031 6.08715 13.7617 5.41906 14.3235 4.81292ZM9.35407 9.63046C9.07867 10.1081 8.81445 10.5921 8.56163 11.082C8.21251 10.2538 7.91372 9.43945 7.66975 8.65305C8.47063 8.47388 9.32468 8.32739 10.2146 8.21621C9.91672 8.68079 9.6298 9.1523 9.35407 9.63035V9.63046ZM10.2401 16.7963C9.32074 16.6936 8.45385 16.5547 7.65319 16.3804C7.901 15.5799 8.20637 14.7482 8.56306 13.9023C8.81688 14.3926 9.08219 14.8769 9.35878 15.3547C9.64321 15.8459 9.93773 16.3271 10.2401 16.7963ZM14.3566 20.1987C13.7882 19.5855 13.2213 18.9071 12.6677 18.1775C13.2052 18.1986 13.7531 18.2093 14.31 18.2093C14.8821 18.2093 15.4477 18.1965 16.0044 18.1717C15.4578 18.9145 14.9059 19.5938 14.3566 20.1987ZM20.0801 13.8591C20.4553 14.7143 20.7715 15.5416 21.0226 16.3284C20.2088 16.5141 19.3301 16.6637 18.4042 16.7748C18.7009 16.3044 18.9882 15.8282 19.2659 15.3465C19.5483 14.8568 19.8197 14.3609 20.0801 13.8591ZM18.2272 14.7473C17.802 15.486 17.3529 16.2106 16.8806 16.92C16.0251 16.9806 15.1677 17.0107 14.31 17.0103C13.4364 17.0103 12.5867 16.9831 11.7685 16.93C11.2839 16.2222 10.8262 15.4963 10.3965 14.7539H10.3966C9.96889 14.0155 9.56937 13.261 9.19892 12.4922C9.56843 11.7232 9.96674 10.9684 10.393 10.2294L10.3929 10.2295C10.819 9.49025 11.273 8.76747 11.754 8.0627C12.5887 7.99954 13.4447 7.96665 14.3099 7.96665H14.31C15.1791 7.96665 16.0362 7.99987 16.8707 8.06347C17.3468 8.76718 17.798 9.48747 18.2233 10.223C18.6509 10.9604 19.0545 11.7115 19.4333 12.4752C19.0584 13.2467 18.6561 14.0045 18.2272 14.7473ZM20.7009 1.35656C21.6408 1.89866 22.0064 4.08474 21.4158 6.95152C21.3781 7.13441 21.3358 7.3207 21.2897 7.50963C20.125 7.24077 18.8604 7.04088 17.5364 6.91665C16.7651 5.81829 15.9659 4.81972 15.1636 3.95524C15.3739 3.75256 15.5891 3.55513 15.8092 3.36314C17.8816 1.55974 19.8184 0.847678 20.7009 1.35656ZM14.31 9.957C15.6943 9.957 16.8166 11.0793 16.8166 12.4636C16.8166 13.8479 15.6943 14.9702 14.31 14.9702C12.9257 14.9702 11.8034 13.8479 11.8034 12.4636C11.8034 11.0793 12.9257 9.957 14.31 9.957Z" fill="#00D8FF"/>
</g>
<defs>
<clipPath id="clip0_156_139">
<rect width="28.08" height="25" fill="white" transform="translate(0.27002)"/>
</clipPath>
</defs>
</svg>
