<?xml version="1.0" encoding="utf-8"?>
<!-- Generator: Adobe Illustrator 25.0.0, SVG Export Plug-In . SVG Version: 6.00 Build 0)  -->
<svg version="1.1" xmlns="http://www.w3.org/2000/svg" xmlns:xlink="http://www.w3.org/1999/xlink" x="0px" y="0px"
	 viewBox="0 0 231.5 217.6" style="enable-background:new 0 0 231.5 217.6;" xml:space="preserve">
<style type="text/css">
	.st0{fill:none;stroke:#000000;stroke-miterlimit:10;}
	.st1{fill:#494A4F;}
	.st2{fill:#888A8E;}
	.st3{fill:#7D869E;}
	.st4{fill:#3D3E4C;}
</style>
<g id="Vrstva_5">
</g>
<g id="Vrstva_2">
</g>
<g id="Vrstva_6">
</g>
<g id="Vrstva_4">
	<g>
		<polygon class="st0" points="512.09,-282.52 512.09,-282.32 512.05,-269.77 494.02,-287.8 493.98,-277.01 493.97,-275.06 
			493.93,-264.16 493.93,-262.31 493.89,-251.33 493,-250.44 484.86,-258.58 484.9,-267.92 484.91,-271.32 484.95,-280.77 
			484.96,-284.07 484.99,-293.6 486.61,-295.21 492.66,-301.27 493.34,-301.27 494.07,-300.55 503.08,-291.54 505.79,-288.82 		"/>
	</g>
	<g>
		<polygon class="st0" points="522.09,-282.52 522.09,-282.32 522.13,-269.77 540.16,-287.8 540.2,-277.01 540.21,-275.06 
			540.25,-264.16 540.25,-262.31 540.29,-251.33 541.18,-250.44 549.32,-258.58 549.28,-267.92 549.27,-271.32 549.23,-280.77 
			549.22,-284.07 549.19,-293.6 547.57,-295.21 541.52,-301.27 540.84,-301.27 540.11,-300.55 531.1,-291.54 528.39,-288.82 		"/>
	</g>
	<g>
		<polygon class="st0" points="548.87,-313.92 548.86,-309.51 548.84,-304.98 521.7,-304.98 521.69,-302.72 521.66,-295.1 
			512.69,-286.13 512.59,-286.23 512.64,-298.87 512.69,-298.93 512.64,-298.98 512.66,-304.98 485.52,-304.98 485.54,-310.15 
			485.55,-313.27 485.55,-314.03 548.76,-314.03 		"/>
	</g>
	<g>
		<polyline class="st0" points="617.69,-303.55 590.55,-303.55 590.57,-308.72 590.58,-311.84 590.58,-312.6 653.79,-312.6 
			653.9,-312.49 653.89,-308.08 653.87,-303.55 626.73,-303.55 		"/>
	</g>
	<g>
		<path class="st0" d="M516.51-260c-2.23,2.02-4.39,3.98-4.39,3.98l-0.02,6.12l-0.01,2.26h9.04l-0.03-6.05l0.05-0.06l0.22-10.65
			C521.37-264.4,518.89-262.16,516.51-260z"/>
	</g>
	<path class="st1" d="M75.18-251.42c0,23.34-9.43,44.47-24.69,59.8L39.81-202.3c13.59-13.01,22.05-31.33,22.05-51.63
		c0-24.51-12.33-46.14-31.14-59.02v104.32c-9.72,0-17.6-7.88-17.6-17.6v-95.49c-7.14-2.4-14.79-3.7-22.74-3.7
		c-20.3,0-38.62,8.46-51.63,22.05l-8.17-8.16c15.33-15.26,36.46-24.69,59.8-24.69C37.21-336.22,75.18-298.26,75.18-251.42z"/>
	<path class="st2" d="M37.81-181.11c-13.53,9.15-29.86,14.49-47.43,14.49c-46.84,0-84.8-37.97-84.8-84.8
		c0-17.57,5.34-33.9,14.49-47.43l8.68,8.68c-0.05,0.08,22.75,23.14,22.75,23.14l28.15-25.39h16.37v67.2c0,8.17-6.63,14.8-14.8,14.8
		h-2.8v-58.65l-14.48,14.48l0.16,0.16l-12.3,12.31l-30.45-30.45c-1.61,5.94-2.46,12.19-2.46,18.64c0,39.48,32.01,71.48,71.49,71.48
		c13.23,0,25.61-3.59,36.23-9.86L37.81-181.11z"/>
	<path class="st3" d="M153.93,169.84c-11.43,5.93-24.41,9.29-38.18,9.29c-45.8,0-82.93-37.13-82.93-82.93
		c0-14.17,3.55-27.5,9.82-39.17c0,0,12.37,13.13,12.25,13.39l18.2,18.2c0,0,23.4-23.28,23.63-23.28l15.25-0.24v60h-5.39
		c-5.45,0-9.86-4.41-9.86-9.85V86.54l-23.45,23.45l-3.05-3.05l-0.19,0.18L50.27,87.36c-0.39,2.89-0.59,5.84-0.59,8.84
		c0,36.49,29.58,66.07,66.07,66.07c9.04,0,17.66-1.82,25.51-5.1L153.93,169.84z"/>
	<path class="st4" d="M198.68,96.2c0,25.84-11.82,48.92-30.35,64.12l-11.99-11.99c15.51-12.09,25.48-30.94,25.48-52.13
		c0-25.29-14.2-47.25-35.07-58.36v90.36h-2.65c-6.95,0-12.59-5.64-12.59-12.6V32.03c-5.05-1.25-10.33-1.9-15.76-1.9
		c-20.8,0-39.35,9.61-51.45,24.63L52.32,42.79c15.2-18.05,37.98-29.52,63.43-29.52C161.55,13.27,198.68,50.4,198.68,96.2z"/>
</g>
</svg>
