<?xml version="1.0" encoding="utf-8"?>
<!-- Generator: Adobe Illustrator 25.0.0, SVG Export Plug-In . SVG Version: 6.00 Build 0)  -->
<svg version="1.1" id="Vrstva_1" xmlns="http://www.w3.org/2000/svg" xmlns:xlink="http://www.w3.org/1999/xlink" x="0px" y="0px"
	 viewBox="0 0 549.6 671.2" style="enable-background:new 0 0 549.6 671.2;" xml:space="preserve">
<style type="text/css">
	.st0{fill:#4F4F4F;}
	.st1{fill:#999999;}
	.st2{fill:#676767;}
	.st3{fill:#DD9852;}
</style>
<path class="st0" d="M329.5,342c-0.2-0.6-0.3-1.2-0.5-1.9l-0.1,0.1c5.2-2.4,9.4-5.7,11.4-11.3h-0.1c1.5,5.4,4.1,10.8,4.2,16.2
	c0.2,8.1,0.4,16.5-3.5,23.1c-1.5-4.7-3.2-9.9-4.9-15.1l-0.2,0.1l0.3-0.1c-0.4,0.5-1.1,0.9-1.3,1.4c-1.4,4.8-4.5,8-9.1,9.7h0.1
	c-0.5,0.2-1,0.3-1.6,0.5c-0.3-0.3-0.6-0.7-0.9-1c0,0.3,0,0.5,0.1,0.8c0-0.3,0-0.6,0-0.9c0.3,0.3,0.7,0.6,1,1
	c0.5,0.2,0.9,0.5,1.4,0.8l-0.1-0.2c-2,1-4,2-6,3.1l0.1-0.1c-0.4,0.4-0.8,0.8-1.1,1.1l0.1-0.2c0,0.4,0,0.8,0,1.2l-0.1-0.1
	c2.3,4.5-2.9,3.2-4,5l0.1-0.1c-0.6,0.3-1.1,0.6-1.7,0.9l-0.2,0.1l0.3-0.1c-2.9,2.1-5.8,4.3-8.9,6.2c-0.5,0.3-1.8-0.6-2.7-1
	c0.4-0.4,0.8-0.9,1.2-1.3l0.1,0.1c-0.4,0.4-0.8,0.8-1.2,1.3c-0.6,0.9-1.3,1.8-1.9,2.7l0.1-0.1c-0.3,0.1-0.7,0.1-1,0.2l-0.1-0.1h0.3
	c-1.5,0.4-2.9,0.7-4.4,1.1l0.1-0.1c-3.6,1-7.4,1.8-10.9,3.1c-8.5,3.3-16.7-0.7-25-0.5c-2.3,0-4.5-0.4-6.8-0.6l0.1-0.1
	c0.9,5.9,1.7,11.8,2.7,18.7c-1.8-1.7-2.8-2.7-3.9-3.7l0.1,0.1c-0.4,0-0.8,0-1.2,0v-0.1c-5.4-2.8-10.9-5.5-16.2-8.4
	c-0.9-0.5-1.7-1.7-2.2-2.7c-5.2-10.6-12.5-20.5-12.8-33.2c0.4,6,0.8,12.1,1.2,18.1c-0.3,0.1-0.6,0.2-0.9,0.2
	c-1.2-4.5-2.4-9-3.5-13.5c-0.4,0-0.8,0-1.3,0c0.2,2.4-0.2,4.9,0.6,7c2,5.8,4.4,11.4,6.6,17.2c0.7,2,1.1,4.2,1.6,6.2l0.1-0.1
	c0,1,0,2.1,0,3.1c0,0.3,0,0.7,0,1c0,0.7-0.1,1.4-0.1,2.1l0.1-0.1c-0.2-0.1-0.4-0.2-0.5-0.1c-5.7,2.5-11.4,4.3-17.7,4.5
	c-0.3,0-1.1,2.5-0.7,3.3c1.3,2.3,3.1,4.5,4.9,6.4c0.5,0.5,1.9,0.1,2.9,0.1v-0.1c0.4,0,0.8,0,1.2,0v0.1c2.2,0.9,4.3,1.9,6.5,2.8
	c0,0.5-0.1,1-0.1,1.5c-3.5,1.2-6.9,2.4-10.4,3.5l0.1,0.1c-1.1-0.7-2.1-1.4-3.2-2.1l0.2,0.1c-0.7,0-1.5,0-2.2,0l0.1-0.1
	c-2.6-2.1-5.2-4.3-8.3-6.9c-0.6,2.3-1.4,5.6-2.6,10.1c-1.1-2.6-1.8-4-2.9-6.7c-2.2,6.1-4.1,11.3-6,16.7c-1.6-1.2-3.5-2.6-5.6-4.3
	c-1.1,0.9-2.1,1.8-4.2,3.6c0.1-2.3-0.1-4,0.4-5.4c0.3-0.8,2.1-0.9,2.9-1.7c0.5-0.5,0.4-1.6,0.6-2.5c-0.8,0-1.9-0.4-2.5,0
	c-1.4,0.7-2.6,1.8-3.9,2.8c-2.8-4,6.8-11.4-5-11.8c1.4-2.3,2.7-3.9,3.2-5.7c0.2-0.7-1.1-1.9-1.7-2.9l0.1-0.1
	c1.4-1.8,2.8-3.6,4.3-5.3c-0.3-0.4-0.5-0.8-0.8-1.2c-4.8,2.5-9.5,5-14.8,7.8c0.2-1.5,0.4-3,0.6-4.5c-12.4,1.5-23.7,5.7-32.1,16.1
	c-0.4-0.5-0.8-1-1.2-1.6c1.5-1.7,2.7-3.7,4.4-5.1c3.5-2.8,7-5.8,10.9-7.8c3.7-1.9,7.9-2.7,11.9-3.6c6.3-1.4,12.7-2.6,19.2-3.5
	c3.1-0.4,6.3-0.2,9.4-0.2c3.8,0,7.6,0.2,11.4,0.3c-2.7,2.6-5.5,5.2-8.2,7.8c0.4,0.4,0.8,0.9,1.1,1.3c1.8-1.2,3.5-2.8,5.5-3.4
	c4.2-1.2,3.3-3.2,1.4-5.7c-2.3-1-4.5-1.9-7.7-3.3c3.9-1.6,7.7-2.1,9.4-4.3c1.4-1.8,0.3-5.6,0.3-8.6c0.5-0.1,1.1-0.2,1.6-0.3
	c0.6,5.3,1.2,10.6,1.9,16.7c5.2-1.9,8.8-9.5,15.5-3.4c-1.3,1.9-2.6,3.9-4.7,7.1c4.9-3,8.3-5.2,11.8-7.4l0.3-0.2l-0.4,0.1
	c0.2-1.1,0.3-2.2,0.5-3.3l0.1,0.1c-0.7,0-1.5,0-2.2,0l0.1-0.1c-5.5-10.8-8.2-22.2-6.6-34.7c-3.4,4.1-4.7,16.8-2.6,23.2l0,0
	c-1-1.7-2.6-3.3-2.8-5.1c-0.7-5.5-0.9-11-1.5-18.1c-3,2.5-4.5,3.8-6.5,5.5c-1.9-1.5-3.9-3.1-5.7-4.4c0.4-2.5,0.7-4.6,1.2-8
	c1.7-0.7,4.5-1.9,7.4-3.1h0.1l-0.2,0.1c5.7-2.8,11.3-5.6,17-8.2c3-1.4,4.6-3,3-6.5c-1.1-2.2-1.5-4.8-2.6-7
	c-7.4-14.1-9.1-29.6-11.7-45c-2-11.6-5.4-22.9-8.9-34.1c-2.2-7.1-2-8.4,6-9.6c-1.5-4.9-2.8-9.7-4.3-14.5c-1-3.3-2.7-6.5-3.1-9.9
	c-1.2-8.5-1.8-16.9-7.1-24.5c-2.4-3.5-2.7-8.7-3.6-13.2c-1.4-7.5,5.4-15.1-2.2-23.4c5.6,0.6,9.1,0.9,11.7,1.2
	c2.5-1.9,4.9-3.2,6.5-5.1c1.3-1.5,2.4-3.8,2.5-5.8c0.2-7.2,6.3-16.7,12.6-18.8c1-0.3,2.2-0.1,3.4-0.1v-0.1c-0.9,1.8-1.7,3.5-2.6,5.3
	c5.9-5.6,12.8-9.4,20.8-10.7c7.3-1.2,14.8-1.8,22.1-2.9c1.9-0.3,3.8-0.9,5.5-1.7c10.4-4.8,20.9-7.8,32.2-2.8
	c0.7,0.3,1.6,0.6,2.4,0.6c5.3,0.3,10.7-0.1,15.8,1c7.7,1.6,11.4,8.1,15,14.2c2.8,4.7,5.5,8.2,11.9,9.2c5.9,0.9,12.4,3.3,15.6,10
	c0.5,1,2.9,1.6,4.3,1.5c3.5-0.4,5.4,1.3,5,4.9c-0.1,1.2,0.3,2.6,0.9,3.8c1.4,3.2,3.6,6.2,4.4,9.5c1.1,4.6,1,9.6,2,14.3
	c1,5.2-0.1,10-1.1,15.1c-1.9,9.4-2.5,18.9-3.7,28.4c-0.6,5.2-1.3,10.4-1.9,15c2.1,1,4.7,2.2,7.4,3.5c-1.1-0.2-2.2-0.3-3.4-0.4
	c-0.4,0-0.7,0-1.1,0c-1.1,0.7-2.1,1.4-3.2,2.2c0.4,0.6,0.7,1.2,1.1,1.8c2.2-1.2,4.4-2.4,6.6-3.6c0.9,11.3,0.2,14.5-4.6,21.2
	c0.4-4,0.7-7.7,1-11.5c-0.7-0.1-1.4-0.2-2-0.3c-0.6,2.2-1.3,4.5-2.1,7.3c-0.6-2.1-1.2-3.8-1.7-5.4c-0.5-0.1-1-0.2-1.5-0.4
	c-0.8,1.9-2.1,3.7-2.4,5.7c-0.5,4.2-0.4,8.6-0.8,12.8c-0.3,3.1-1.1,6.1-1.8,9.1c-1.5,6.6-2.8,13.2-4.6,19.7
	c-1.5,5.8-3.5,11.6-5.6,18.4c-1.4-2.3-2.3-3.7-3.1-5.1l-0.1,0.1c0.6,0,1.2,0,1.8,0l0.2-0.1l-0.3,0.2c1.4-4.6,3.2-9.2,4.3-14
	c1.6-7,3.6-14,3.9-21.1c0.6-12.5,1.9-25.5-0.7-37.5c-2-8.8,0.9-16.9-0.8-25.3c-0.9-4.5-1-9.2-1.5-13.8c-0.7-0.7-1.5-1.3-2.2-2
	c0.1-0.3,0.2-0.6,0.2-0.9c-0.1,0.3-0.2,0.5-0.2,0.8c0.7,0.7,1.5,1.4,2.2,2c-1.3,1.3-2.5,2.5-3.9,4c-0.1-2-0.2-4.3-0.3-5.1
	c-3.3-3.6-5.8-6.3-8.6-9.4c-1.1,3-2.1,5.7-3.1,8.5c-0.3-0.1-0.5-0.1-0.8-0.2c0-1,0.1-2,0.1-3.1c-2.3,1.7-4.5,3.3-7.6,5.7
	c0.8-4.6,1.3-7.8,1.9-11.6c1.4,0.4,2.7,0.8,5.6,1.6c-0.5-2.6-0.7-6.2-1.4-6.3c-6-0.9-7.5-5.9-10.1-11.3c-1.1,2.5-1.9,4.1-2.7,5.8
	l0.1-0.1c-1-2-2.1-4-3.1-6c0.6,0,1.2,0.1,3.6,0.2c-2.6-1.9-4-3-5.4-4.1c-0.4,0-0.7,0-1.1,0c-0.7-0.7-1.4-1.4-2-2.1
	c0.5-0.2,0.9-0.5,1.4-0.7c-0.4-0.1-0.8-0.1-1.2-0.2c-0.3-0.5-0.6-0.9-0.8-1.4c-0.6-0.1-1.2-0.3-1.8-0.4h0.1c0.6,0.1,1.2,0.2,1.7,0.3
	c-0.1,0.5-0.1,1-0.2,1.5c-2.3-1-4.6-2-6.9-3c-0.6-0.5-1.1-1-1.7-1.5c-0.1-0.1-0.2-0.2-0.3-0.3c0.1,0.1,0.2,0.1,0.4,0.2
	c-0.1,0.5-0.3,1.1-0.4,1.6c-1.6-0.6-3.2-1.2-4.9-1.8c-0.2,0.5-0.4,1.3-0.7,2.1h0.1c-1.4,0.1-2.8,0.3-4.3,0.4c-0.3,0-0.5,0-0.8,0
	c0.3,0,0.6-0.1,0.9-0.1c0.7,1,1.5,1.9,2.2,2.9l-0.1-0.1c3.5,2.8,7,5.7,10.5,8.5l0.1-0.1c-3-1.1-5.9-2.4-8.9-3.3
	c-1.4-0.4-3-0.3-4.5-0.5h0.1c-4.6-1.6-9.2-3.3-13.9-4.6c-4.9-1.4-9.8-3-14.8-3.8c-4.9-0.8-10.1-1.6-14.7-0.6
	c-2.5,0.6-4.9,4.7-6.1,7.7c-3.1,8-5.7,16.1-8,24.3c-1.6,5.7-2.1,11.8-3.7,17.5c-0.9,3.3-3.1,6.2-5.3,10.4c0.6,4.1,4.5,5.2,9.4,5.2
	c2.5,0,5,1.1,7.6,1.7l-0.1-0.1c3.9,1.3,7.8,2.6,11.7,3.9l-0.1-0.1c1.1,0.8,2.2,1.6,3.3,2.4v-0.1c0.4,0,0.8,0,1.2,0v0.1
	c12,3.4,15.3,20.6,12.8,29.4c-1.1,3.8-1.2,7.9-2.1,11.7c-0.8,3.3-2.5,6.4-3.1,9.8c-0.5,2.6-0.8,6.2,0.6,8c6.1,8.3,7.7,8.4,18.1,5.4
	c3-0.9,6.2-1.2,9.3-1.8H297c-2,1.6-4,3.2-6.1,4.8h0.1c-0.9,0-1.9,0-2.8,0l0,0c-5.7-0.8-8.8,3-11.9,6.8l0.1-0.1
	c-2.9,2.1-5.8,4.3-8.7,6.4c3,2.2,4.9,4.1,7.3,5.2c1.4,0.6,3.5,0.2,5.2-0.2c6.1-1.2,12.2-2.7,18.3-3.9c6.6-1.3,13.2-2.3,19.8-3.5
	l0.2-0.1l-0.3,0.2c0.1-0.4,0.2-0.8,0.4-1.2h-0.1c0.4-0.4,0.8-0.8,1.1-1.1l-0.2,0.1c0.7,0.7,1.4,1.4,2.1,2.1l-0.1-0.1
	c0,0.3,0,0.6,0,0.9h0.1c0,0.4,0,0.8,0,1.2h-0.1c1.7,1.2,3.4,2.4,6.3,4.4c-2.3-0.2-3.2-0.3-4.1-0.4l0.1-0.1c-1.3,0.5-3.2,1.9-3.7,1.5
	c-5.4-4.3-10.5-3.4-15.5,0.6l0.1-0.1c-5.5,3.9-11,7.8-17.3,12.4c0-4.4,0-7,0-9.6c0.5,0.1,0.9,0.1,1.4,0.2l0.1,0.2l-0.2-0.1
	c-0.4-0.1-0.8-0.2-1.2-0.3c-5.3,0-10.6,0-15.9,0.1c-0.8,0-2.1,0.5-2.3,1.1c-0.3,0.7,0,2.3,0.5,2.7c2.4,1.8,5.1,3.3,7.8,5
	c-0.5,0.4-1.3,1-2.1,1.7c3.7,0.5,7.4,0.9,11,1.3c0.1,0.6,0.2,1.2,0.3,1.8c-2.7,1.2-5.4,2.4-8.1,3.6l-0.1-0.2l0.2,0.1
	c-2.3,0.3-4.7,1-7,0.7c-3.3-0.3-6.5-1.3-9.7-2l-0.2,0.2l0.3-0.2c0.8,1.1,1.6,2.1,2.5,3.2h0.1c0,0.4,0,0.8,0,1.2h-0.1
	c0.5,3.6,1,7.3,1.7,10.9c0.1,0.5,1,0.9,1.6,1.4v-0.1c0.6,1.6,1.1,3.2,1.7,4.9l-0.1-0.1c1.3,1.2,2.6,2.4,3.9,3.6
	c-0.3,0.8-0.7,1.7-1,2.5c0.2,0.1,0.5,0.1,0.7,0.2c0.1-0.9,0.1-1.8,0.2-2.8c0.4,0.2,0.9,0.4,1.3,0.5l-0.1-0.1c1.3,0.5,2.5,1,3.8,1.4
	v0.1c2.2-1.2,4.5-2.4,6.7-3.6h-0.1c0.3,0.7,0.6,1.4,0.9,2.1c-0.4,0.4-0.8,0.7-1.2,1.1c-0.3,0.4-0.6,0.7-0.1,0.2
	c-0.1,0.8,0,0.3,0-0.3c0.4-0.4,0.8-0.7,1.2-1.1c1.9,1.2,5.8-2.8,6.3,2.3c-0.4,0.1-0.9,0.2-0.3,0.1c-0.5,0.3-0.1,0.1,0.2-0.1
	c1.2,0,2.5,0,3.7,0l-0.1-0.1c0.4,0,0.8,0,1.2,0l-0.1,0.1c0-0.4,0-0.8,0-1.2l0.1,0.1c1.6-1,3.3-1.9,4.9-2.9h-0.1c1-0.3,2-0.7,3-1
	c0.5-0.3,0.9-0.5,1.4-0.8c0.2-0.2,0.3-0.3,0.4-0.4c0,0.1-0.2,0.3-0.3,0.4c-0.5-0.1-1-0.2-1.5-0.3c-0.3-0.4-0.6-0.8-1-1.2l0.1,0.1
	c1-1.3,2.1-2.7,3.1-4l-0.1,0.1c1-0.4,2-0.7,3-1.1l-0.1,0.1c0.9,0.9,1.7,2.2,2.8,2.5c1.3,0.3,2.9-0.4,4.3-0.6l-0.1,0.1
	c0.4-0.4,0.8-0.8,1.2-1.2v0.1c0.3,0,0.6,0,0.9,0.1v-0.1c0.4,0,0.8,0,1.2,0v0.1c1.2-1.3,2.5-2.6,3.7-3.9l-0.1,0.1
	c2.3-2.5,4.6-5,6.9-7.5l0.3,0.2L329.5,342z M259.9,343.8l0.2,0.1l-0.2,0.1v0.2V343.8z M287.2,365.5l0.1-0.2
	C287.3,365.3,287.4,365.5,287.2,365.5l-0.2-0.2L287.2,365.5z M307.3,361.8c-0.1,0.1-0.2,0.1-0.4,0.2
	C307.1,361.9,307.2,361.9,307.3,361.8c0-0.3,0-0.6-0.1-0.9C307.3,361.3,307.3,361.5,307.3,361.8z M273,305.4
	c-0.4,0.1-0.8,0.3-1.2,0.4c0.4-0.2,0.8-0.4,1.1-0.5C272.9,305.3,273,305.4,273,305.4z M238.2,308l-0.1,0.3L238.2,308
	c-0.1-0.4-0.2-0.8-0.3-1.3c-0.4,0.4-0.7,0.9-1,1.3v0.2l-0.1-0.3C237.3,308,237.8,308,238.2,308z M234.1,302.3
	c0.4,1.1,0.7,2.2,1.1,3.3c0.3-0.1,0.7-0.2,1-0.3c-0.1-1-0.2-2-0.2-3.1c1.6-0.3,3.5-0.3,4.8-1c4.6-2.5,5.5-7.3,7.5-11.7
	c4.1-9,7.5-17.7,1.7-27.2l0.1,0.1c0.9-1.7,1.8-3.4,2.8-5.1c1.3-0.6,2.7-1.3,4-1.9c0.4-0.4,0.7-0.7,1.1-1.1c0.9-1.3,1.7-2.6,2.6-3.9
	c-2.9-0.7-5.7-1.3-8.9-2.1c1.3-0.7,2.4-1.2,4.1-2.1c-2.3-1.3-4-2.2-4.6-2.5c-4.4,4-8.1,7.4-12.4,11.4c2.9,0.6,4.7,0.9,6.4,1.2
	l-0.1-0.1c2,0,4,0,6,0c-1.2,0.8-2.3,1.7-3.5,2.3c-5.6,2.6-12.8-0.1-17.7,5.3c0,0-1.4-1.1-2.1-1.7c0.4-0.1,0.9-0.2,0.3-0.1
	c0.5-0.4,0.1-0.1-0.2,0.2c-0.7,0.1-1.3,0.1-2,0.2c-0.5-0.8-1.1-1.5-1.6-2.3c-1.5,1.2-2.9,2.4-4.4,3.5c0.2,0.3,0.5,0.5,0.7,0.8
	c1.8-0.7,3.6-1.5,5.4-2.2c-1.1,4.7-2.2,9.5-3.4,14.2h0.1c-0.6,0.3-1.1,0.6-1.7,0.9l0.1-0.1c-0.4,2.2-0.7,4.4-1.1,6.6
	c-0.3,1.6-1.3,3.3-1.1,4.8c0.5,3.5,1.7,6.9,2.2,10.3c0.3,2.4-0.1,4.9-0.2,7.4l0.1-0.1c0.1,4.6,2.4,8,5.7,11.1
	c3.7,3.6,6.7,7.8,10,11.7c0.5-0.3,0.9-0.6,1.4-0.9c-1.4-4-2.9-7.9-4.4-11.9c0-0.4,0-0.8,0-1.1c-2.6-2.7-5.3-5.3-7.9-8l0.1,0.1
	c1-1.9,1.7-3.9,2.9-5.6c1.3-1.8,3.1-3.5,5-0.4c-0.1,0.1-0.2,0.2-0.2,0.3C233.9,301.8,234,302.1,234.1,302.3z M249.3,237.1
	c-6.5-4.9-17.7-5.6-22.2-1.7C231.4,240.9,241.7,241.8,249.3,237.1z M224.6,318.8c-0.7,0.3-1.4,0.7-2,1c1.4,2.6,2.8,5.2,4.2,7.8
	c0.6-0.3,1.2-0.6,1.7-0.9C227.2,324.1,225.9,321.5,224.6,318.8z M266.6,309.4c-1.8,0-2.5-0.2-2.7,0c-0.3,0.5-0.4,1.1-0.6,1.7
	C264,310.8,264.7,310.4,266.6,309.4z M246.2,243.7c-0.6-0.5-1-1.2-1.4-1.2s-1.4,0.8-1.3,0.9c0.3,0.7,0.8,1.2,1.2,1.8
	C245.1,244.8,245.5,244.3,246.2,243.7z M180.2,412.2c-0.2-0.2-0.4-0.3-0.7-0.4c-0.1,0-0.4,0.2-0.4,0.2c0.1,0.2,0.3,0.5,0.4,0.7
	C179.8,412.5,180,412.3,180.2,412.2z M271.7,161.1c0.1-0.1,0.3-0.1,0.4-0.2c-0.2-0.1-0.4-0.3-0.5-0.4c0,0-0.2,0.2-0.2,0.3
	C271.4,160.9,271.5,161,271.7,161.1z M315.6,368.6c0-0.2,0.1-0.3,0.1-0.5c-0.2,0-0.3,0-0.5,0c0,0.2,0,0.3,0,0.5
	C315.2,368.7,315.5,368.6,315.6,368.6z M260.2,310.2c0.1-0.1,0.3-0.1,0.3-0.2c-0.1-0.2-0.2-0.4-0.2-0.7c-0.1,0.1-0.3,0.1-0.3,0.2
	C260,309.8,260.1,310,260.2,310.2z M295.8,321.5c0.2,0.2,0.4,0.3,0.6,0.5c0.1-0.1,0.3-0.3,0.2-0.3c-0.2-0.2-0.4-0.3-0.6-0.5
	C296,321.3,295.9,321.4,295.8,321.5z M308.5,355.5c0.1,0.1,0.3,0.1,0.4,0.2c0.1-0.1,0.2-0.3,0.2-0.4c-0.1-0.1-0.2-0.1-0.4-0.2
	C308.6,355.2,308.5,355.3,308.5,355.5z M178.6,405.2l-0.4-0.1l0.1,0.3L178.6,405.2z M303.8,362.8l0.3-0.1l-0.3-0.1V362.8z"/>
<path class="st1" d="M189.1,566.8c0.5,1.3,1,2.6,2.1,5.2c-3.7-2.4-6.1-4-8.5-5.6c-2.6,4.7-1.4,9,2.4,10.7c3.2,1.3,7-1.2,10-6.1
	c0.4,1.3,1,2.6,1.1,4c0.1,1.2-0.2,2.5-0.4,3.8c1.8-0.3,3.9-0.2,5.4-1c1.3-0.7,2.2-2.4,3.3-3.8c1.5,2.9,2.8,4.8,5,0.7
	c1.8-3.2,4.2-6.2,6.3-9.3c4.4,2.2,5.3,4.4,2,7.8c-3.8,4-7.8,7.2-13.7,6.8c-0.6,0-1.4,0-1.9,0.3c-6.8,3.4-13.6,6.8-20.2,10.5
	c-2.9,1.6-2.8,4.3,0.2,5.1c5.2,1.4,10.7,2,16,2.7c0.7,0.1,1.9-0.7,2.4-1.4c5.2-6.2,7.9-6,11.8,1.2c0.3,0.5,0.5,1.1,0.1,0.3
	c8.3,2,15.4,3.6,22.6,5.3c3.4,0.8,6.7,2,10.1,2.2c1.9,0.1,4.7-1.2,5.6-2.7c0.6-1.2-1.2-3.7-1.9-5.6l0.1,0.1c-0.4,0-0.8,0-1.2,0
	l0.1-0.1c-0.9-0.3-1.8-0.7-3.6-1.4c2.8-0.8,4.5-1.3,6.7-1.9c-7.6-4.1-8-4.9-5.7-12.7c0.3,0.1,0.7,0.2,0.8,0.4c1,2.3,2,4.6,3,7
	c3.2-1.7,6.4-3.5,9.7-5.2c1.5-0.8,3.2-1.3,4.8-2c3.3-1.4,6.6-2.9,11.5-5.1c3.7,0.8,0,4.6,0,7.7c1.2,0.1,2.3,0.3,3.4,0.1
	c9.2-1.6,15.3,4.8,22.5,8.4v-0.1c0.1,1.2,0.1,2.5,0.2,3.9c2.7-0.8,4.9-1.6,8.3-2.6c-3.7,7.7-9.3,10.8-15.6,13
	c-0.4,0.1-1.1,0-1.4-0.3c-4.9-5.4-12.4-3.1-18-6.3c-2.1-1.2-6.5-1.8-3.1-6.1h-0.1c0.8,0.4,1.6,0.8,2.4,1.1c0.1,0,0.7-1,0.6-1.2
	c-0.5-0.7-1.2-1.8-1.9-1.9c-4.2-0.6-8.5-1.5-12.7-1.2c-1.9,0.1-3.7,2.7-5.1,4.6c-0.3,0.4,1.4,2.7,2.6,3.6
	c6.2,4.4,12.5,8.7,19.2,13.3c-1.6,0.9-3.4,2-6.1,3.5c7.8,4.3,20.4-1.5,23.5,12.5c-5.3,0.9-10.6,2.7-15.9,2.7
	c-30.1,0.2-60.2,0-90.3,0c-2.5,0-5-0.1-7.5,0c-5.4,0.3-10.7,0.7-14-5.1c-0.7-1.2-2.7-1.6-4.7-2.6c0.1,3.9-0.9,7.6,4.7,7.2
	c-16.5,0-32.9,0-50.4,0c3.8-1.9,6.7-3.4,10.5-5.3c-3.3-1.2-4.9-1.8-6.4-2.4c0.2-1,0.4-2,0.6-3c-0.2,0-0.5,0-0.7,0
	c0.1,1,0.1,2.1,0.2,3.1c-5.3-2-2.8-4.8-0.6-8c-4.1-2.8-8.3-5.6-12.8-8.6c-2.6,3-4.8,5.7-7.1,8.4c4.8,4.1,4.6,5.5-0.8,8.4
	c-4.1,2.2-4.3,4.2-0.1,7.5c-5.1,0-9.7,0-15,0c-0.2-3.6-0.6-7.1-0.5-10.5c0.3-8.9,0.8-17.9,1.4-26.8c0.5-6.5-0.1-13.7,9.5-16.3
	c-5-2.5-9-4.3-12.7-6.5c-1.2-0.7-2.6-2.4-2.6-3.6c0.2-10.9,0.6-21.9,1.2-32.8c0.1-2.3,1.8-4.5,2.7-6.7c0.5,0,0.9,0.1,1.4,0.1
	c0.2,2,0.3,3.9,0.5,5.9c0.6,5.7-0.3,11.8,4.7,16.3c0.6,0.5-0.2,2.4,0.1,3.5c1.3,3.8,2.8,7.6,4.5,11.2c0.2,0.4,2.7,0,3.9-0.4
	c2.9-1.1,5.7-2.5,8.9-3.9c-1.5-2.6-3.4-5.4-4.9-8.4c-6.6-13.3-6.3-27.9-8.4-42.1c-1.5-10.5-4.3-20.7-5.9-31.2
	c-0.6-4.3,0.1-8.9,1-13.2c2.7-13.8,5.7-27.6,8.7-41.3c1.8-8.2,5.9-15,11.5-21.2c3.7-4.1,7-8.6,10.4-13c0.5,0.9,1.5,2.5,2.8,4.7
	c-6.2,7.8-6.5,17-4.1,27c1.7,7,2.2,14.3,3.3,21.4c0.5,3,2.3,4.3,5.4,3.5c6.6-1.8,13.3-3.5,19.7-5.2c2.9,4.6,5.9,9.6,8.9,14.5
	c-4.3,4.4-5.1,4.3-8.3-0.5c-1.4-2.2-2.7-4.5-4.2-6.6c-0.8-1.1-2.2-2.6-3.2-2.5c-4.6,0.2-9.3,0.7-13.8,1.7c-0.8,0.2-1.8,3.3-1.4,4.7
	c1.1,3.6,2.9,7,4.5,10.4l-0.1-0.1c2.6,4.7,4.6,10,8.1,14c3.6,4.1,8.7,7,13.2,10.4v-0.1c-4.2,1-4.9,3.5-2.9,7.1
	c2.3,4.1,4.7,8.2,7,12.4c3.8,7.2,7.3,14.6,11.3,21.7c2.8,4.9,2.5,7-2.3,10c-0.7,0.4-1.3,2.5-0.9,3.1c1.4,2.1,3.1,4.1,5.1,5.8
	c2.2,1.9,4.8,3.5,7.2,5.2c-0.3,0.6-0.7,1.2-1,1.8c0.3,0.1,0.6,0.2,0.9,0.3c0-0.7,0-1.4,0-2.2c2.6,3.2,4,1.2,5.6-3.3
	c3.7,6.8,6.7,12.2,9.7,17.6l-0.2,0.1L189.1,566.8z M175.2,582.8L175.2,582.8C175.1,582.9,175.2,582.8,175.2,582.8z M124.8,473.5
	c0.1-1.4,0.3-2.9,0.4-4.3c-0.3,0-0.7,0-1,0.1C124.4,470.7,124.6,472.1,124.8,473.5c-0.2,3.3-0.5,6.6-0.8,9.9l0.2-0.3l-0.2,0.2
	c1,3,0,7.3,5.1,7.8c0.3,0,0.9,2.1,0.6,3c-2.5,7.2,1.1,12.4,5.6,17.2c1.2,1.3,3.8,1.4,5.8,2.1c0.1-1.7,0.3-3.3,0.3-5
	c0-1.1-0.2-2.3-0.3-3.4l0.1,0.1c-1.2,0-2.4,0-2.5,0c-0.9-4.6-1-8.6-2.4-12.1c-2-5.3-4.7-10.5-7.5-15.5
	C128,475.9,126.2,474.9,124.8,473.5z M141.6,615.5c0.1,0.3,0.1,0.6,0.2,1C141.6,616.2,141.6,615.9,141.6,615.5
	c1.2-2.1,2.5-4.3,4.7-8.1c-7.5,2.4-13.9,5.1-19.8-1.2c3-0.2,5.6,0.1,8-0.6c1.9-0.5,3.5-2.2,5.2-3.3c0.7,0.2,1.5,0.3,2.2,0.5
	c0-0.3,0.1-0.6,0.1-0.9c-0.8,0.1-1.5,0.3-2.3,0.4c-2.5-1.4-5-2.7-7.5-4.1c2.9-2.5,5.3-4.5,8.3-7c-3.1-1.4-5-2.4-7-3.1
	c-2.1-0.8-5.1-0.7-6.3-2.2c-2.8-3.6-5.9-1.9-8.6-0.9c-1.3,0.5-1.8,3.4-2.9,5.8c-3.2,0-7.5,0-11.8,0c0.7-0.6,1.5-1.3,2.4-2
	c-3-1.8-6.3-2.8-8.3-5c-3.7-4.2-7-3.1-11.6-0.4c1.6,2,2.9,3.8,4.3,5.5c3.5,4.4,7,8.7,10.5,13c-2.3-0.8-4.9-2.2-3.4,2.9
	c1.6-0.7,3-1.3,4.4-2c3.6,2.8,7.4,3.3,10.5-0.1c1.4-1.6,1.3-4.5,2.1-7.6c3.9,0,8.9,0,13.4,0c-0.5,1.5-1,3.2-1.6,4.9
	c-2,1.7-3.5,3.9-5.1,6c-0.5,0.6-1.3,0.9-1.9,1.4c-1.2,0.9-2.3,1.8-3.5,2.7c2,1.3,4.4,4.1,5.8,3.7c4.3-1.4,6.1,0,7.5,3.8
	c0.4,1.2,1.9,1.9,3.1,3c1.5-4.8,1.5-4.8,6.5-4.2C140,616.4,140.8,615.8,141.6,615.5z M117,580.5c-1.2-2.6-2.4-5.2-3.3-7.1
	c2.6-0.5,5.7-1.2,8.8-1.8c-0.4-1.1-0.7-2.1-1-2.9c-1.2,0.9-2,1.9-2.7,1.8c-4.3-0.8-8.5-2.3-12.8-2.8c-2.9-0.4-5.9,0.4-8.9,0.7
	c0.4,2.3,0.4,4.7,1.3,6.8c1.4,3.2,13.3,7.2,17.7,6.2C116.4,581.4,116.4,581.1,117,580.5z M95.5,577.1c-0.6-7.3-5.9-11.5-12-9.4
	C88,571.2,91.7,574.2,95.5,577.1z M100.2,442.5c-0.5,0.1-1,0.1-1.4,0.2c0.4,4.7-2.1,9.9,3.4,14.6
	C101.4,451.7,100.8,447.1,100.2,442.5z M220.1,611.6c4.1,4.9,7.2,5.4,10.2,1.5C226.9,612.6,223.9,612.1,220.1,611.6z M105.9,584
	c0.2-0.7,0.3-1.4,0.5-2.1c-2.3-0.6-4.6-1.2-6.9-1.8c-0.2,0.7-0.3,1.4-0.5,2.1C101.3,582.8,103.6,583.4,105.9,584z M98.6,504.5
	c0.6-0.2,1.1-0.4,1.7-0.5c-0.6-2.3-1.3-4.6-1.9-6.9c-0.5,0.2-1.1,0.3-1.6,0.5C97.4,499.8,98,502.2,98.6,504.5z M120,465.5
	c-0.5,0.1-1,0.1-1.6,0.2c0.2,1.6,0.4,3.2,0.6,4.8c0.7-0.1,1.4-0.2,2-0.3C120.7,468.7,120.3,467.1,120,465.5z M215.6,606.5
	c-0.2,0.7-0.3,1.3-0.5,2c1.3,0.3,2.6,0.5,3.9,0.8c0.1-0.5,0.3-1.1,0.4-1.6C218.1,607.3,216.9,606.9,215.6,606.5z M127.2,578.8
	c-0.3,0.4-0.7,0.9-1,1.3c0.9,0.7,1.8,1.4,2.7,2.1c0.3-0.4,0.6-0.7,0.9-1.1C128.9,580.4,128.1,579.6,127.2,578.8z M155.7,540.5
	c0.6,0.1,1.1,0.2,1.7,0.3c0.2-1.7,0.3-3.3,0.5-5c-0.4,0-0.7-0.1-1.1-0.1C156.3,537.3,156,538.9,155.7,540.5z M122.4,500
	c0.2,0.1,0.5,0.2,0.7,0.2c-0.1-1.6-0.2-3.2-0.3-6.2C122.6,497,122.5,498.5,122.4,500z M113.7,565.1c-1.2-0.5-1.7-0.9-2.2-0.9
	c-0.4,0-0.7,0.5-1.1,0.8c0.4,0.4,0.7,1.2,1.1,1.2C112,566.3,112.5,565.7,113.7,565.1z M177.7,588c0.2-0.2,0.4-0.3,0.7-0.5
	c-0.5-0.7-1-1.3-1.5-2c-0.2,0.2-0.4,0.3-0.6,0.5C176.6,586.7,177.2,587.4,177.7,588z M117.4,567.1c-0.1-0.2-0.2-0.6-0.4-0.7
	c-0.2-0.1-0.5,0.2-0.8,0.3c0.1,0.2,0.2,0.6,0.4,0.6C116.8,567.4,117.1,567.2,117.4,567.1z M271.9,588.1c-0.2,0.2-0.5,0.4-0.7,0.5
	c0.3,0.2,0.7,0.4,1,0.6c0.1-0.2,0.3-0.5,0.4-0.7C272.4,588.4,272.2,588.2,271.9,588.1z M132.7,579.3c0-0.3,0-0.6,0-0.8
	c-0.2,0.1-0.6,0.2-0.7,0.3c-0.1,0.2,0,0.5,0,0.8C132.3,579.5,132.5,579.4,132.7,579.3z M195.7,601.5c0.1-0.2,0.2-0.5,0.2-0.7
	c0-0.1-0.3-0.2-0.3-0.2c-0.2,0.1-0.4,0.3-0.6,0.5C195.2,601.2,195.4,601.4,195.7,601.5z M111.3,471c-0.1,0.3-0.2,0.6-0.2,0.9
	c0,0.1,0.3,0.3,0.4,0.2c0.2-0.2,0.4-0.4,0.5-0.6C111.8,471.3,111.5,471.1,111.3,471z M126.1,512.1c-0.1,0.1-0.2,0.2-0.2,0.3
	s0.2,0.2,0.3,0.3c0.1-0.2,0.2-0.3,0.3-0.5C126.4,512.2,126.2,512.1,126.1,512.1z M126.8,524.6c-0.1,0.1-0.2,0.2-0.4,0.3
	c0.2,0.1,0.4,0.2,0.6,0.3c0.1-0.1,0.2-0.3,0.2-0.4C127.1,524.7,126.9,524.7,126.8,524.6z M228.8,621.4c0.1-0.2,0.3-0.6,0.2-0.7
	c-0.1-0.2-0.4-0.3-0.7-0.4c-0.1,0.2-0.3,0.5-0.2,0.7C228.2,621.2,228.5,621.3,228.8,621.4z M110.7,588.5l0.3-0.1l-0.2-0.2
	L110.7,588.5z M129.4,623.8c-0.2-0.1-0.4-0.1-0.6-0.2c0,0.1,0.1,0.2,0.1,0.4C129,624,129.2,623.9,129.4,623.8z"/>
<path class="st2" d="M459.2,615.1c-3.7-5.1-6.7-10.9-11.2-15c-3-2.8-8.4-2.8-12.3-4.7c-3.6-1.8-7.2-4.1-10.1-6.8
	c-2.3-2.1-0.8-3.7,1.2-3.6c0.5-2.8,0.9-5.3,1.3-7.8c0.6-0.2,1.1-0.4,1.7-0.6c8.4,11.9,20.7,17.5,33.9,21.5l-0.1-0.1
	c2.4,1.4,4.7,2.9,7.1,4.3c-0.2,0.5-0.4,0.9-0.6,1.4c-2.7-0.5-5.4-1.1-9.5-1.9c2.1,2.4,3.2,3.5,4.3,4.8c-3.5,5-3.7,10.1-0.8,15.6
	c3.1,5.8,0.7,9.5-5.9,9.5c-12.8,0-25.5,0-38.5,0c1.1-5.7,2.1-11.3,3.2-17.3c-2-0.4-3.3-0.6-5-1c1.2-4.2,2.4-8.2,3.6-12.5
	c7,5.2,16,6.5,19.8,15.2c0.4-0.4,0.8-0.8,1.2-1.3c-0.2-0.8-0.9-1.8-0.6-2.4c0.6-1.6,1.5-3.2,2.6-4.5c0.2-0.2,2.6,0.8,3.1,1.8
	c0.9,1.5,0.8,3.5,1.5,5.1c0.8,1.6,1.9,3,3.2,4.2c0.3,0.2,2.1-1.4,3.2-2.2l-0.1,0.1c1.3-0.6,2.6-1.2,3.9-1.8l0.2-0.1L459.2,615.1z"/>
<path class="st3" d="M463.9,489.6c-1,0.2-1.9,0.5-2.7,0.7c-1.8-0.8-2.4-8.5-5-0.7c-0.4,1.2,1.6,3.1,1.6,5.4
	c-1.7-1.1-3.2-2.7-5.1-3.2c-2-0.6-4.2-0.1-6.7-0.1c-0.4-1.5-0.9-3.2-1.4-5.3c-4.7,2.2-9.2,4.3-13.7,6.4c-4.1-3.6-3.3-8.7,1.6-12.5
	c2.5-1.9,4.2-4.9,6.5-7.2c0.8-0.8,2.8-1.8,3.3-1.5c2,1.6,3.7,3.7,5.4,5.5c-0.4,0.4-0.9,0.8-1.3,1.2c-1-0.8-2-1.7-3.4-2.9
	c-0.6,2.5-1.1,4.6-1.5,6.7c-0.4,0.4-0.8,0.7-1.2,1.1c0.4,0.1,0.7,0.3,1.1,0.4c0-0.6,0-1.1,0-1.7c2.7-1.8,3.9,0.5,5.6,1.9
	c1.5,1.2,3.7,2.6,5.4,2.4c3-0.3,6-1.3,8.7-2.7c3.1-1.6,1.6-3.3-0.6-4.5l0.1,0.1c-5.7-2.4-7.1-9.9-1.4-14.4c6.4-5,7.1-10.5,6.4-17.7
	c-0.3-2.9,2-6,3.1-9l-0.1,0.1c0.6,1,1.8,2.1,1.8,3.1c0,22.4-0.1,44.7-0.3,67.1c0,1.7-1.2,3.3-2.9,4.7c0.5-2.7,1.2-5.4,1.4-8.1
	c0.1-1.3-0.5-3.5-1.3-3.8C460.1,498.9,461.6,494.4,463.9,489.6c0-0.5,0-1,0-0.2C463.9,488.7,463.9,489.1,463.9,489.6z"/>
<path class="st2" d="M324.3,241.8c4.5,1.7,9.2,3,13.4,5.2c3,1.5,5.4,4.1,7.9,6.2c-5.2,1.4-10.7,2.9-17.7,4.8
	c1.6-2.5,2.2-3.6,3.2-5.1c-2.3-0.2-4.2-0.4-6.2-0.6v0.1c-0.4,0-0.8,0-1.2,0v-0.1c-5.2-3.2-9.7,1-14.6,1.4c0.2,0.6,0.4,1.2,0.6,1.8
	h-0.1c4.6,1.7,9.2,3.4,13,4.8c-7.7,2-15-1.7-22.1-5.8c3.9-4.8-1.2-4.2-3.3-5.3c-0.1-1.3-0.2-2.6-0.4-3.8l0.1,0.1
	c5-6.6,12.2-8.7,20.1-5.8C319.5,240.5,322,241.1,324.3,241.8c-0.6,0-1.2-0.1-1.9-0.2c0,0.2,0,0.3,0,0.5
	C323.1,242,323.7,241.9,324.3,241.8z M304.8,246.8c0.1,0.5,0.1,0.9,0.2,1.4c1.4-0.1,2.8-0.2,4.2-0.3c-0.1-0.7-0.2-1.5-0.3-2.2
	C307.6,246.1,306.2,246.4,304.8,246.8z M325.3,248.1c-0.5-0.4-0.8-0.7-1.2-0.9c-0.2-0.1-0.7,0.4-0.7,0.6c0,0.4,0.3,0.7,0.4,1.1
	C324.3,248.6,324.7,248.4,325.3,248.1z M315.4,244.3c1.2,1.3,1.7,2,1.8,1.9c0.6-0.4,1.1-0.9,1.7-1.4
	C318,244.7,317.2,244.5,315.4,244.3z"/>
<path class="st2" d="M412.4,631.1c-4.1-0.3-8.2-0.5-10.8-0.7c-4.6,0.5-7.9,0.9-11.2,1.3c-0.2-0.7-0.5-1.3-0.7-2
	c1.6-0.8,3.2-1.5,6-2.9c0.9-2.4,2.4-6.2,3.8-10.1c-6.7,4-13.2,6.1-20.4,0.5c2.2-0.4,4.5-0.8,7.4-1.4c0.3-4.3,4.9-3.2,8.2-3.6
	c6.4-0.7,11.4-3.9,15.7-8.5c0.7-0.7,1.6-1.1,2.4-1.7l-0.1-0.1c-1.7,3.7-3.4,7.4-5,11.1c6.6,2.2,8.8,6.9,6.4,13.4
	c-0.6,1.5-1.1,3.1-1.7,4.6L412.4,631.1z"/>
<path class="st3" d="M412.8,487.1c-0.4-3.9-0.8-7.8-1.3-11.9c-9-4.3-18.5-8.9-28.4-13.7c1.3-0.2,2.4-0.7,3.4-0.5
	c9.9,2.1,19.9,4.1,29.8,6.5c0.8,0.2,1.8,2.4,1.6,3.3c-1.1,4.1,0.8,4.1,3.9,3.7c3.5-0.5,7-0.5,10.7-0.7c-0.1,1.2-0.1,1.8-0.2,1.8
	c-4.9,2.4-8.9,4.6-9.5,11.5c-0.5,5.2-6.4,4.9-10.1-0.2L412.8,487.1z"/>
<path class="st2" d="M454.1,577.3c0.9,1.5,1.6,2.5,2.2,3.5c-1.2,0.7-2.4,2.1-3.6,2.1c-7.6,0-14.1-3.2-19.8-8.1
	c-0.8-0.7-1.2-2.8-0.8-3.9c1.6-5.2,3.6-10.2,5.3-15c5.6,5.2,11.1,10.6,17,15.6C457.3,574,456.3,575.6,454.1,577.3z"/>
<path class="st2" d="M327.9,225.5c1.6,0.3,3.2,0.6,4,0.7c1.1-1.6,2.1-3,3.1-4.4v-0.1c2.9,2.3,5.8,4.5,8.7,6.8v-0.1
	c0.4,0,0.8,0,1.2,0v0.1c0.5,0.8,0.9,1.5,1.4,2.3h0.1c0.4,1.2,0.9,2.4,1.3,3.6l0.1-0.1c-0.3,0.4-0.6,0.8-1,1.2c-0.4,0-0.8,0-1.1,0
	l0.1-0.1c0,0.4-0.1,0.8-0.1,1.1l0.2-0.1c-3.9-0.7-8-0.7-11.6-2.1c-8-3.1-15.5-1.6-23.2,0.7c-3.4,1-7,1.4-10.5,2
	c-0.2-1.7-0.5-3.2-0.7-4.7l0.1,0.1c1.4-1.4,2.5-3.7,4.1-3.9c4.2-0.8,8.5-0.7,12.8-0.9l-0.1-0.1c1.7-0.4,3.5-0.8,5.2-1.2l-0.1,0.1
	c1.6-0.3,3.2-0.5,4.8-0.8v-0.1C327.1,225.5,327.5,225.5,327.9,225.5L327.9,225.5z"/>
<path class="st2" d="M377.6,503c0.2-3.1,0.4-6.2,0.7-9.4c5.7,0.4,5.5,6,8,9.2c0.1,0.1-2.1,2.7-3.1,2.6c-4.2-0.6-8.6,3-12.9-0.6
	c-0.7-0.6-3.5,1.2-5.2,2.1c-2.4,1.2-4.8,2.6-7.5,4.2c1.8-4.1,3.2-7.4,4.7-10.6c0.6-1.3,1.4-3.3,2.4-3.4c6-0.7,4.3-6.2,6.3-9.3
	c1.1-1.7,1.9-4.3,3.4-5c2.4-1.1,5.3-1.1,8.1-1c0.5,0,1.6,2.6,1.3,3.8c-0.4,1.5-1.6,3.3-3,3.9c-1.7,0.7-3.9,0.3-4.8,0.4
	c-1.4,4.5-2.6,8.5-4,12.8c2,0.1,3.8,0.2,5.7,0.3C377.8,502.9,377.6,503,377.6,503z"/>
<path class="st2" d="M443,523.4c3.1-3.6,11-6,14.7-4.3l-0.1-0.1c-0.5,1.4-1.1,2.7-1.8,4.4c1,0.2,2.1,0.3,3,0.8
	c0.9,0.4,2.2,1.3,2.3,1.9c0,0.9-1,1.9-1.7,2.7c-1.2,1.5-2.3,3.1-3.8,4.1c-1.8,1.2-4,2.1-6.1,2.5s-4.4-0.5-6.4,0
	c-1.7,0.4-3.2,1.9-4.8,2.9c1.3,1.5,2.5,3.1,3.9,4.5c0.4,0.4,1.5,0.2,2.2,1.4c-2.4,0-4.8,0-7.2,0c0.2-3.8-2.8-8.1,1.5-11.2
	c-0.9-1.5-2.5-3-2.4-4.3C436.7,525,439.7,523.8,443,523.4c0.3,0,0.5-0.1,0.5-0.1C443.5,523.3,443.2,523.4,443,523.4z"/>
<path class="st3" d="M450.6,416.3c-1.5,0.6-3.8,2-4.3,1.5c-2-1.9-3.8-4.2-5.1-6.7c-1.3-2.5,2.3-10.3,5-11c1-0.2,2.3,0.7,3.4,1.1
	l-0.2,0.1v-0.2c1.9,3.4,5.1,6.8,5.3,10.3c0.3,4.2-2.1,8.6-2.8,12.9c-0.7,4.2-0.7,8.5-1.1,14c-1.5-3.8-2.2-6.6-3.7-8.8
	c-1.7-2.3-4.3-4-7.7-6.9c5.5-0.5,11,0.1,10.9-6.5C450.5,416.1,450.6,416.3,450.6,416.3z"/>
<path class="st2" d="M358.6,630.6c-1.9-6.9,4.7-7.5,8.1-9.9c2.6-1.8,6.1-1.8,7.9,2.1C369.2,632.1,367.9,632.8,358.6,630.6z"/>
<path class="st2" d="M320.5,583.7c-1.2-2.4-2.2-4.2-3.1-6.1c0.3-0.5,0.6-1,0.9-1.5c2.2,0.8,5.4,1.1,6.2,2.7c1,2.1,3.9,4.6,0.9,7.7
	c-1.8,1.8-2.7,4.4-4.5,6.1c-2.5,2.4-5.5,1.3-6.3-1.4c-0.5-1.6,1.8-4.2,3.1-6.1C318,584.5,319.2,584.3,320.5,583.7z"/>
<path class="st2" d="M461.6,538.8c1.4-2.1,2.5-3.7,3.8-5.7c-1.6-0.4-2.7-0.7-4.1-1.1c0.4-0.8,0.6-1.4,0.9-1.9c0.7-1.1,2.2-2.4,2-3.1
	c-2.4-6,2.8-7.5,6.2-11.2c0,5,0,9.2,0,13.3C470.4,537,470.4,537,461.6,538.8z"/>
<path class="st2" d="M164.2,433.3c-3.4,1-6.7,2.1-11,3.4c0.7-1.7,0.8-2.6,1.3-3.2c2.5-2.7,5.1-5.2,7.8-7.8c0.6-0.6,1.4-1.1,2.1-1.7
	c0.5,0.9,1.2,1.7,1.5,2.6c0.8,2.4,1.4,4.9,2.2,7.8c-9.5,5.7,5.3,8.6,2.6,14.1c-3.3-2.3-6.5-4.5-9.7-6.8v0.1c1-2.9,2-5.8,3.1-8.8
	C164.1,433.1,164.2,433.3,164.2,433.3z"/>
<path class="st2" d="M318.8,304.1c-3.2-3.7-6.3-7.4-9.5-11.2c0.3-0.5,0.7-1.1,1-1.6c1.6,0.8,3.5,1.3,4.7,2.5
	c4.2,4.1,8.1,8.5,12.4,12.5c2.4,2.2,3.1,4.4,0.6,6.5c-0.4,0.4-2.8-1.8-4.4-2.6c-0.8-0.4-1.9-0.1-2.9-0.1l0.1,0.1
	c-0.7-1.1-1.4-2.1-2.1-3.2l0.1,0.1c-0.1-1.1-0.2-2.2-0.2-3.2L318.8,304.1z"/>
<path class="st2" d="M447,510.8c0.4-4,0.7-8.5,1.5-12.9c0.3-1.5,1.7-2.8,2.7-4.4C456.7,502,454,507.6,447,510.8z"/>
<path class="st2" d="M314.7,565.6c-8.2,1.9-12.6-1.6-13.6-9.7C305.7,559.1,310.2,562.4,314.7,565.6z"/>
<path class="st2" d="M122,382c4.1-1.8,8.2-3.5,12.3-5.3c0.5,0.8,0.9,1.5,1.4,2.3c-2.9,2.4-5.9,4.9-9,7.4c-1.6-1-2.9-1.8-4.3-2.6
	C122.3,383.2,122.1,382.6,122,382z"/>
<path class="st2" d="M215.3,435.4c-2.1-5,9.4-7.1,1.5-13.4c0.6-0.3,1.3-0.6,1.9-0.9c1.4,0.6,4,1.4,4,1.9c-0.3,3.7-0.9,7.5-2,11
	C220.3,434.8,217.5,434.8,215.3,435.4z"/>
<path class="st2" d="M467.4,419.6c-2.4-6.1-4.9-12.2-7.3-18.3c0.6-0.2,1.2-0.4,1.7-0.7C465.9,406.1,469.3,411.9,467.4,419.6z"/>
<path class="st2" d="M208.8,538.1c-9.2,3.7-18,7.2-25.7,10.3C187.1,542.9,196.8,538.7,208.8,538.1z"/>
<path class="st3" d="M440.2,392.9c-1.8-2-4-3.7-3.8-4.2c1-2,2.8-3.5,4.3-5.3c1.7,1.6,3.4,3.1,5.1,4.7
	C444.2,389.5,442.6,390.8,440.2,392.9z"/>
<path class="st2" d="M450,451.1c1.8-2.1,3.2-3.6,4.5-5.2c1.3,1.5,3.9,3.4,3.6,4.3c-0.7,2.2-2.9,3.8-4.4,5.7
	C452.7,454.5,451.6,453.1,450,451.1z"/>
<path class="st2" d="M362.1,480c-0.3-6.1,2.8-7.4,16.1-6.5C372.2,475.9,367.3,477.8,362.1,480z"/>
<path class="st2" d="M352.9,522.6c3.8-1.3,7.1-2.5,11-3.9c-0.2,3.7-0.4,6.4-0.6,9.6C359.9,526.4,357,524.8,352.9,522.6z"/>
<path class="st2" d="M154.2,489.6c-2.3-2.8-4.2-4.9-5.9-7.2c-0.1-0.1,1.6-1.8,1.7-1.7c2.3,1.7,4.5,3.6,6.5,5.5
	C156.7,486.3,155.5,487.8,154.2,489.6z"/>
<path class="st2" d="M364.2,490.7c-1.7,0.9-3.3,2.3-5.1,2.4c-1,0-2-2.2-3.1-3.4c1.3-1,2.5-2.7,3.9-2.8c1.3-0.2,2.8,1.3,4.1,2
	C364.1,489.6,364.2,490.1,364.2,490.7z"/>
<path class="st3" d="M333.5,537.6c-0.7-0.9-1.5-1.8-2.2-2.8c0.2-0.5,0.4-1,0.6-1.5c3.8,1.6,7.5,3.3,12,5.2c-2.2,2.3-2.9,4.9-5.2,1.4
	c-0.9-1.4-3.4-1.7-5.1-2.5L333.5,537.6z"/>
<path class="st2" d="M279.4,577.5c0.8-1.7,1.7-3.3,2.5-5c2.1,2.2,4.3,4.5,6.4,6.7c-0.3,0.3-0.6,0.5-0.9,0.8
	C285,579.2,282.7,578.5,279.4,577.5z"/>
<path class="st2" d="M295.4,413.9c-8.7,1.3-17.4,2.6-26.1,4c-0.1-0.4-0.1-0.8-0.2-1.1c8.7-1.3,17.4-2.6,26.1-3.9
	C295.3,413.2,295.4,413.5,295.4,413.9z"/>
<path class="st2" d="M177.8,356.6c2.5-2.9,3.9-1.1,3.9,1.4c-0.1,2.5-1.3,5.1-2,7.6c-0.6-0.1-1.2-0.2-1.9-0.3
	C177.7,362.4,177.7,359.5,177.8,356.6C177.7,356.6,177.8,356.6,177.8,356.6z"/>
<path class="st2" d="M186.6,452.1c0.2,1.2,1,3.3,0.5,3.6c-1.6,1-3.5,1.9-5.3,2c-1.2,0-2.5-1.5-3.6-3.2c3.8,2.6,5.6,0.4,7-2.7
	C185.7,451.9,186.2,452,186.6,452.1z"/>
<path class="st2" d="M426.7,414.7c-2,0.9-3.3,1.9-4.1,1.6c-1.2-0.4-2.1-1.8-3.1-2.7c1.1-0.8,2.2-2.2,3.2-2.1
	C423.8,411.5,424.8,413,426.7,414.7z"/>
<path class="st2" d="M376.3,444.1c-2-1.2-4.1-2.4-6.1-3.6c0.4-0.7,0.7-1.3,1.1-2c3-0.5,4.7,1.2,5.9,4
	C377,443,376.6,443.5,376.3,444.1z"/>
<path class="st2" d="M361.6,438.9c0-2.1,0-4.1,0-6.2c0.4-0.2,0.9-0.3,1.3-0.5c0.8,1,2.5,2,2.4,2.9c-0.1,1.4-1.4,2.8-2.2,4.2
	C362.6,439.2,362.1,439.1,361.6,438.9z"/>
<path class="st2" d="M126.3,389.2c2,0.7,4.1,1.3,6.1,2c-0.3,0.8-0.5,1.6-0.8,2.4c-2-0.7-4.1-1.3-6.1-2
	C125.8,390.8,126.1,390,126.3,389.2z"/>
<path class="st2" d="M275.6,306.5c2.4-0.4,4.9-0.1,3.8,3c-0.4,1.3-3.3,1.7-5.1,2.5c0.6-2.6,1-4.1,1.4-5.6
	C275.8,306.4,275.6,306.5,275.6,306.5z"/>
<path class="st2" d="M347.4,320c-1.1,2.4-2.3,4.8-3.4,7.2c-0.5-0.2-1-0.4-1.5-0.6c0.9-2.5,1.7-5,2.6-7.5
	C345.8,319.4,346.6,319.7,347.4,320z"/>
<path class="st2" d="M318.9,599.5c2.5-0.9,5-1.8,7.5-2.8c0.2,0.5,0.4,0.9,0.6,1.4c-2.4,1.1-4.9,2.2-7.3,3.4
	C319.4,600.8,319.2,600.1,318.9,599.5z"/>
<path class="st2" d="M470.3,581.3c-1.9,1.4-3.8,2.8-5.8,4.2c-0.4-0.5-0.8-1.1-1.2-1.6c1.9-1.4,3.8-2.8,5.8-4.2
	C469.5,580.2,469.9,580.8,470.3,581.3z"/>
<path class="st2" d="M328.8,390.1c-4.3,4-8.5,8-12.8,12.1l0.1,0.1c4.3-4,8.5-8,12.8-12.1L328.8,390.1z"/>
<path class="st2" d="M172.9,360c-0.6,1.7-1.2,3.3-1.8,5c-1.1-0.6-2.1-1.1-4.3-2.3c3-1.2,4.6-1.9,6.2-2.6
	C173,360.1,172.9,360,172.9,360z"/>
<path class="st2" d="M215.9,536.1c1.8,0,3.5,0,5.3,0c0,0.6,0,1.2,0,1.7c-1.8,0-3.6,0-5.4,0C215.9,537.2,215.9,536.6,215.9,536.1z"/>
<path class="st2" d="M233.5,580.2c1.3-1.6,2.6-3.1,3.8-4.7c0.5,0.3,1,0.7,1.5,1c-1.1,1.7-2.3,3.3-3.4,5
	C234.8,581.1,234.1,580.7,233.5,580.2z"/>
<path class="st2" d="M156.7,367.3c-0.8,2-1.6,4-2.4,6c-0.4-0.1-0.8-0.2-1.2-0.3c0.4-2.1,0.9-4.2,1.3-6.4
	C155.2,366.9,155.9,367.1,156.7,367.3z"/>
<path class="st2" d="M196.4,448.1c-1.6-1.4-3.2-2.7-4.9-4.1c0.3-0.4,0.6-0.8,0.9-1.2c1.7,1.2,3.5,2.3,5.2,3.5
	C197.3,446.8,196.9,447.5,196.4,448.1z"/>
<path class="st2" d="M167.9,377.5c1.3-1.3,2.5-2.7,3.8-4c0.5,0.5,1,0.9,1.5,1.4c-1.3,1.3-2.5,2.7-3.8,4
	C168.8,378.5,168.3,378,167.9,377.5z"/>
<path class="st2" d="M396.6,354.1c0.9,0.2,1.8,0.4,2.7,0.7l-0.1-0.1c0.7,1.2,1.3,2.3,2.2,3.9c-5.2-0.8-6.1-1.7-4.8-4.4L396.6,354.1z
	"/>
<path class="st2" d="M406.1,358.9c2.3,1.4,4.7,2.9,7,4.3c-0.5,0.6-1,1.2-1.5,1.8C409.8,363,408,361,406.1,358.9L406.1,358.9z"/>
<path class="st2" d="M315.9,178.4c-2.6-2-5.3-4-7.9-6l-0.1,0.1c3,1.6,6.1,3.3,9.1,4.9C316.6,177.8,316.2,178.1,315.9,178.4
	L315.9,178.4z"/>
<path class="st2" d="M192.6,428.4c1.2-2,2.4-4,3.6-6c0.4,0.2,0.8,0.4,1.2,0.7c-1.1,2.1-2.2,4.1-3.2,6.2
	C193.7,429,193.2,428.7,192.6,428.4z"/>
<path class="st2" d="M344.6,239.1c-1.2-0.4-2.4-0.8-3.8-1.2c1.8-0.5,3.5-1,5.1-1.5l-0.2,0.1c0.4,0,0.7-0.1,1.1-0.1
	c0.3,0.4,0.7,0.8,1,1.2l-0.1-0.1c0.6,3.9-1.2,3.1-3.3,1.7l0.3,0.2L344.6,239.1z"/>
<path class="st2" d="M355.5,473c-2.5,1-4.9,1.9-7.4,2.9H348c2.5-0.9,5.1-1.8,7.6-2.8C355.7,473.1,355.5,473,355.5,473z"/>
<path class="st2" d="M418.4,561.6c2.3-1.6,4.7-3.2,7-4.7c0.3,0.5,0.5,1,0.8,1.5c-2.6,1-5.2,2.1-7.8,3.1V561.6z"/>
<path class="st2" d="M444.2,551.1c-1.9-0.5-3.8-1-5.7-1.4c0.1-0.5,0.2-0.9,0.4-1.4c1.9,0.5,3.9,1,5.8,1.6
	C444.6,550.2,444.4,550.7,444.2,551.1z"/>
<path class="st2" d="M430.8,420.3c0.7-2,1.5-4,2.2-6c0.4,0.2,0.9,0.3,1.3,0.5c-0.7,2-1.3,3.9-2,5.9
	C431.8,420.6,431.3,420.5,430.8,420.3z"/>
<path class="st2" d="M436.6,424.7c0.5,1.2,1.1,2.5,1.6,3.7c-0.5,0.2-0.9,0.5-1.4,0.7c-0.7-1.2-1.4-2.3-2.1-3.5
	C435.3,425.3,435.9,425,436.6,424.7z"/>
<path class="st2" d="M408.8,371.9c-1-0.8-2-1.5-3-2.3c0.3-0.5,0.6-0.9,1-1.4c1.1,0.7,2.1,1.4,3.2,2
	C409.5,370.9,409.2,371.4,408.8,371.9z"/>
<path class="st2" d="M387.4,453.6c0.6,1.1,1.2,2.2,1.7,3.2c-0.6,0.3-1.1,0.6-1.7,0.9c-0.5-1.1-1.1-2.2-1.6-3.3
	C386.3,454.2,386.8,453.9,387.4,453.6z"/>
<path class="st2" d="M450.3,445.1c-0.4,1.8-0.7,3.6-1.1,5.5c-0.4-0.1-0.8-0.2-1.2-0.3c0.5-1.8,0.9-3.6,1.4-5.4
	C449.6,445,450,445.1,450.3,445.1z"/>
<path class="st2" d="M164.2,386.9c-0.4,1.2-0.8,2.5-1.2,3.7c-0.4-0.1-0.8-0.2-1.2-0.3c0.3-1.3,0.7-2.5,1-3.8
	C163.3,386.6,163.8,386.8,164.2,386.9z"/>
<path class="st2" d="M324.8,183.5c0.6,0.7,1.2,1.4,1.9,2.1l0.1-0.1c-0.4,2.3-0.9,4.7-1.4,7.4c-0.5-2.3-1-4.3-1.4-6.4l-0.1,0.1
	c0.4-1,0.7-2.1,1.1-3.1H324.8z"/>
<path class="st2" d="M338.4,476.1c-1.6,0.6-3.2,1.2-4.9,1.8c-0.1-0.4-0.3-0.8-0.4-1.2c1.7-0.5,3.3-0.9,5-1.4
	C338.3,475.6,338.3,475.8,338.4,476.1z"/>
<path class="st2" d="M87,486c-0.3,1.5-0.6,3.1-0.9,4.6c-0.1,0-0.2,0-0.3,0c0.1-1.6,0.2-3.2,0.3-4.8C86.4,485.9,86.7,486,87,486z"/>
<path class="st2" d="M263.5,565.5c-1.1-0.5-2.2-1-3.3-1.5c0.1-0.3,0.3-0.7,0.4-1c1.1,0.4,2.3,0.9,3.4,1.3
	C263.8,564.7,263.7,565.1,263.5,565.5z"/>
<path class="st2" d="M410.7,494.5c-1.1-0.4-2.2-0.8-3.3-1.3c0.2-0.5,0.4-0.9,0.5-1.4c1.1,0.4,2.2,0.9,3.3,1.3
	C411,493.6,410.9,494,410.7,494.5z"/>
<path class="st2" d="M436.1,445.9c-1.4,0-2.9,0-4.3,0c0-0.3-0.1-0.7-0.1-1c1.4-0.1,2.9-0.2,4.3-0.4C436,445,436.1,445.5,436.1,445.9
	z"/>
<path class="st2" d="M258.6,413.5c-1.9-1.2-3.8-2.4-5.7-3.6c0.3-0.3,0.5-0.7,0.8-1c1.6,1.6,3.2,3.1,4.9,4.7V413.5z"/>
<path class="st2" d="M209.1,421c-1.7,0-3.4-0.1-5.1-0.1l0.1,0.1c0-0.7,0-1.4,0-2l-0.1,0.1c0.7,0,1.5,0,2.2,0L206,419
	c1.1,0.7,2.1,1.4,3.2,2.1L209.1,421z"/>
<path class="st2" d="M376.9,382.5c0.4-1,0.8-2,1.2-3c0.4,0.2,0.8,0.3,1.2,0.5c-0.4,1-0.9,2-1.3,3
	C377.6,382.8,377.3,382.6,376.9,382.5z"/>
<path class="st2" d="M176.8,380.1c0.2,0.7,0.3,1.3,0.5,2c-0.4,0.1-1.1,0.3-1.2,0.2c-0.2-0.6-0.3-1.3-0.5-1.9
	C176,380.2,176.4,380.1,176.8,380.1z"/>
<path class="st2" d="M241,586.1c-1,0.3-2,0.6-3,0.9c-0.1-0.3-0.2-0.6-0.4-0.9c0.9-0.4,1.9-0.8,2.8-1.3
	C240.6,585.2,240.8,585.6,241,586.1z"/>
<path class="st2" d="M378,630.4c0.8-0.4,1.5-0.7,2.3-1.1c0.1,0.2,0.3,0.5,0.4,0.7c-0.7,0.5-1.5,0.9-2.2,1.4
	C378.3,631.1,378.2,630.7,378,630.4z"/>
<path class="st2" d="M175,499.3c0.2-0.8,0.5-1.6,0.7-2.5c0.4,0.6,0.8,1.2,1,1.8c0.1,0.2-0.6,0.7-0.9,1
	C175.6,499.5,175.3,499.4,175,499.3z"/>
<path class="st2" d="M348.8,351.4c0.4-0.9,0.7-1.9,1.1-2.8c0.3,0.1,0.6,0.2,0.9,0.3c-0.3,1-0.6,1.9-0.9,2.9
	C349.5,351.7,349.1,351.5,348.8,351.4z"/>
<path class="st2" d="M240.6,407.3c-0.7-0.8-1.3-1.7-2-2.5c0.2-0.2,0.4-0.4,0.6-0.6c0.9,0.7,1.7,1.4,2.6,2.1
	C241.3,406.6,240.9,407,240.6,407.3z"/>
<path class="st2" d="M469.4,549.5c-0.7,0.4-1.4,0.8-2.1,1.2c-0.2-0.2-0.3-0.4-0.5-0.7c0.6-0.5,1.3-1.1,1.9-1.6
	C468.9,548.8,469.2,549.1,469.4,549.5z"/>
<path class="st2" d="M227.8,393.8c0-1-0.1-2.1-0.1-3.1c0.2,0,0.5-0.1,0.7-0.1c0.1,1,0.3,2.1,0.4,3.1
	C228.5,393.7,228.2,393.7,227.8,393.8z"/>
<path class="st2" d="M347.7,234.4c1.3,0.9,2.6,1.8,3.9,2.7c-0.2,0.3-0.4,0.5-0.6,0.8c-0.7-0.5-1.4-1.1-2.1-1.6l0.1,0.1
	c-0.4-0.3-0.8-0.7-1.2-1c0-0.4,0.1-0.7,0.1-1.1C347.9,234.3,347.7,234.4,347.7,234.4z"/>
<path class="st2" d="M326.8,528.5c0.3,0.1,0.6,0.2,0.9,0.4c-0.2,0.2-0.4,0.7-0.5,0.7c-0.4-0.1-0.7-0.3-1.1-0.5
	C326.3,528.9,326.6,528.7,326.8,528.5z"/>
<path class="st2" d="M311.8,405.1c-1.6,1.1-3.1,2.1-4.7,3.2l0.1,0.1c1.6-1.1,3.1-2.1,4.7-3.2C311.9,405.2,311.8,405.1,311.8,405.1z"
	/>
<path class="st2" d="M286.7,167.7c0.7,0,1.4-0.1,2.2-0.1c0,0.2,0,0.3,0,0.5c-0.7,0.1-1.4,0.1-2.2,0.2
	C286.8,168.1,286.8,167.9,286.7,167.7z"/>
<path class="st2" d="M300.4,289.5c-0.2,0.2-0.4,0.3-0.6,0.5c-0.1-0.3-0.4-0.6-0.4-0.8c0-0.2,0.4-0.3,0.6-0.5
	C300.2,288.9,300.3,289.2,300.4,289.5z"/>
<path class="st2" d="M163.9,367.1c-0.3,0.2-0.6,0.6-0.7,0.5c-0.3-0.2-0.5-0.5-0.7-0.8c0.3-0.1,0.6-0.3,0.8-0.3
	C163.5,366.5,163.7,366.9,163.9,367.1z"/>
<path class="st2" d="M208.9,377.6c-0.1,1-0.2,2.1-0.3,3.1c-0.3-0.1-0.6-0.2-0.8-0.2C208.1,379.5,208.5,378.5,208.9,377.6
	C208.9,377.5,208.9,377.6,208.9,377.6z"/>
<path class="st2" d="M123.8,395.7c-0.2,0.8-0.4,1.6-0.5,2.4c-0.3-0.1-0.7-0.3-1-0.4C122.8,397.1,123.3,396.4,123.8,395.7
	L123.8,395.7z"/>
<path class="st2" d="M316,402.2c-1.4,1-2.8,1.9-4.2,2.9l0.1,0.1c1.4-1,2.8-1.9,4.2-2.9C316.1,402.3,316,402.2,316,402.2z"/>
<path class="st2" d="M246.7,406.4c-0.8-0.4-1.6-0.8-2.5-1.2c0.3-0.4,0.6-0.8,0.9-1.2c0.5,0.8,0.9,1.6,1.4,2.3L246.7,406.4z"/>
<path class="st2" d="M421.6,408.2c0.1,0.1,0.4,0.2,0.4,0.2c-0.1,0.3-0.2,0.5-0.3,0.8c-0.1-0.1-0.4-0.2-0.4-0.2
	C421.4,408.7,421.5,408.4,421.6,408.2z"/>
<path class="st2" d="M372.7,427.7c-0.1,0.7-0.2,1.4-0.3,2.1c-0.2,0-0.4,0-0.6,0c0-0.7,0-1.5,0-2.2
	C372.1,427.6,372.4,427.7,372.7,427.7z"/>
<path class="st2" d="M463,457.8c-0.2,0.1-0.5,0.2-0.7,0.3c0,0-0.3-0.3-0.2-0.4c0.1-0.2,0.3-0.4,0.5-0.6
	C462.7,457.3,462.9,457.5,463,457.8z"/>
<path class="st2" d="M366.3,614.4c0.2,0.1,0.4,0.3,0.6,0.4c-0.1,0.1-0.2,0.3-0.2,0.3c-0.2-0.1-0.4-0.3-0.6-0.4
	C366.1,614.6,366.2,614.5,366.3,614.4z"/>
<path class="st2" d="M275.8,609c-0.1-0.3-0.2-0.5-0.3-0.8c0.1-0.1,0.4-0.2,0.4-0.2c0.1,0.2,0.2,0.5,0.4,0.7
	C276.1,608.9,276,609,275.8,609z"/>
<path class="st2" d="M370.8,344.1c-0.1,0.1-0.1,0.3-0.2,0.4s-0.3,0-0.4-0.1c0.1-0.2,0.2-0.4,0.3-0.6
	C370.6,343.9,370.7,344,370.8,344.1z"/>
<path class="st2" d="M352.2,396c-0.2-0.2-0.6-0.3-0.6-0.5c0-0.3,0.2-0.5,0.3-0.8c0.2,0.2,0.6,0.4,0.7,0.6
	C352.7,395.4,352.4,395.8,352.2,396z"/>
<path class="st2" d="M270.8,574c-0.1-0.2-0.2-0.5-0.3-0.7c0.1-0.1,0.4-0.2,0.4-0.1c0.1,0.2,0.2,0.5,0.3,0.7
	C271.1,573.9,271,574,270.8,574z"/>
<path class="st2" d="M385.3,631c-0.3,0.1-0.5,0.4-0.7,0.4s-0.5-0.2-0.7-0.4c0.2-0.1,0.4-0.4,0.6-0.4
	C384.8,630.6,385.1,630.8,385.3,631z"/>
<path class="st2" d="M203.6,448.7c-0.2,0.2-0.4,0.3-0.5,0.5c-0.1-0.1-0.2-0.3-0.2-0.3c0.1-0.2,0.3-0.3,0.5-0.5
	C203.4,448.5,203.5,448.6,203.6,448.7z"/>
<path class="st2" d="M357.6,618.7c-0.2,0.1-0.4,0.3-0.6,0.4c0,0-0.2-0.2-0.2-0.3c0.2-0.1,0.4-0.3,0.6-0.4
	C357.4,618.4,357.5,618.6,357.6,618.7z"/>
<path class="st2" d="M318.7,604.1c0-0.1-0.1-0.2-0.1-0.3s0.2-0.1,0.3-0.1c0,0.1,0.1,0.2,0.1,0.3S318.8,604.1,318.7,604.1z"/>
<polygon class="st2" points="220.9,444 221.2,444 221.1,444.3 "/>
<path class="st2" d="M177.9,524.3c-0.1,0-0.3-0.1-0.4-0.1c0.1-0.2,0.1-0.4,0.2-0.6c0.1,0.1,0.3,0.2,0.3,0.3
	C178,524.1,177.9,524.2,177.9,524.3z"/>
<path class="st2" d="M429.9,450.8c0,0.1,0.1,0.3,0.1,0.3c0,0.1-0.2,0.2-0.3,0.2c-0.1-0.2-0.1-0.4-0.2-0.5
	C429.6,450.8,429.7,450.8,429.9,450.8z"/>
<path class="st2" d="M189.2,355.5c0,0.1,0,0.3,0,0.4c-0.2-0.1-0.4-0.1-0.6-0.2c0.1-0.1,0.1-0.3,0.2-0.3
	C188.9,355.4,189.1,355.5,189.2,355.5z"/>
<path class="st2" d="M236.9,398.5c-0.1,0-0.3,0-0.4-0.1c-0.1-0.1-0.1-0.3-0.1-0.4c0.2,0,0.4,0,0.6,0.1
	C237,398.2,236.9,398.4,236.9,398.5z"/>
<path class="st2" d="M278.5,360.7c-0.4-0.1-0.9-0.2-1.3-0.3c0.2-0.2,0.3-0.5,0.5-0.7C277.9,360,278.2,360.3,278.5,360.7L278.5,360.7
	z"/>
<path class="st2" d="M302.1,304.6c-0.5,0.3-1,0.6-0.3,0.2c-0.9,0.2-0.4,0.1,0.2,0C302.1,304.7,302.1,304.6,302.1,304.6z"/>
<path class="st2" d="M323.8,179.6c0.3,1.3,0.7,2.6,1,4l0.1-0.1c-0.3-1.3-0.7-2.7-1-4L323.8,179.6z"/>
<path class="st2" d="M331.9,386.3c-0.5,1.1-1,2.2-1.6,3.2l0.1,0.1c-0.2-0.8-0.3-1.6-0.5-2.4l-0.1,0.1c0.4-0.4,0.8-0.8,1.1-1.1
	l-0.1,0.1c0.4,0.1,0.8,0.1,1.2,0.2C332,386.4,331.9,386.3,331.9,386.3z"/>
<path class="st2" d="M351.1,515.3c0-0.3,0.1-0.5,0.1-0.8l0,0C351.2,514.8,351.2,515.1,351.1,515.3L351.1,515.3z"/>
<path class="st2" d="M329.9,387.2c0-0.8-0.1-1.5-0.1-2.3c0.3,0.5,0.7,0.9,1,1.4l0.1-0.1c-0.4,0.4-0.8,0.8-1.1,1.1
	C329.8,387.2,329.9,387.2,329.9,387.2z"/>
<path class="st2" d="M391.8,359.2c0.1-0.1,0.1-0.3,0.2-0.4c0.2,0.1,0.4,0.3,0.6,0.4c0,0-0.1,0.2-0.1,0.4
	C392.3,359.5,392,359.4,391.8,359.2z"/>
<path class="st2" d="M290.5,358.8c-0.2,0.4-0.4,0.7-0.1,0.2C289.9,359.3,290.2,359.1,290.5,358.8
	C290.6,358.9,290.5,358.8,290.5,358.8z"/>
<polygon class="st2" points="283.8,329.6 283.5,329.3 283.9,329.2 "/>
<path class="st2" d="M317,350.2c0.2-0.3,0.4-0.6,0.2-0.3c0.3-0.2,0,0-0.3,0.1L317,350.2z"/>
<path class="st2" d="M315,354.2c0.6-0.3,1.3-0.6,1.9-0.9v-0.1c-0.4,0.4-0.8,0.8-1.2,1.2l0.1-0.1c-0.4,0-0.7-0.1-1.1-0.1H315z"/>
<polygon class="st2" points="235.8,221.1 236,221.2 235.8,221.4 "/>
<path class="st2" d="M378.9,346.2c0.2,0.1,0.5,0.2,0.7,0.3c-0.2-0.1-0.4-0.2-0.6-0.3H378.9z"/>
<path class="st2" d="M322.8,176.5c0.3,1,0.7,2,1,3.1l0.1-0.1c-0.3-1-0.7-2-1-3H322.8z"/>
<path class="st2" d="M300.1,411.4c0.8-0.5,1.6-1,2.5-1.5l-0.1-0.1c-0.8,0.5-1.6,1-2.5,1.4C300,411.3,300.1,411.4,300.1,411.4z"/>
<path class="st2" d="M249,597.8c-0.2,0.4-0.4,0.7-0.7,1.1c-0.1-0.4-0.2-0.7-0.3-1.1l-0.1,0.1C248.3,597.9,248.7,597.9,249,597.8
	L249,597.8z"/>
<polygon class="st2" points="296.4,359.1 296,359.1 296.1,358.8 "/>
<polygon class="st2" points="413.1,438.2 412.8,438.5 412.7,438.1 "/>
<path class="st2" d="M321,369.9c-0.8,0.1-1.5,0.2-2.3,0.2l0.1,0.1c0-0.4,0-0.8,0-1.2l-0.1,0.2c0.4-0.4,0.8-0.8,1.1-1.1l-0.1,0.1
	c0.4,0.6,0.7,1.2,1.1,1.8L321,369.9z"/>
<path class="st2" d="M393.9,352.6c-0.1,0-0.3,0.1-0.3,0.1c-0.1,0-0.1-0.2-0.2-0.3c0.1,0,0.3-0.1,0.3-0.1
	C393.9,352.4,393.9,352.5,393.9,352.6z"/>
<polygon class="st2" points="363.4,482.7 363.1,482.6 363.3,482.4 "/>
<path class="st2" d="M220.1,389.1c-0.7,0-1.4,0-2,0l-0.1,0.1c0.7,0,1.5,0,2.2,0L220.1,389.1z"/>
<path class="st2" d="M291.8,359.4l0.1-0.1C292,359.2,291.8,359.4,291.8,359.4z"/>
<path class="st2" d="M319.6,344.4h-0.1H319.6z"/>
<path class="st2" d="M226.1,397.3c0.1,0.7,0.3,1.4,0.4,2.1h0.1l-0.2-0.3h-0.3v0.1c0-0.7,0-1.4,0-2.1V397.3z"/>
<path class="st2" d="M307.1,408.3c-0.7,0.3-1.3,0.7-2,1l0.1,0.1c0.7-0.3,1.3-0.7,2-1L307.1,408.3z"/>
<path class="st2" d="M302.6,409.9c0.8-0.2,1.7-0.3,2.6-0.5l-0.1-0.1C304.2,409.5,303.4,409.7,302.6,409.9
	C302.5,409.8,302.6,409.9,302.6,409.9z"/>
<path class="st2" d="M224.1,394.3c0.3,0.6,0.6,1.2,0.9,1.9l0.1-0.1c-0.4,0-0.7,0.1-1.1,0.1c0-0.7,0.1-1.4,0.1-2.1V394.3z"/>
<path class="st2" d="M300,411.3c-0.2,0.2-0.4,0.3-0.7,0.5c0-0.2-0.1-0.4-0.1-0.5c0.3,0,0.6,0.1,0.8,0.2
	C300.1,411.4,300,411.3,300,411.3z"/>
<path class="st2" d="M258.5,413.5c0.6,0.4,1.2,0.8,1.8,1.2l0,0c-0.6-0.4-1.1-0.8-1.7-1.2C258.6,413.5,258.5,413.5,258.5,413.5z"/>
<path class="st2" d="M333.5,385.6c0.1-0.7,0.3-1.5,0.4-2.2l-0.1-0.1C333.7,384,333.5,384.8,333.5,385.6L333.5,385.6z"/>
<path class="st2" d="M260.3,414.7c0.3-0.1,0.6-0.2,0.9-0.3C260.9,414.5,260.6,414.6,260.3,414.7L260.3,414.7z"/>
<path class="st2" d="M340.4,328.8c-0.3,0.1-0.5,0.1-0.8,0.2C339.8,328.9,340.1,328.9,340.4,328.8
	C340.3,328.8,340.4,328.8,340.4,328.8z"/>
<path class="st2" d="M399.3,354.7C399.6,354.8,400,354.8,399.3,354.7C399.9,355,399.6,354.8,399.3,354.7
	C399.2,354.7,399.3,354.7,399.3,354.7z"/>
<path class="st2" d="M296.5,294.9c0.2,0,0.5,0.1,0.7,0.1C296.9,295,296.7,295,296.5,294.9C296.4,294.9,296.5,294.9,296.5,294.9z"/>
<path class="st2" d="M256.7,230.2c0.3-0.1,0.5-0.2,0.8-0.3C257.2,229.9,256.9,230,256.7,230.2C256.6,230.1,256.7,230.2,256.7,230.2z
	"/>
<path class="st2" d="M336,199.5c0-0.5,0-1,0-0.3c0.4-0.6,0.1-0.2-0.1,0.2L336,199.5z"/>
<path class="st2" d="M149.6,487.6c-0.1,0.3-0.1,0.5-0.2,0.8C149.5,488.1,149.6,487.8,149.6,487.6
	C149.6,487.5,149.6,487.6,149.6,487.6z"/>
<path class="st2" d="M297.8,281.4c-0.1-0.1-0.2-0.1-0.3-0.2c0.1,0.1,0.1,0.1,0.2,0.2H297.8z"/>
<path class="st2" d="M322.7,349.4c-0.1-0.3-0.2-0.5-0.3-0.8C322.4,348.9,322.5,349.2,322.7,349.4
	C322.6,349.5,322.7,349.4,322.7,349.4z"/>
<path class="st2" d="M287.6,299.7c0,0.3,0,0.5,0,0.5S287.6,300,287.6,299.7C287.5,299.7,287.6,299.7,287.6,299.7z"/>
<path class="st2" d="M356.8,471.9l-0.1-0.1L356.8,471.9z"/>
<path class="st2" d="M173.3,359.2c0.2,0.2,0.4,0.3,0.6,0.5c-0.3,0.1-0.7,0.2-1,0.3l0.1,0.1c0.1-0.3,0.3-0.7,0.4-1L173.3,359.2z"/>
<path class="st2" d="M123.9,395.8c0.3,0,0.5,0.1,0.8,0.2C124.4,395.9,124.1,395.8,123.9,395.8C123.8,395.7,123.9,395.8,123.9,395.8z
	"/>
<path class="st2" d="M225,400.2c-0.1,0.7-0.3,1.4-0.4,2.1h0.1c-0.2-0.7-0.4-1.4-0.6-2.2l-0.1,0.1c0.4,0,0.8,0,1.1,0H225z"/>
<path class="st2" d="M174.8,356.8c1-0.1,2-0.2,3-0.3c0,0-0.1,0,0,0C176.8,356.6,175.8,356.7,174.8,356.8
	C174.9,356.7,174.8,356.8,174.8,356.8z"/>
<path class="st2" d="M313.1,348.5c-0.1,0.1-0.2,0.1-0.3,0.2c0.1,0,0.1-0.1,0.2-0.1L313.1,348.5z"/>
<path class="st2" d="M418.4,595.2C418.3,595.2,418.3,595.2,418.4,595.2L418.4,595.2z"/>
<path class="st2" d="M338.6,372.9c0.1-0.3,0.3-0.5,0.4-0.8C338.9,372.3,338.7,372.6,338.6,372.9L338.6,372.9z"/>
<path class="st2" d="M338.6,372.8c0,0.3-0.1,0.6-0.1,0.9c0.1-0.2,0.1-0.5,0.1-0.7C338.6,372.9,338.6,372.8,338.6,372.8z"/>
<path class="st2" d="M346.3,230.7c0.3,0,0.5-0.1,0.8-0.1C346.9,230.6,346.7,230.7,346.3,230.7C346.4,230.7,346.3,230.7,346.3,230.7z
	"/>
<path class="st2" d="M336.9,378.1c0-0.3,0.1-0.5,0.1-0.8c-0.1,0.2-0.2,0.4-0.2,0.7L336.9,378.1z"/>
<path class="st2" d="M336.8,378c-0.4,0.6-0.7,1.3-1.1,1.9l0.1,0.1c0.4-0.6,0.7-1.2,1.1-1.9L336.8,378z"/>
<path class="st2" d="M312.1,380.5c-0.1,0-0.3,0.1-0.4,0.1c0.1,0,0.2,0,0.4,0V380.5z"/>
<path class="st2" d="M335.7,379.9c-0.1,0.9-0.2,1.7-0.3,2.6h0.1c0.1-0.8,0.2-1.7,0.3-2.5L335.7,379.9z"/>
<path class="st2" d="M290.3,299.7c0.3-0.1,0.6-0.1,0.8-0.2C290.9,299.6,290.7,299.7,290.3,299.7
	C290.4,299.7,290.3,299.7,290.3,299.7z"/>
<path class="st2" d="M306.8,383c0.1-0.1,0.3-0.1,0.4-0.2c-0.1,0-0.3,0.1-0.4,0.1V383z"/>
<path class="st2" d="M306.1,353.2c-0.4-0.3-0.8-0.6-1.2-0.9l-0.1,0.1c0.4,0.3,0.8,0.6,1.2,0.8C306,353.3,306.1,353.2,306.1,353.2z"
	/>
<path class="st2" d="M317.8,353.3c0.4,0,0.7,0,1.1,0v-0.1c-0.4,0-0.8,0-1.2,0L317.8,353.3z"/>
<path class="st2" d="M396.6,354.2l-0.1-0.1C396.6,354.1,396.6,354.2,396.6,354.2z"/>
<path class="st2" d="M314.9,354.1l0.1,0.1L314.9,354.1z"/>
<path class="st2" d="M270.1,357.1L270,357L270.1,357.1z"/>
<path class="st2" d="M174.9,356.7l0.1,0.3C175,357.1,174.8,356.8,174.9,356.7C174.8,356.8,174.9,356.7,174.9,356.7z"/>
<path class="st2" d="M270,357c-0.4,0.4-0.8,0.8-1.2,1.2l0.1,0.1c0.4-0.4,0.8-0.8,1.2-1.2C270.1,357.1,270,357,270,357z"/>
<path class="st2" d="M291.7,357.9l-0.1-0.1L291.7,357.9z"/>
<path class="st2" d="M302,358.2c0.3-0.3,0.6-0.7,1-1l-0.1-0.1c0,0.4,0.1,0.8,0.1,1.2c-0.4-0.1-0.7-0.1-1.1-0.2L302,358.2z"/>
<path class="st2" d="M173.4,359.1h-0.3h0.1C173.3,359.2,173.4,359.1,173.4,359.1z"/>
<path class="st2" d="M290.6,358.9c0.4-0.3,0.8-0.7,1.1-1l-0.1-0.1c0.1,0.5,0.2,1.1,0.3,1.6l0.1-0.1C291.5,359.1,291,359,290.6,358.9
	C290.5,358.8,290.6,358.9,290.6,358.9z"/>
<path class="st2" d="M300.9,359.2c0.4-0.3,0.7-0.7,1.1-1l-0.1-0.1c-0.3,0.3-0.7,0.7-1,1V359.2z"/>
<path class="st2" d="M406.2,358.9l-0.3,0.1l0.2-0.2C406.1,358.9,406.2,358.9,406.2,358.9z"/>
<path class="st2" d="M284.3,360.1l-0.3,0.1l0.2-0.1H284.3z"/>
<path class="st2" d="M300.9,360.2c0-0.3,0-0.7,0-1h-0.1c0,0.4,0,0.7,0,1.1L300.9,360.2z"/>
<path class="st2" d="M273.9,362.3l-0.1-0.1L273.9,362.3z"/>
<path class="st2" d="M277.7,361.9c0.3-0.4,0.5-0.8,0.8-1.3l0,0c-0.3,0.4-0.6,0.7-0.8,1.1C277.7,361.8,277.7,361.9,277.7,361.9z"/>
<path class="st2" d="M277.6,363.6c0-0.5,0.1-1.1,0.1-1.6l-0.1-0.1C277.6,362.4,277.6,363,277.6,363.6
	C277.6,363.7,277.6,363.6,277.6,363.6z"/>
<path class="st2" d="M294.9,364.3c0.4-0.4,0.8-0.8,1.2-1.1l-0.1-0.1c0,0.4,0,0.8,0,1.2l0.1-0.1c-0.4,0-0.8,0-1.2,0V364.3z"/>
<path class="st2" d="M220.1,119.8l0.1-0.4L220.1,119.8L220.1,119.8z"/>
<path class="st2" d="M326.4,365.6c-0.2-0.2-0.4-0.3-0.6-0.4l0.1,0.2c0-0.4,0-0.8,0-1.2h-0.1C326,364.6,326.1,365.1,326.4,365.6
	C326.3,365.6,326.4,365.6,326.4,365.6z"/>
<path class="st2" d="M328.4,365.6L328.4,365.6L328.4,365.6z"/>
<path class="st2" d="M328.3,365.6c-0.6,0-1.2,0-1.9,0h-0.1C327,365.6,327.7,365.6,328.3,365.6C328.4,365.6,328.3,365.6,328.3,365.6z
	"/>
<path class="st2" d="M322.6,369.4h-0.1H322.6z"/>
<path class="st2" d="M322.5,369.4l0.3-0.1l-0.2,0.1C322.6,369.4,322.5,369.4,322.5,369.4z"/>
<path class="st2" d="M320.9,370v0.1C320.9,370.2,321,370,320.9,370C321,369.9,320.9,370,320.9,370z"/>
<path class="st2" d="M314.7,375.2l0.1-0.1C314.9,375.1,314.7,375.2,314.7,375.2z"/>
<path class="st2" d="M316,379l-0.1,0.1L316,379z"/>
<polygon class="st2" points="317.6,379.3 317.5,379.7 317.5,379.6 317.6,379.4 317.5,379.3 "/>
<path class="st2" d="M312,380.6v-0.4l0.1,0.2C312.1,380.5,312,380.6,312,380.6z"/>
<path class="st2" d="M317.5,379.7c-0.5,0.1-1.1,0.2-1.6,0.2v0.1c0-0.3,0.1-0.7,0.1-1l-0.1,0.1C316.4,379.3,317,379.5,317.5,379.7
	C317.5,379.6,317.5,379.7,317.5,379.7z"/>
<path class="st2" d="M317.5,379.3h0.4c0,0-0.2,0-0.3,0H317.5z"/>
<path class="st2" d="M315.9,379.9l-0.1,0.3L315.9,379.9C315.9,380,315.9,379.9,315.9,379.9z"/>
<path class="st2" d="M294.5,168.6h0.4l-0.2,0.1C294.7,168.6,294.5,168.6,294.5,168.6z"/>
<path class="st2" d="M335.4,382.5c-0.5,0.3-1,0.5-1.6,0.8l0.1,0.1C334.4,383.1,334.9,382.8,335.4,382.5
	C335.5,382.5,335.4,382.5,335.4,382.5z"/>
<path class="st2" d="M306.7,382.8l0.1,0.3L306.7,382.8C306.8,383,306.7,382.8,306.7,382.8z"/>
<path class="st2" d="M299.9,384.1l0.1-0.1L299.9,384.1z"/>
<path class="st2" d="M294.7,385.2l0.1-0.1L294.7,385.2z"/>
<path class="st2" d="M333.4,385.6c-0.5,0.2-1,0.5-1.5,0.7l0.1,0.1C332.5,386.2,332.9,385.9,333.4,385.6
	C333.5,385.6,333.4,385.6,333.4,385.6z"/>
<path class="st2" d="M316.9,179.4c-0.3-0.3-0.7-0.7-1-1l-0.1,0.1c0.4,0,0.8-0.1,1.1-0.1C316.9,178.7,316.9,179.1,316.9,179.4
	C316.8,179.5,316.9,179.4,316.9,179.4z"/>
<path class="st2" d="M328.9,390.2c0.5-0.2,1-0.5,1.5-0.7l-0.1-0.1c-0.5,0.2-1,0.4-1.5,0.6C328.8,390.1,328.9,390.2,328.9,390.2z"/>
<path class="st2" d="M317.9,180.4c-0.3-0.3-0.7-0.7-1-1l-0.1,0.1c0.4,0,0.8,0,1.1-0.1C317.9,179.8,317.9,180.1,317.9,180.4
	L317.9,180.4z"/>
<path class="st2" d="M222.9,393.2c0.4,0.4,0.7,0.8,1.1,1.1l0.1-0.2c-0.3-0.3-0.7-0.7-1-1L222.9,393.2z"/>
<path class="st2" d="M318.9,181.4c-0.3-0.3-0.7-0.7-1-1l-0.1,0.1c0.3,0.3,0.7,0.7,1,1C318.8,181.5,318.9,181.4,318.9,181.4z"/>
<path class="st2" d="M319.9,182.4c-0.3-0.3-0.7-0.7-1-1l-0.1,0.1c0.3,0.3,0.7,0.7,1,1L319.9,182.4z"/>
<path class="st2" d="M320.9,183.3c-0.3-0.3-0.6-0.6-1-1l-0.1,0.1c0.3,0.3,0.7,0.7,1,1L320.9,183.3z"/>
<path class="st2" d="M321.9,184.3c-0.3-0.3-0.7-0.7-1-1l-0.1,0.1c0.3,0.3,0.7,0.7,1,1L321.9,184.3z"/>
<path class="st2" d="M322.9,185.3c-0.3-0.3-0.7-0.7-1-1l-0.1,0.1c0.3,0.3,0.7,0.7,1,1L322.9,185.3z"/>
<path class="st2" d="M225,396.2c0.4,0.4,0.7,0.7,1.1,1.1l0.1-0.1c-0.3-0.3-0.7-0.7-1-1H225z"/>
<path class="st2" d="M324,186.5c-0.4-0.4-0.7-0.7-1.1-1.1l-0.1,0.1c0.3,0.4,0.7,0.7,1,1.1L324,186.5z"/>
<path class="st2" d="M326.7,185.6c0.1,0,0.2,0,0.3-0.1c-0.1,0-0.1,0-0.2-0.1C326.8,185.5,326.7,185.6,326.7,185.6z"/>
<path class="st2" d="M224.1,400.1c-0.4-0.3-0.7-0.7-1.1-1l-0.1,0.1c0.4-0.1,0.7-0.1,1.1-0.2c0,0.4-0.1,0.8-0.1,1.2L224.1,400.1z"/>
<path class="st2" d="M226.1,399.1c-0.4,0.4-0.7,0.7-1.1,1.1h0.1c0-0.4-0.1-0.8-0.1-1.2c0.4,0.1,0.7,0.1,1.1,0.2V399.1z"/>
<path class="st2" d="M227.9,400c-0.4-0.2-0.8-0.5-1.3-0.7c0,0-0.1,0-0.2,0C226.9,399.6,227.4,399.9,227.9,400L227.9,400z"/>
<path class="st2" d="M227.8,400.1c0.3,0.4,0.5,0.8,0.8,1.3h0.1C228.5,400.9,228.2,400.5,227.8,400.1
	C227.9,400,227.8,400.1,227.8,400.1z"/>
<path class="st2" d="M228.7,401.4l0.3-0.1l-0.2,0.1H228.7z"/>
<path class="st2" d="M224.6,402.3c0.5,0.2,1,0.4,1.4,0.6l0.1-0.1c-0.5-0.2-0.9-0.4-1.4-0.5H224.6z"/>
<path class="st2" d="M251.1,402c-0.4,0-0.7,0-1.1,0l-0.1,0.1c0.4,0,0.8,0,1.2,0L251.1,402z"/>
<path class="st2" d="M335.9,199.4c-0.1,0.1-0.1,0.2-0.2,0.3c0.1-0.1,0.2-0.1,0.3-0.2L335.9,199.4z"/>
<path class="st2" d="M227.2,404.1c-0.4-0.4-0.7-0.9-1.1-1.3l-0.1,0.1c0.4,0.4,0.9,0.8,1.3,1.3L227.2,404.1z"/>
<path class="st2" d="M168.5,404.4l-0.2-0.1l0.3,0.1C168.6,404.3,168.5,404.4,168.5,404.4z"/>
<path class="st2" d="M227.3,404.2c-0.1,0-0.1,0-0.1-0.1L227.3,404.2z"/>
<path class="st2" d="M335,221.8l-0.1-0.4l0.1,0.2C335,221.7,335,221.8,335,221.8z"/>
<path class="st2" d="M326.8,225.5c0.4,0,0.8,0,1.1,0v-0.1c-0.4,0-0.8,0-1.2,0C326.7,225.4,326.8,225.5,326.8,225.5z"/>
<path class="st2" d="M246.6,406.4l0.3-0.2l-0.2,0.2H246.6z"/>
<path class="st2" d="M322.1,226.2l-0.2,0.1h0.2C322,226.3,322.1,226.2,322.1,226.2z"/>
<path class="st2" d="M230.9,409l-0.2-0.1v0.2C230.8,409.1,230.9,409,230.9,409z"/>
<path class="st2" d="M232.3,409.9c-0.5-0.3-0.9-0.6-1.4-0.9l-0.1,0.1c0.5,0.3,1.1,0.7,1.6,1L232.3,409.9z"/>
<path class="st2" d="M232.4,410.1c-0.1,0-0.2,0-0.2-0.1c0.1,0.1,0.1,0.1,0.2,0.2c0-0.1,0-0.2,0-0.3
	C232.3,409.9,232.4,410.1,232.4,410.1z"/>
<path class="st2" d="M343.8,228.5c0.4,0,0.7,0,1.1,0v-0.1c-0.4,0-0.8,0-1.2,0L343.8,228.5z"/>
<path class="st2" d="M212,413.2c0.4,0,0.8,0,1.1,0v-0.1c-0.4,0-0.8,0-1.2,0C212,413.1,212,413.2,212,413.2z"/>
<path class="st2" d="M259.9,232.5c0.4,0,0.7,0,1.1,0v-0.1c-0.4,0-0.8,0-1.2,0L259.9,232.5z"/>
<path class="st2" d="M300,232.3c-0.4,0.3-0.7,0.6-1.1,0.9l0.1,0.1c0.4-0.3,0.7-0.6,1.1-0.9C300.1,232.4,300,232.3,300,232.3z"/>
<path class="st2" d="M298.9,233.2l0.1,0.1L298.9,233.2z"/>
<path class="st2" d="M204,421l0.1,0.1C204.1,421,204,421,204,421z"/>
<path class="st2" d="M348.8,236.3c-0.4,0.4-0.7,0.7-1.1,1.1l0.1,0.1c0-0.4-0.1-0.8-0.1-1.2c0.4,0,0.8,0.1,1.2,0.1L348.8,236.3z"/>
<path class="st2" d="M468.7,438.1l-0.1,0.1L468.7,438.1z"/>
<path class="st2" d="M161,441.8l0.1,0.3C161.1,442.1,161,442,161,441.8C161,441.9,161,441.8,161,441.8z"/>
<polygon class="st2" points="296.9,245.2 296.8,245.4 297,245.4 "/>
<path class="st2" d="M324.9,252.3c-0.4,0-0.8,0-1.1,0v0.1c0.4,0,0.8,0,1.2,0C325,252.4,324.9,252.3,324.9,252.3z"/>
<polygon class="st2" points="309.8,255.4 310,255.2 309.7,255.4 "/>
<path class="st2" d="M128.4,463.3l-0.1-0.1C128.3,463.2,128.4,463.3,128.4,463.3z"/>
<path class="st2" d="M356.8,471.8c-0.4,0.4-0.8,0.8-1.2,1.2l0.1,0.1c0.4-0.4,0.8-0.8,1.2-1.2C356.8,471.9,356.8,471.8,356.8,471.8z"
	/>
<path class="st2" d="M348.2,475.9l-0.3,0.1L348.2,475.9C348.1,475.9,348.2,475.9,348.2,475.9z"/>
<polygon class="st2" points="362.2,277.4 362.1,277.3 362,277.4 "/>
<path class="st2" d="M362,277.4l-0.2-0.1h0.3C362.2,277.4,362,277.4,362,277.4z"/>
<path class="st2" d="M297.6,281.4h0.3h-0.1C297.8,281.4,297.6,281.4,297.6,281.4z"/>
<path class="st2" d="M299.9,299.2l-0.1-0.1L299.9,299.2z"/>
<polygon class="st2" points="412.7,487 412.6,487.1 412.8,487.1 "/>
<path class="st2" d="M299.9,299.1l0.1,0.1C299.9,299.2,299.9,299.1,299.9,299.1z"/>
<path class="st2" d="M302.1,304.7v-0.4l0.1,0.2C302.1,304.6,302.1,304.7,302.1,304.7z"/>
<path class="st2" d="M318.7,304l0.1,0.2v-0.1L318.7,304z"/>
<path class="st2" d="M457.7,519.1l-0.1-0.1C457.5,519,457.7,519.1,457.7,519.1z"/>
<path class="st2" d="M317.8,308.2c0.4-0.3,0.7-0.6,1.1-1l-0.1-0.1c0,0.4,0,0.7,0,1.1l0.2-0.1C318.6,308.2,318.2,308.2,317.8,308.2
	L317.8,308.2z"/>
<path class="st2" d="M345.7,308.2l-0.1,0.1L345.7,308.2z"/>
<path class="st2" d="M317.9,309.3c0-0.4,0-0.7,0-1.1l0,0C317.8,308.6,317.8,309,317.9,309.3C317.8,309.4,317.9,309.3,317.9,309.3z"
	/>
<path class="st2" d="M345.6,308.2c0.4,0.4,0.8,0.8,1.2,1.2l0.1-0.1c-0.4-0.4-0.8-0.8-1.2-1.2C345.7,308.2,345.6,308.2,345.6,308.2z"
	/>
<path class="st2" d="M333.6,537.5l0.1,0.3l-0.2-0.2L333.6,537.5z"/>
<path class="st2" d="M320.8,311.2c0,0.4,0,0.8,0,1.1h0.1c0-0.4,0-0.8,0-1.2L320.8,311.2z"/>
<path class="st2" d="M418.4,561.5l0.1,0.3l-0.2-0.2L418.4,561.5z"/>
<path class="st2" d="M303.8,318.3l0.1-0.1C303.9,318.2,303.8,318.3,303.8,318.3z"/>
<path class="st2" d="M329.1,340.1l-0.1,0.1C329,340.2,329.1,340.1,329.1,340.1z"/>
<path class="st2" d="M301.1,593.2l-0.1-0.3l0.1,0.1C301,593.1,301.1,593.2,301.1,593.2z"/>
<path class="st2" d="M263.9,340.2c0,0.4,0,0.8,0,1.1h0.1c0-0.4,0-0.8,0-1.2L263.9,340.2z"/>
<path class="st2" d="M271.4,594.6l-0.3,0.2l0.2-0.2C271.3,594.6,271.4,594.6,271.4,594.6z"/>
<path class="st2" d="M418.3,595.3c-0.6,0.1-1.2,0.2-1.8,0.2v0.1C417.1,595.5,417.7,595.4,418.3,595.3
	C418.4,595.2,418.3,595.3,418.3,595.3z"/>
<path class="st2" d="M416.5,595.5v0.4l-0.1-0.2C416.5,595.6,416.5,595.5,416.5,595.5z"/>
<path class="st2" d="M463.7,598.1l-0.1-0.1L463.7,598.1z"/>
<path class="st2" d="M412.8,602.1l-0.1-0.1L412.8,602.1z"/>
<path class="st2" d="M319.5,344.3h0.4c0,0-0.2,0-0.2,0.1C319.6,344.4,319.5,344.3,319.5,344.3z"/>
<path class="st2" d="M379,346.2h-0.3H379L379,346.2z"/>
<path class="st2" d="M313,348.6v-0.4l0.1,0.2C313.1,348.5,313,348.6,313,348.6z"/>
<path class="st2" d="M303.8,351.2l-0.1,0.1L303.8,351.2z"/>
<polygon class="st2" points="316.8,350.1 316.8,350.3 317,350.2 "/>
<path class="st2" d="M303.7,351.3c0.4,0.4,0.8,0.8,1.2,1.2l0.1-0.1c-0.4-0.4-0.8-0.8-1.2-1.2C303.8,351.2,303.7,351.3,303.7,351.3z"
	/>
<polygon class="st2" points="309,352.2 308.7,352 308.9,352.3 "/>
<path class="st2" d="M267.1,353.6l-0.1-0.3L267.1,353.6C267.2,353.5,267.1,353.6,267.1,353.6z"/>
<path class="st2" d="M412.3,631.1l0.3-0.2L412.3,631.1C412.4,631.1,412.3,631.1,412.3,631.1z"/>
<path class="st0" d="M234.1,301.3c-1.9-3.1-3.7-1.4-5,0.4c-1.2,1.7-2,3.7-2.9,5.6l-0.1-0.1c2.6,2.7,5.3,5.3,7.9,8h0.1
	c0,0.4,0,0.8,0,1.2H234c1.4,4,2.9,7.9,4.3,11.9c-0.5,0.3-0.9,0.6-1.4,0.9c-3.3-3.9-6.4-8.1-10-11.7c-3.3-3.2-5.6-6.5-5.7-11.1
	l-0.1,0.1c0.1-2.5,0.5-5,0.2-7.4c-0.5-3.5-1.8-6.9-2.2-10.3c-0.2-1.5,0.8-3.2,1.1-4.8c0.4-2.2,0.7-4.4,1.1-6.6l-0.1,0.1
	c0.6-0.3,1.1-0.6,1.7-0.9l0.2-0.1l-0.3,0.1c1.1-4.7,2.2-9.5,3.4-14.2l-0.1,0.1c0.7-0.1,1.3-0.1,2-0.2l-0.1-0.1
	c0.7,0.6,2.1,1.7,2.1,1.7c4.8-5.4,12.1-2.7,17.7-5.3c1.3-0.6,2.4-1.5,3.5-2.3l-0.1,0.1c0.7,0.4,1.4,0.7,2.1,1.1l-0.1-0.2
	c-0.9,1.7-1.8,3.4-2.8,5.1l-0.1-0.1c5.7,9.5,2.4,18.2-1.7,27.2c-2,4.3-3,9.2-7.5,11.7c-1.4,0.8-3.2,0.7-4.8,1l0.1,0.1
	c-0.7-0.4-1.4-0.7-2.1-1.1L234.1,301.3z"/>
<path class="st2" d="M323.9,186.5c-0.3-0.4-0.7-0.7-1-1.1c-0.3-0.3-0.7-0.7-1-1c-0.3-0.3-0.7-0.7-1-1c-0.3-0.3-0.7-0.7-1-1
	c-0.3-0.3-0.7-0.7-1-1c-0.3-0.3-0.7-0.7-1-1c0-0.3,0.1-0.7,0.1-1l-0.1,0.1c0-0.4,0-0.8,0-1.2l0.1,0.2c-0.4-0.4-0.8-0.8-1.1-1.1
	l0.1,0.1c-3-1.6-6.1-3.3-9.1-4.9c-3.5-2.8-7-5.7-10.5-8.5c0.6,0.1,1.2,0.2,1.7,0.3c0-0.1,0-0.3,0.1-0.4c-0.6,0.1-1.1,0.1-1.7,0.2
	c-0.7-1-1.5-1.9-2.2-2.9l-0.1,0.1c1.4-0.1,2.8-0.3,4.2-0.4c-0.3,0-0.7,0.1-1,0.1c0.3-0.1,0.6-0.1,0.9-0.2c0.2-0.8,0.5-1.5,0.7-2.1
	c1.7,0.7,3.3,1.2,4.9,1.8l-0.1-0.1c0.7,0,1.5,0,2.2,0v0.1c2.3,1,4.6,2,6.9,3l-0.1-0.2c0.4,0.4,0.8,0.8,1.1,1.1l-0.2-0.1
	c0.7,0.7,1.4,1.4,2,2.1v-0.1c0.4,0.4,0.8,0.8,1.1,1.1l-0.1-0.2c0.7,1.1,1.4,2.1,2.1,3.2l-0.2-0.1c1,2,2.1,4,3.1,6c0.3,1,0.7,2,1,3
	c0.3,1.3,0.7,2.7,1,4C324.6,184.5,324.2,185.5,323.9,186.5z M316.6,173.6l0.2-0.1l-0.4,0.1C316.5,173.6,316.6,173.6,316.6,173.6z
	 M312.8,166.6l-0.1-0.3l0.2,0.1c0.3,0.4,0.5,0.7,0.8,1.1C313.4,167.2,313.1,166.9,312.8,166.6z M315.2,171.9c-1-0.5-2.1-1-3.1-1.5
	c-0.3,0-0.5-0.1-0.8-0.1c0.3,0,0.6,0,0.9,0c1,0.5,2,1,2.9,1.5l-0.2-0.2L315.2,171.9z"/>
<path class="st2" d="M245.1,256.3c-1.7-0.3-3.4-0.6-6.4-1.2c4.4-4,8-7.4,12.4-11.4c0.6,0.3,2.2,1.2,4.6,2.5
	c-1.7,0.9-2.8,1.4-4.1,2.1c3.2,0.7,6,1.4,8.9,2.1c-0.9,1.3-1.7,2.6-2.6,3.9l0.1,0.1c-0.4,0-0.8,0-1.2,0l0.2-0.1
	c-1.1,0.4-2.1,0.7-3.2,1.1l0.2-0.1c-1.1,0.4-2.1,0.7-3.2,1.1l0.1-0.1c-2,0-4,0-6,0H245.1z"/>
<path class="st2" d="M249.3,237.1c-7.6,4.6-17.9,3.7-22.2-1.7C231.6,231.5,242.8,232.3,249.3,237.1z"/>
<path class="st2" d="M191.6,395.8c1.9,2.5,2.7,4.5-1.4,5.7c-2,0.6-3.7,2.2-5.5,3.4c-0.4-0.4-0.8-0.9-1.1-1.3
	C186.3,401,189,398.4,191.6,395.8C191.7,395.8,191.6,395.8,191.6,395.8z"/>
<path class="st2" d="M224.6,318.8c1.3,2.6,2.6,5.3,3.9,7.9c-0.6,0.3-1.2,0.6-1.7,0.9c-1.4-2.6-2.8-5.2-4.2-7.8
	C223.2,319.5,223.9,319.2,224.6,318.8z"/>
<path class="st2" d="M372.8,237.5c1.1,0.1,2.2,0.3,3.4,0.4c0,0-0.1-0.1,0-0.1c-2.2,1.2-4.4,2.4-6.5,3.6c-0.4-0.6-0.7-1.2-1.1-1.8
	c1.1-0.7,2.1-1.4,3.2-2.2v-0.1c0.4,0,0.8,0,1.2,0L372.8,237.5z"/>
<path class="st2" d="M226,262.3c-1.8,0.7-3.6,1.5-5.4,2.2c-0.2-0.3-0.5-0.5-0.7-0.8c1.5-1.2,2.9-2.4,4.4-3.5
	c0.5,0.8,1.1,1.5,1.6,2.3C225.9,262.4,226,262.3,226,262.3z"/>
<path class="st2" d="M317.9,166.5c1.4,1.1,2.8,2.1,5.4,4.1c-2.3-0.1-2.9-0.1-3.6-0.2l0.2,0.1c-0.7-1.1-1.4-2.1-2.1-3.2l0.1,0.2
	C317.9,167.1,317.9,166.7,317.9,166.5L317.9,166.5z"/>
<path class="st2" d="M256.9,255.3c-1.3,0.6-2.7,1.3-4,1.9l0.1,0.2c0.4-0.7,0.7-1.4,1.1-2.1l-0.2,0.1c1.1,0,2.1,0,3.2,0L256.9,255.3z
	"/>
<path class="st2" d="M266.6,309.4c-1.8,1-2.5,1.4-3.2,1.8c0.2-0.6,0.2-1.3,0.6-1.7C264,309.2,264.8,309.4,266.6,309.4z"/>
<path class="st2" d="M246.2,243.7c-0.7,0.6-1.1,1-1.5,1.5c-0.4-0.6-1-1.1-1.2-1.8c-0.1-0.1,0.9-1,1.3-0.9
	C245.2,242.5,245.6,243.2,246.2,243.7z"/>
<path class="st2" d="M236,302.2c0.1,1,0.2,2,0.2,3.1c-0.3,0.1-0.7,0.2-1,0.3c-0.4-1.1-0.7-2.2-1.1-3.3H234c0.7,0,1.4,0,2.1,0
	L236,302.2z"/>
<path class="st2" d="M226.1,399.2c-0.4-0.1-0.7-0.1-1.1-0.2l0.1,0.1c-0.4,0-0.8,0-1.2,0l0.1-0.1c-0.4,0.1-0.7,0.1-1.1,0.2
	c0-0.7,0.1-1.4,0.1-2.1l-0.1,0.1c0.4-0.4,0.8-0.8,1.1-1.1l-0.1,0.1c0.4,0,0.7-0.1,1.1-0.1c0.3,0.3,0.7,0.7,1,1
	C226.1,397.8,226.1,398.5,226.1,399.2z"/>
<path class="st2" d="M180.2,412.2c-0.2,0.2-0.4,0.3-0.6,0.5c-0.1-0.2-0.3-0.5-0.4-0.7c0,0,0.3-0.3,0.4-0.2
	C179.8,411.8,180,412,180.2,412.2z"/>
<path class="st2" d="M223.1,393.1c0.3,0.3,0.7,0.7,1,1c0,0.7-0.1,1.4-0.1,2.1l0.1-0.1c-0.4,0-0.8,0-1.1,0l0.1,0.1
	C223.1,395.2,223.1,394.1,223.1,393.1z"/>
<path class="st2" d="M272.6,361.7c-0.1,0.9-0.1,1.8-0.2,2.8c-0.2-0.1-0.5-0.1-0.7-0.2c0.3-0.8,0.7-1.6,1-2.5L272.6,361.7z"/>
<path class="st2" d="M209.2,421.2c-1.1-0.7-2.1-1.4-3.2-2.1C207.1,419.8,208.1,420.5,209.2,421.2z"/>
<path class="st2" d="M318.8,308.3c0-0.4,0-0.7,0-1.1c0.7,1.1,1.4,2.1,2.1,3.2C320.2,309.7,319.5,309,318.8,308.3z"/>
<path class="st2" d="M271.7,161.1c-0.1-0.1-0.3-0.1-0.4-0.2c0.1-0.1,0.2-0.4,0.2-0.3c0.2,0.1,0.4,0.2,0.5,0.4
	C271.9,160.9,271.8,161,271.7,161.1z"/>
<path class="st2" d="M315.6,368.6c-0.1,0-0.3,0-0.4,0c0-0.1,0-0.3,0-0.5c0.2,0,0.3,0,0.5,0C315.6,368.3,315.6,368.5,315.6,368.6z"/>
<path class="st2" d="M300.8,360.3c0-0.4,0-0.7,0-1.1c0.3-0.3,0.7-0.7,1-1c0.4,0.1,0.7,0.1,1.1,0.2l-0.1-0.1c0.4,0.4,0.8,0.8,1.1,1.1
	l-0.1-0.1C302.8,359.6,301.8,359.9,300.8,360.3z"/>
<path class="st2" d="M260.2,310.2c-0.1-0.2-0.2-0.4-0.2-0.6c0,0,0.2-0.1,0.3-0.2c0.1,0.2,0.2,0.4,0.2,0.7
	C260.5,310,260.3,310.1,260.2,310.2z"/>
<path class="st2" d="M295.8,321.5c0.1-0.1,0.2-0.2,0.3-0.4c0.2,0.2,0.4,0.3,0.6,0.5c0,0-0.2,0.2-0.2,0.3
	C296.2,321.8,296,321.7,295.8,321.5z"/>
<path class="st2" d="M351.3,196c0.7,0.6,1.5,1.3,2.2,2l0,0C352.8,197.3,352.1,196.6,351.3,196L351.3,196z"/>
<path class="st2" d="M283.8,363.2c-0.1,0.5-0.1,1,0,0.3c-0.5,0.6-0.2,0.2,0.1-0.2C283.9,363.3,283.8,363.2,283.8,363.2z"/>
<path class="st2" d="M308.5,355.5c0.1-0.1,0.1-0.3,0.2-0.4c0.1,0.1,0.3,0.1,0.4,0.2c0,0.1-0.1,0.2-0.2,0.4
	C308.7,355.6,308.6,355.5,308.5,355.5z"/>
<path class="st2" d="M314.9,163.5c0.4,0.1,0.8,0.1,1.2,0.2c-0.5,0.2-0.9,0.5-1.4,0.7l0.2,0.1c0-0.4,0-0.8,0-1.1V163.5z"/>
<path class="st2" d="M227.9,262.2c0.4-0.3,0.7-0.5,0.2-0.2c0.6-0.1,0.1,0-0.3,0.1C227.8,262.1,227.9,262.2,227.9,262.2z"/>
<polygon class="st2" points="178.6,405.2 178.3,405.5 178.2,405.2 "/>
<path class="st2" d="M236.9,308.1c0.4-0.4,0.7-0.9,1.1-1.3c0.1,0.5,0.2,0.9,0.2,1.4l0.1-0.1C237.8,308.1,237.3,308.1,236.9,308.1
	L236.9,308.1z"/>
<path class="st2" d="M291.1,364.3c-0.4,0.2-0.7,0.5-0.2,0.1c-0.5,0.1-0.1,0,0.3-0.1C291.3,364.4,291.1,364.3,291.1,364.3z"/>
<path class="st2" d="M272.9,305.3c-0.4,0.2-0.8,0.4-1.1,0.5c0.4-0.1,0.8-0.3,1.2-0.4C273,305.4,272.9,305.3,272.9,305.3z"/>
<path class="st2" d="M305.3,358.5c0.1-0.2,0.3-0.4,0.3-0.4c-0.1,0-0.2,0.2-0.4,0.4H305.3z"/>
<path class="st2" d="M305.3,159c-0.1-0.1-0.2-0.1-0.4-0.2C305,158.9,305.1,159,305.3,159C305.2,159.1,305.3,159,305.3,159z"/>
<path class="st2" d="M304.9,160.6c0.1-0.5,0.2-1,0.4-1.6l-0.1,0.1c0.6,0.5,1.2,1,1.7,1.5v-0.1c-0.7,0-1.5,0-2.2,0L304.9,160.6z"/>
<path class="st2" d="M295.3,161.2c-0.3,0-0.6,0.1-0.9,0.1c0.3,0,0.5,0,0.8,0C295.2,161.3,295.3,161.2,295.3,161.2z"/>
<path class="st2" d="M220.2,389.2c-0.7,0-1.5,0-2.2,0C218.7,389.2,219.4,389.2,220.2,389.2z"/>
<path class="st2" d="M351.3,195.9c0.1-0.3,0.2-0.5,0.2-0.8C351.5,195.4,351.4,195.7,351.3,195.9C351.3,196,351.3,195.9,351.3,195.9z
	"/>
<path class="st2" d="M307.3,361.8c-0.1,0.1-0.3,0.1-0.4,0.2C307.1,362,307.2,361.9,307.3,361.8L307.3,361.8z"/>
<path class="st2" d="M324.5,364.6c-0.3-0.3-0.7-0.6-1-1l0,0c0.3,0.3,0.6,0.7,0.9,1H324.5z"/>
<path class="st2" d="M323.5,363.6c0,0.3,0,0.6,0,0.9C323.5,364.2,323.5,363.9,323.5,363.6C323.4,363.6,323.5,363.6,323.5,363.6z"/>
<path class="st2" d="M307.3,361.8c0-0.3,0-0.6-0.1-0.9C307.3,361.2,307.3,361.5,307.3,361.8L307.3,361.8z"/>
<polygon class="st2" points="303.8,362.8 303.8,362.6 304.1,362.7 "/>
<path class="st2" d="M206.2,419.2c-0.7,0-1.5,0-2.2,0C204.7,419.2,205.5,419.2,206.2,419.2z"/>
<path class="st2" d="M336.3,353l-0.3,0.1l0.2-0.1C336.1,353,336.3,353,336.3,353z"/>
<path class="st2" d="M315.8,354.3c0.4-0.4,0.8-0.8,1.2-1.2C316.6,353.5,316.2,353.9,315.8,354.3z"/>
<path class="st2" d="M317.8,353.2c0.4,0,0.8,0,1.2,0C318.6,353.2,318.2,353.2,317.8,353.2z"/>
<path class="st2" d="M302.9,358.3c0-0.4-0.1-0.8-0.1-1.2c0.3,0.4,0.6,0.8,1,1.2l0.1-0.1c-0.4,0-0.8,0-1.2,0L302.9,358.3z"/>
<path class="st2" d="M305.2,358.5c-0.5,0.3-0.9,0.5-1.4,0.8l0.1,0.1c0-0.4,0-0.8,0-1.2l-0.1,0.1
	C304.3,358.3,304.8,358.4,305.2,358.5C305.3,358.5,305.2,358.5,305.2,358.5z"/>
<path class="st2" d="M285,362.1c-0.4,0.4-0.8,0.7-1.2,1.1l0.1,0.1C284.3,362.9,284.7,362.6,285,362.1
	C285.1,362.2,285,362.1,285,362.1z"/>
<path class="st2" d="M295.9,364.3c0-0.4,0-0.8,0-1.2C295.9,363.5,295.9,363.9,295.9,364.3z"/>
<polygon class="st2" points="287.4,365.5 287.3,365.3 287.2,365.5 "/>
<path class="st2" d="M294.8,364.2c0.4,0,0.8,0,1.2,0C295.6,364.2,295.2,364.2,294.8,364.2z"/>
<path class="st2" d="M325.9,364.1c0,0.4,0,0.8,0,1.2c-0.5-0.3-0.9-0.5-1.4-0.8l-0.1,0.1C324.9,364.5,325.4,364.3,325.9,364.1z"/>
<path class="st2" d="M287.2,365.5l-0.2-0.2l0.3,0.2C287.4,365.5,287.2,365.5,287.2,365.5z"/>
<path class="st2" d="M319.9,368.1c-0.4,0.4-0.8,0.8-1.1,1.1C319.2,368.9,319.6,368.5,319.9,368.1z"/>
<path class="st2" d="M318.9,369.1c0,0.4,0,0.8,0,1.2C318.9,369.9,318.9,369.5,318.9,369.1z"/>
<path class="st2" d="M312.3,161.8C312.3,161.8,312.2,161.8,312.3,161.8C312.2,161.8,312.3,161.8,312.3,161.8z"/>
<path class="st2" d="M314.1,162.1c-0.6-0.1-1.1-0.2-1.7-0.3h-0.1C312.9,161.9,313.5,162.1,314.1,162.1
	C314,162.2,314.1,162.1,314.1,162.1z"/>
<path class="st2" d="M313.9,163.6c0.1-0.5,0.1-1,0.2-1.5l-0.1,0.1c0.3,0.4,0.6,0.9,0.9,1.3l0.1-0.1c-0.4,0-0.8,0-1.1,0V163.6z"/>
<path class="st2" d="M313.3,376l-0.3,0.1l0.2-0.1H313.3z"/>
<path class="st2" d="M316.8,166.5c0.4,0,0.7,0,1.1,0v-0.1c-0.4,0-0.8,0-1.2,0L316.8,166.5z"/>
<path class="st2" d="M303,380l-0.1-0.1L303,380z"/>
<path class="st2" d="M302.9,379.9c-0.4,0.4-0.8,0.9-1.2,1.3l0.1,0.1c0.4-0.4,0.8-0.8,1.1-1.3C303,380,302.9,379.9,302.9,379.9z"/>
<path class="st2" d="M299.2,384.1h-0.3l0.1,0.1L299.2,384.1z"/>
<path class="st2" d="M252.2,387.1l-0.1,0.1C252.1,387.1,252.2,387.1,252.2,387.1z"/>
<path class="st2" d="M219.6,392.4l0.4-0.1l-0.3,0.2C219.7,392.5,219.6,392.4,219.6,392.4z"/>
<path class="st2" d="M223.2,397.2c0-0.3,0-0.7,0-1l-0.1-0.1c0,0.4,0,0.8,0,1.1H223.2z"/>
<path class="st2" d="M251.1,402.2c-0.4,0-0.8,0-1.2,0C250.3,402.2,250.7,402.2,251.1,402.2z"/>
<path class="st2" d="M245,226.3l0.1,0.1L245,226.3z"/>
<path class="st2" d="M212,413.1c0.4,0,0.8,0,1.2,0C212.8,413.1,212.4,413.1,212,413.1z"/>
<path class="st2" d="M259.9,232.4c0.4,0,0.8,0,1.2,0C260.7,232.4,260.3,232.4,259.9,232.4z"/>
<path class="st2" d="M371.7,237.5c0.4,0,0.7,0,1.1,0v-0.1c-0.4,0-0.8,0-1.2,0L371.7,237.5z"/>
<path class="st2" d="M258,254.2c-0.4,0.4-0.7,0.7-1.1,1.1l0.1,0.1c0-0.4,0-0.8,0-1.1l-0.2,0.1c0.4,0,0.8,0,1.2,0
	C258.1,254.4,258,254.2,258,254.2z"/>
<path class="st2" d="M245,256.2l0.1,0.1C245.1,256.3,245,256.2,245,256.2z"/>
<path class="st2" d="M221.2,277.3l-0.1,0.1L221.2,277.3z"/>
<path class="st2" d="M234.1,302.3c-0.1-0.2-0.2-0.5-0.2-0.7c0-0.1,0.1-0.2,0.2-0.3H234c0,0.4,0,0.7,0,1.1L234.1,302.3z"/>
<path class="st2" d="M273,305.4l-0.1-0.1L273,305.4z"/>
<path class="st2" d="M221.2,306.2l-0.1,0.1C221.1,306.4,221.2,306.2,221.2,306.2z"/>
<path class="st2" d="M236.8,308l0.1,0.3v-0.2C236.9,308.1,236.8,308,236.8,308z"/>
<path class="st2" d="M238.2,308.1l-0.1,0.2L238.2,308.1L238.2,308.1z"/>
<path class="st2" d="M317.8,309.4c0-0.4,0-0.8,0-1.2c0.4,0,0.8,0,1.2,0C318.6,308.6,318.2,309,317.8,309.4z"/>
<path class="st2" d="M348.5,309.5l0.3-0.2l-0.2,0.1C348.6,309.5,348.5,309.5,348.5,309.5z"/>
<path class="st2" d="M317.5,310.6l0.3-0.2l-0.2,0.1C317.6,310.5,317.5,310.6,317.5,310.6z"/>
<path class="st2" d="M320.9,311.2c0,0.4,0,0.8,0,1.2C320.9,312,320.9,311.6,320.9,311.2z"/>
<path class="st2" d="M234,315.2c0,0.4,0,0.8,0,1.1h0.1c0-0.4,0-0.8,0-1.2L234,315.2z"/>
<path class="st2" d="M323,316.2l-0.1,0.1C322.9,316.3,323,316.2,323,316.2z"/>
<path class="st2" d="M286.7,321c0.4,0.1,0.8,0.2,1.2,0.3l0.1-0.1C287.5,321.1,287,321,286.7,321C286.6,320.9,286.7,321,286.7,321z"
	/>
<polygon class="st2" points="287.8,321.3 288,321.3 288,321.2 "/>
<path class="st2" d="M261.4,336.9l-0.3,0.2l0.2-0.2C261.3,336.9,261.4,336.9,261.4,336.9z"/>
<polygon class="st2" points="278.1,338.2 277.9,338.1 277.9,338.3 "/>
<path class="st2" d="M264,340.1c0,0.4,0,0.8,0,1.2C264,340.9,264,340.5,264,340.1z"/>
<path class="st2" d="M329.5,342l0.2,0.2l-0.3-0.2H329.5z"/>
<polygon class="st2" points="259.8,344 260.1,343.9 259.9,343.8 "/>
<path class="st2" d="M200.9,344.4l0.2-0.1H201L200.9,344.4z"/>
<path class="st2" d="M259.9,343.8v0.4c0,0,0-0.2,0-0.3C259.8,344,259.9,343.8,259.9,343.8z"/>
<path class="st3" d="M139.8,602.3c-1.7,1.2-3.3,2.8-5.2,3.4c-2.4,0.7-5.1,0.4-8,0.6c5.8,6.3,12.2,3.6,19.8,1.2
	c-2.2,3.8-3.5,6-4.8,8.1l0.1-0.1c-0.8,0.3-1.6,0.9-2.3,0.8c-5-0.6-5-0.7-6.5,4.2c-1.2-1.1-2.7-1.8-3.1-3c-1.3-3.8-3.2-5.2-7.5-3.8
	c-1.4,0.4-3.8-2.3-5.8-3.7c1.2-0.9,2.3-1.8,3.5-2.7c0.6-0.5,1.4-0.8,1.9-1.4c1.6-2.1,3.2-4.3,5.1-6c0.6-1.7,1.1-3.4,1.6-4.9
	c-4.5,0-9.5,0-13.4,0c-0.8,3.1-0.7,6-2.1,7.6c-3.1,3.4-7,2.9-10.5,0.1v0.1c-0.4-0.4-0.8-0.8-1.2-1.2l0.1,0.2c-3.5-4.3-7-8.7-10.5-13
	c-1.4-1.7-2.7-3.5-4.3-5.5c4.5-2.6,7.9-3.7,11.6,0.4c2,2.2,5.2,3.2,8.3,5c-0.9,0.7-1.6,1.4-2.4,2c4.3,0,8.6,0,11.8,0
	c1.1-2.4,1.6-5.3,2.9-5.8c2.6-1,5.8-2.7,8.6,0.9c1.1,1.5,4.2,1.4,6.3,2.2c2,0.7,3.9,1.7,7,3.1c-3,2.5-5.4,4.6-8.3,7
	C134.9,599.6,137.3,601,139.8,602.3L139.8,602.3z"/>
<path class="st2" d="M124,483.5c0.3-3.3,0.6-6.7,0.8-10l-0.1,0.1c1.4,1.3,3.3,2.4,4.1,4c2.7,5,5.4,10.2,7.5,15.5
	c1.3,3.5,1.5,7.5,2.4,12.1c0.1,0,1.3,0,2.5,0l-0.1-0.1c0.1,1.1,0.3,2.3,0.3,3.4c0,1.7-0.2,3.3-0.3,5c-2-0.7-4.5-0.8-5.8-2.1
	c-4.4-4.8-8.1-10-5.6-17.2c0.3-0.9-0.3-3-0.6-3c-5.1-0.4-4.2-4.7-5.1-7.8C124,483.4,124,483.5,124,483.5z"/>
<path class="st3" d="M117,580.5c-0.6,0.7-0.7,0.9-0.8,0.9c-4.4,1-16.3-3-17.7-6.2c-0.9-2-0.9-4.5-1.3-6.8c3-0.3,6-1.1,8.9-0.7
	c4.3,0.5,8.5,2,12.8,2.8c0.6,0.1,1.4-0.9,2.7-1.8c0.3,0.7,0.6,1.8,1,2.9c-3.1,0.6-6.2,1.3-8.8,1.8
	C114.6,575.2,115.8,577.8,117,580.5z"/>
<path class="st3" d="M95.5,577.1c-3.8-2.9-7.5-5.9-12-9.4C89.5,565.6,94.9,569.8,95.5,577.1z"/>
<path class="st2" d="M100.2,442.5c0.6,4.6,1.2,9.2,1.9,14.8c-5.5-4.7-2.9-9.9-3.4-14.6C99.3,442.6,99.7,442.6,100.2,442.5z"/>
<path class="st2" d="M220.1,611.6c3.8,0.6,6.8,1,10.2,1.5C227.3,617,224.2,616.5,220.1,611.6z"/>
<path class="st2" d="M105.9,584c-2.3-0.6-4.6-1.2-6.9-1.8c0.2-0.7,0.3-1.4,0.5-2.1c2.3,0.6,4.6,1.2,6.9,1.8
	C106.3,582.6,106.1,583.3,105.9,584z"/>
<path class="st2" d="M98.6,504.5c-0.6-2.3-1.2-4.6-1.8-6.9c0.5-0.2,1.1-0.3,1.6-0.5c0.6,2.3,1.3,4.6,1.9,6.9
	C99.7,504.1,99.2,504.3,98.6,504.5z"/>
<path class="st2" d="M120,465.5c0.3,1.6,0.7,3.2,1,4.7c-0.7,0.1-1.4,0.2-2,0.3c-0.2-1.6-0.4-3.2-0.6-4.8
	C118.9,465.7,119.4,465.6,120,465.5z"/>
<path class="st2" d="M102.4,602.8c-1.4,0.6-2.8,1.3-4.4,2c-1.5-5.1,1.1-3.7,3.4-2.9l-0.1-0.2C101.7,602.1,102.1,602.5,102.4,602.8
	C102.4,603,102.4,602.8,102.4,602.8z"/>
<path class="st2" d="M215.6,606.5c1.3,0.4,2.5,0.8,3.8,1.2c-0.1,0.5-0.3,1.1-0.4,1.6c-1.3-0.3-2.6-0.5-3.9-0.8
	C215.3,607.8,215.4,607.2,215.6,606.5z"/>
<path class="st2" d="M127.2,578.8c0.8,0.8,1.7,1.6,2.5,2.4c-0.3,0.4-0.6,0.7-0.9,1.1c-0.9-0.7-1.8-1.4-2.7-2.1
	C126.5,579.7,126.9,579.3,127.2,578.8z"/>
<path class="st2" d="M155.7,540.5c0.3-1.6,0.7-3.2,1-4.8c0.4,0,0.7,0.1,1.1,0.1c-0.2,1.7-0.3,3.3-0.5,5
	C156.8,540.7,156.2,540.6,155.7,540.5z"/>
<path class="st2" d="M122.4,500c0.1-1.5,0.2-3,0.4-5.9c0.1,3,0.2,4.6,0.3,6.2C122.8,500.2,122.6,500.1,122.4,500z"/>
<path class="st2" d="M113.7,565.1c-1.2,0.6-1.7,1.2-2.2,1.1c-0.4,0-0.7-0.8-1.1-1.2c0.4-0.3,0.7-0.8,1.1-0.8
	C112,564.2,112.5,564.6,113.7,565.1z"/>
<path class="st2" d="M177.7,588c-0.5-0.7-1-1.3-1.5-2c0.2-0.2,0.4-0.3,0.6-0.5c0.5,0.7,1,1.3,1.5,2
	C178.1,587.7,177.9,587.9,177.7,588z"/>
<path class="st2" d="M124.9,473.5c-0.2-1.4-0.4-2.8-0.6-4.2c0.3,0,0.7,0,1-0.1C125.1,470.6,124.9,472.1,124.9,473.5
	C124.8,473.5,124.9,473.5,124.9,473.5z"/>
<path class="st2" d="M117.4,567.1c-0.3,0.1-0.6,0.3-0.8,0.2c-0.2-0.1-0.3-0.4-0.4-0.6c0.3-0.1,0.5-0.3,0.8-0.3
	C117.2,566.5,117.2,566.9,117.4,567.1z"/>
<path class="st2" d="M271.9,588.1c0.3,0.1,0.5,0.3,0.8,0.4c-0.1,0.2-0.3,0.5-0.4,0.7c-0.3-0.2-0.7-0.4-1-0.6
	C271.5,588.4,271.7,588.3,271.9,588.1z"/>
<path class="st2" d="M132.7,579.3c-0.2,0.1-0.5,0.2-0.7,0.3c0-0.3-0.1-0.6,0-0.8c0.1-0.2,0.4-0.2,0.7-0.3
	C132.7,578.7,132.7,579,132.7,579.3z"/>
<path class="st2" d="M139.8,602.3c0.8-0.1,1.5-0.3,2.3-0.4c0,0.3-0.1,0.6-0.1,0.9C141.2,602.6,140.5,602.5,139.8,602.3L139.8,602.3z
	"/>
<path class="st2" d="M195.7,601.5c-0.2-0.1-0.4-0.3-0.6-0.4c0.2-0.2,0.4-0.3,0.6-0.5c0.1,0,0.3,0.2,0.3,0.2
	C195.9,601.1,195.7,601.3,195.7,601.5z"/>
<path class="st2" d="M111.3,471c0.2,0.2,0.5,0.3,0.7,0.5c-0.2,0.2-0.3,0.4-0.5,0.6l-0.4-0.2C111.1,471.5,111.2,471.3,111.3,471z"/>
<path class="st2" d="M119.8,623.5c-0.1-1-0.1-2.1-0.2-3.1c0.2,0,0.5,0,0.7,0C120.1,621.5,119.9,622.4,119.8,623.5L119.8,623.5z"/>
<path class="st2" d="M126.1,512.1c0.1,0.1,0.3,0.1,0.4,0.2c-0.1,0.2-0.2,0.3-0.3,0.5c-0.1-0.1-0.2-0.2-0.3-0.3
	C125.9,512.3,126,512.2,126.1,512.1z"/>
<path class="st2" d="M126.8,524.6c0.1,0.1,0.3,0.1,0.4,0.2c0,0.1-0.1,0.3-0.2,0.4c-0.2-0.1-0.4-0.2-0.6-0.3
	C126.5,524.8,126.7,524.7,126.8,524.6z"/>
<path class="st2" d="M228.8,621.4c-0.2-0.1-0.6-0.2-0.7-0.4c-0.1-0.1,0.1-0.4,0.2-0.7c0.2,0.1,0.6,0.2,0.7,0.4
	C229,620.9,228.8,621.2,228.8,621.4z"/>
<path class="st2" d="M173.9,552.6c0,0.7,0,1.4,0,2.2c-0.3-0.1-0.6-0.2-0.9-0.3c0.3-0.6,0.7-1.2,1-1.8L173.9,552.6z"/>
<polygon class="st2" points="110.7,588.5 110.8,588.3 111,588.5 "/>
<path class="st2" d="M129.4,623.8c-0.2,0.1-0.3,0.1-0.4,0.2c0-0.1-0.1-0.2-0.1-0.4C129,623.7,129.1,623.8,129.4,623.8z"/>
<path class="st2" d="M141.5,615.6c0.1,0.3,0.2,0.6,0.2,0.9C141.7,616.2,141.6,615.8,141.5,615.6
	C141.6,615.5,141.5,615.6,141.5,615.6z"/>
<path class="st2" d="M124,483.4l0.2-0.2L124,483.4C124,483.5,124,483.4,124,483.4z"/>
<path class="st2" d="M141.3,505.1l-0.1-0.1C141.1,505,141.3,505.1,141.3,505.1z"/>
<polygon class="st2" points="189.1,566.8 189.1,567 189.2,566.9 "/>
<path class="st2" d="M175.2,582.8L175.2,582.8L175.2,582.8z"/>
<path class="st2" d="M175.1,582.9L175.1,582.9L175.1,582.9z"/>
<path class="st2" d="M249.1,597.9c-0.4,0-0.8,0-1.2,0C248.3,597.9,248.7,597.9,249.1,597.9z"/>
<path class="st2" d="M459.2,615.1l0.3-0.2l-0.2,0.1L459.2,615.1z"/>
<path class="st2" d="M455.5,616.9l0.1-0.1C455.6,616.8,455.5,616.9,455.5,616.9z"/>
<path class="st2" d="M441.4,481.9c0,0.6,0,1.1,0,1.7c-0.4-0.1-0.7-0.3-1.1-0.4c0.4-0.4,0.8-0.7,1.2-1.1
	C441.5,482,441.4,481.9,441.4,481.9z"/>
<path class="st2" d="M463.9,489.6c0-0.5-0.1-1,0-0.2C463.9,488.6,463.9,489.1,463.9,489.6C463.9,489.5,463.9,489.6,463.9,489.6z"/>
<path class="st2" d="M460.6,479.2l-0.1-0.1L460.6,479.2z"/>
<path class="st2" d="M304.8,246.8c1.4-0.4,2.7-0.7,4.1-1.1c0.1,0.7,0.2,1.5,0.3,2.2c-1.4,0.1-2.8,0.2-4.2,0.3
	C305,247.7,304.9,247.3,304.8,246.8z"/>
<path class="st2" d="M325.3,248.1c-0.6,0.4-1,0.6-1.4,0.8c-0.2-0.4-0.4-0.7-0.4-1.1c0-0.2,0.5-0.6,0.7-0.6
	C324.5,247.3,324.8,247.7,325.3,248.1z"/>
<path class="st2" d="M315.4,244.3c1.8,0.3,2.6,0.4,3.4,0.5c-0.5,0.5-1.1,1-1.7,1.4C317.1,246.3,316.6,245.6,315.4,244.3z"/>
<path class="st2" d="M324.3,241.8c-0.6,0.1-1.2,0.2-1.9,0.3c0-0.2,0-0.3,0-0.5C323.1,241.6,323.7,241.7,324.3,241.8
	C324.4,241.8,324.3,241.8,324.3,241.8z"/>
<path class="st2" d="M324.8,252.4c-0.3,0-0.7,0-1,0C324.1,252.4,324.4,252.4,324.8,252.4z"/>
<path class="st2" d="M326.7,225.4c0.4,0,0.8,0,1.2,0C327.6,225.4,327.2,225.4,326.7,225.4z"/>
<path class="st2" d="M316.9,227.3l0.1,0.1C317,227.5,316.9,227.3,316.9,227.3z"/>
<path class="st2" d="M343.7,228.4c0.4,0,0.8,0,1.2,0C344.5,228.4,344.1,228.4,343.7,228.4z"/>
<path class="st2" d="M345.9,235.3l-0.1,0.1C345.8,235.4,345.9,235.3,345.9,235.3z"/>
<path class="st2" d="M347.9,234.3c0,0.4-0.1,0.7-0.1,1.1l0.1-0.1c-0.4,0-0.8,0-1.1,0l0.1,0.1C347.2,235,347.5,234.7,347.9,234.3z"/>
<path class="st2" d="M346.8,236.3c-0.4,0-0.7,0.1-1.1,0.1c0-0.4,0.1-0.8,0.1-1.1l-0.1,0.1c0.4,0,0.8,0,1.1,0l-0.1-0.1
	c0,0.4,0,0.8,0,1.1C346.7,236.4,346.8,236.3,346.8,236.3z"/>
<path class="st2" d="M377.6,503l0.1-0.1C377.8,502.9,377.6,503,377.6,503z"/>
<path class="st2" d="M443,523.4c0.2,0,0.5-0.1,0.5-0.1C443.5,523.3,443.2,523.4,443,523.4L443,523.4z"/>
<polygon class="st2" points="449.6,401.1 449.5,401.2 449.7,401.2 "/>
<path class="st3" d="M450.6,416.3l-0.1-0.1C450.5,416.1,450.6,416.3,450.6,416.3z"/>
<path class="st2" d="M164.2,433.3l-0.1-0.1C164.1,433.1,164.2,433.3,164.2,433.3z"/>
<path class="st2" d="M316.9,178.4c-0.4,0-0.8,0.1-1.1,0.1c0.4-0.3,0.8-0.7,1.2-1l-0.1-0.1c0,0.4,0,0.8,0,1.1V178.4z"/>
<path class="st2" d="M347.7,236.3c0,0.4,0.1,0.8,0.1,1.2c-0.3-0.4-0.7-0.8-1-1.2l-0.1,0.1c0.4,0,0.8,0,1.1,0L347.7,236.3z"/>
<path class="st2" d="M344.6,239.1l0.2,0.2L344.6,239.1C344.4,239.1,344.6,239.1,344.6,239.1z"/>
<path class="st2" d="M348.9,236.4c-0.4,0-0.8-0.1-1.2-0.1l0.1,0.1c0-0.4,0-0.7,0-1.1l-0.1,0.1C348.1,235.7,348.5,236.1,348.9,236.4z
	"/>
<path class="st2" d="M329.8,387.2c0.4-0.4,0.8-0.8,1.1-1.1C330.5,386.5,330.1,386.9,329.8,387.2z"/>
<path class="st2" d="M225,399.1c0,0.4,0.1,0.8,0.1,1.2c-0.4,0-0.8,0-1.1,0c0-0.4,0.1-0.8,0.1-1.2l-0.1,0.1c0.4,0,0.8,0,1.2,0
	L225,399.1z"/>
<path class="st2" d="M318,179.4c-0.4,0-0.8,0-1.1,0.1c0-0.4,0.1-0.8,0.1-1.1l-0.1,0.1c0.4,0,0.8,0,1.1,0l-0.1-0.2c0,0.4,0,0.8,0,1.2
	L318,179.4z"/>
<path class="st2" d="M254.1,255.3c-0.4,0.7-0.7,1.4-1.1,2.1c-0.7-0.4-1.4-0.7-2.1-1.1C252,256,253,255.7,254.1,255.3z"/>
<path class="st2" d="M234,302.3c0-0.4,0-0.7,0-1.1c0.7,0.4,1.4,0.7,2.1,1.1C235.4,302.3,234.7,302.3,234,302.3z"/>
<path class="st2" d="M250.1,262.3l0.1,0.1L250.1,262.3z"/>
<path class="st2" d="M222.7,276.5l0.3-0.1l-0.2,0.1H222.7z"/>
<path class="st2" d="M226.1,307.2l0.1,0.1C226.2,307.3,226.1,307.2,226.1,307.2z"/>
<path class="st2" d="M234.1,315.2c0,0.4,0,0.8,0,1.2C234.1,316,234.1,315.6,234.1,315.2z"/>
<path class="st2" d="M317.8,167.4c0.7,1.1,1.4,2.1,2.1,3.2C319.2,169.5,318.5,168.4,317.8,167.4z"/>
<path class="st2" d="M312.1,170.3c1,0.5,2.1,1,3.1,1.6v-0.1c-1-0.5-2-1-3-1.6L312.1,170.3z"/>
<path class="st2" d="M297.5,164.1c0.6-0.1,1.1-0.1,1.7-0.2c0,0.1,0,0.3-0.1,0.4C298.6,164.2,298,164.1,297.5,164.1
	C297.4,164,297.5,164.1,297.5,164.1z"/>
<path class="st2" d="M312.8,166.6c0.3,0.3,0.6,0.6,0.9,1c-0.3-0.4-0.5-0.7-0.8-1.1C313,166.5,312.8,166.6,312.8,166.6z"/>
<path class="st2" d="M299.3,160.8c-0.3,0.1-0.6,0.1-0.9,0.2C298.7,160.9,299.1,160.9,299.3,160.8
	C299.4,160.8,299.3,160.8,299.3,160.8z"/>
<path class="st2" d="M304.8,160.4c0.7,0,1.5,0,2.2,0C306.3,160.4,305.5,160.4,304.8,160.4z"/>
<path class="st2" d="M312.2,170.2c-0.3,0-0.6,0-0.9,0c0.3,0,0.5,0.1,0.8,0.1C312.1,170.3,312.2,170.2,312.2,170.2z"/>
<path class="st2" d="M313.8,163.4c0.4,0,0.8,0,1.1,0c0,0.4,0,0.8,0,1.1C314.6,164.2,314.2,163.8,313.8,163.4z"/>
<polygon class="st2" points="313,166.5 312.8,166.3 312.8,166.6 "/>
<path class="st2" d="M316.8,166.4c0.4,0,0.8,0,1.2,0c0,0.4,0,0.8,0,1.1C317.5,167.2,317.2,166.8,316.8,166.4z"/>
<path class="st2" d="M315.2,171.9l-0.2-0.4l0.2,0.2C315.2,171.8,315.2,171.9,315.2,171.9z"/>
<path class="st2" d="M316.6,173.6h-0.1H316.6z"/>
<path class="st2" d="M316.5,173.6l0.4-0.1l-0.2,0.1C316.6,173.6,316.5,173.6,316.5,173.6z"/>
<path class="st2" d="M318,178.5c-0.4,0-0.8,0-1.1,0c0-0.4,0-0.8,0-1.1C317.2,177.7,317.6,178.1,318,178.5z"/>
<path class="st2" d="M317.8,179.6c0-0.4,0-0.8,0-1.2C317.8,178.7,317.8,179.2,317.8,179.6z"/>
<path class="st2" d="M257.1,254.3c0,0.4,0,0.8,0,1.1c-1.1,0-2.1,0-3.2,0C255,255,256,254.6,257.1,254.3z"/>
<path class="st2" d="M258.1,254.4c-0.4,0-0.8,0-1.2,0C257.3,254.4,257.7,254.4,258.1,254.4z"/>
<path class="st2" d="M371.7,237.4c0.4,0,0.8,0,1.2,0C372.5,237.4,372.1,237.4,371.7,237.4z"/>
<path class="st2" d="M223,397.2c0-0.4,0-0.8,0-1.1c0.4,0,0.8,0,1.1,0C223.8,396.5,223.4,396.9,223,397.2z"/>
<path class="st2" d="M225.1,399.1c-0.4,0-0.8,0-1.2,0C224.4,399.1,224.7,399.1,225.1,399.1z"/>
<path class="st2" d="M304,358.1c0,0.4,0,0.8,0,1.2c-0.4-0.4-0.8-0.8-1.1-1.1C303.2,358.2,303.6,358.2,304,358.1z"/>
<path class="st2" d="M102.4,603c-0.4-0.4-0.8-0.8-1.2-1.2C101.6,602.2,102,602.6,102.4,603z"/>
<path class="st2" d="M347.9,235.3c0,0.4,0,0.7,0,1.1c-0.4,0-0.8,0-1.1,0c0-0.4,0-0.8,0-1.1C347.1,235.3,347.5,235.3,347.9,235.3z"/>
</svg>
