<svg width="26" height="25" viewBox="0 0 26 25" fill="none" xmlns="http://www.w3.org/2000/svg">
<path d="M5.12095 21.2508L3.36548 1.5625H22.6545L20.8967 21.2477L12.9983 23.4375L5.12095 21.2508Z" fill="#E44F26"/>
<path d="M13.01 21.7641L19.3928 19.9945L20.8944 3.17267H13.01V21.7641Z" fill="#F1662A"/>
<path d="M13.01 10.4742H9.8147L9.59438 8.00157H13.01V5.58673H6.95532L7.01314 6.23517L7.6061 12.8891H13.01V10.4742ZM13.01 16.7453L12.9991 16.7484L10.31 16.0227L10.1381 14.0969H7.71392L8.0522 17.8875L12.9991 19.2609L13.01 19.2578V16.7453Z" fill="#EBEBEB"/>
<path d="M13.0014 10.4742V12.8891H15.9748L15.6952 16.0211L13.0014 16.7477V19.2602L17.9522 17.8875L17.9881 17.4797L18.5553 11.1227L18.6147 10.4742H13.0014ZM13.0014 5.58673V8.00157H18.8342L18.8827 7.45939L18.9928 6.23517L19.0506 5.58673H13.0014Z" fill="white"/>
</svg>
