<svg width="26" height="25" viewBox="0 0 26 25" fill="none" xmlns="http://www.w3.org/2000/svg">
<path d="M1.83252 1.5625H23.7075V23.4375H1.83252V1.5625Z" fill="#F5DE19"/>
<path d="M16.5271 18.6524C16.7135 19.031 17.003 19.3492 17.3624 19.5703C17.7218 19.7915 18.1364 19.9066 18.5583 19.9024C19.4099 19.9024 19.9544 19.4766 19.9544 18.8867C19.9544 18.1836 19.395 17.9321 18.4575 17.5219L17.9435 17.3016C16.4591 16.6696 15.4747 15.8782 15.4747 14.2047C15.4747 12.6633 16.6466 11.4891 18.4849 11.4891C19.08 11.4461 19.6745 11.5793 20.1944 11.872C20.7143 12.1648 21.1365 12.6041 21.4083 13.1352L19.8013 14.1625C19.6966 13.8992 19.5144 13.6739 19.2787 13.5165C19.0431 13.3591 18.7651 13.2771 18.4818 13.2813C18.3581 13.2689 18.2333 13.2824 18.1152 13.321C17.9971 13.3595 17.8883 13.4222 17.7957 13.5051C17.7032 13.588 17.629 13.6893 17.5777 13.8025C17.5265 13.9157 17.4994 14.0383 17.4982 14.1625C17.4982 14.7789 17.8802 15.0289 18.7622 15.4125L19.2763 15.6328C21.0232 16.3821 22.0107 17.1453 22.0107 18.8617C22.0107 20.7125 20.5568 21.7266 18.6044 21.7266C17.8437 21.7751 17.0852 21.6024 16.4205 21.2293C15.7558 20.8563 15.2133 20.2988 14.8583 19.6242L16.5271 18.6524ZM9.26536 18.8305C9.58801 19.4032 9.88176 19.8875 10.588 19.8875C11.263 19.8875 11.6896 19.6235 11.6896 18.5961V11.6063H13.745V18.6235C13.745 20.7516 12.495 21.7203 10.6755 21.7203C10.0323 21.7555 9.3936 21.5952 8.84324 21.2606C8.29287 20.9259 7.85665 20.4326 7.59192 19.8453L9.26536 18.8305Z" fill="black"/>
</svg>
