<svg width="26" height="25" viewBox="0 0 26 25" fill="none" xmlns="http://www.w3.org/2000/svg">
<path d="M5.54094 21.2508L3.78625 1.5625H23.0738L21.3167 21.2477L13.4183 23.4375L5.54094 21.2508Z" fill="#1572B6"/>
<path d="M13.43 21.7641L19.8128 19.9945L21.3144 3.17267H13.43V21.7641Z" fill="#33A9DC"/>
<path d="M13.43 10.3055H16.6253L16.8456 7.83281H13.43V5.41797H19.4847L19.4269 6.06563L18.8339 12.7203H13.43V10.3055Z" fill="white"/>
<path d="M13.4448 16.5766L13.4339 16.5797L10.7448 15.8531L10.573 13.9274H8.14874L8.48702 17.7188L13.4331 19.0922L13.4448 19.0891V16.5766Z" fill="#EBEBEB"/>
<path d="M16.4198 12.618L16.1292 15.8516L13.4362 16.5781V19.0906L18.3862 17.7188L18.4229 17.311L18.8425 12.618H16.4198Z" fill="white"/>
<path d="M13.4386 5.41797V7.83281H7.60575L7.55731 7.28984L7.44716 6.06563L7.38934 5.41797H13.4386ZM13.43 10.3055V12.7203H10.7745L10.7261 12.1773L10.6167 10.9531L10.5589 10.3055H13.43Z" fill="#EBEBEB"/>
</svg>
